<svg viewBox="0 0 512 512" xmlns="http://www.w3.org/2000/svg"><path d="m437.019 74.982c-48.352-48.354-112.638-74.982-181.019-74.982s-132.667 26.628-181.018 74.982c-48.354 48.351-74.982 112.637-74.982 181.018s26.628 132.667 74.982 181.019c48.351 48.353 112.637 74.981 181.018 74.981s132.667-26.628 181.019-74.981c48.353-48.352 74.981-112.638 74.981-181.019s-26.628-132.667-74.981-181.018zm-181.019 416.62c-129.911 0-235.602-105.69-235.602-235.602s105.691-235.602 235.602-235.602 235.602 105.691 235.602 235.602-105.691 235.602-235.602 235.602z"/><path d="m462.131 298.131c-5.464-1.392-11.012 1.907-12.4 7.367-5.689 22.34-15.158 43.377-28.142 62.528-3.161 4.663-1.943 11.004 2.719 14.166 1.753 1.188 3.744 1.758 5.715 1.758 3.268 0 6.48-1.568 8.451-4.478 14.313-21.11 24.751-44.306 31.024-68.94 1.39-5.459-1.907-11.012-7.367-12.401z"/><path d="m466.104 245.801c-5.632 0-10.199 4.567-10.199 10.199 0 2.915-.063 5.855-.188 8.739-.244 5.628 4.121 10.387 9.749 10.63.15.007.299.01.448.01 5.43 0 9.945-4.282 10.182-9.759.138-3.176.207-6.412.207-9.62 0-5.632-4.567-10.199-10.199-10.199z"/><path d="m256 172.877c-19.683 0-35.697 16.014-35.697 35.697v177.466c0 19.683 16.014 35.697 35.697 35.697s35.697-16.014 35.697-35.697v-177.466c0-19.684-16.014-35.697-35.697-35.697zm15.299 213.163c0 8.436-6.863 15.299-15.299 15.299s-15.299-6.863-15.299-15.299v-177.466c0-8.436 6.863-15.299 15.299-15.299s15.299 6.863 15.299 15.299z"/><path d="m281.235 100.707c-6.652-6.638-15.851-10.444-25.235-10.444-9.385 0-18.584 3.806-25.246 10.453-6.642 6.644-10.451 15.844-10.451 25.244 0 9.384 3.806 18.583 10.46 25.251 6.652 6.639 15.851 10.446 25.237 10.446 9.385 0 18.584-3.807 25.251-10.461 6.639-6.652 10.446-15.851 10.446-25.236 0-9.4-3.809-18.601-10.462-25.253zm-14.408 36.066c-2.858 2.85-6.804 4.486-10.827 4.486-4.026 0-7.972-1.636-10.813-4.47-2.85-2.858-4.486-6.805-4.486-10.828 0-4.032 1.633-7.976 4.469-10.813 2.858-2.85 6.805-4.486 10.83-4.486 4.024 0 7.971 1.636 10.819 4.478 2.847 2.847 4.479 6.79 4.479 10.82.001 4.025-1.635 7.971-4.471 10.813z"/></svg>