<svg enable-background="new 0 0 525 524.9" viewBox="0 0 525 524.9" xmlns="http://www.w3.org/2000/svg"><path d="m507.5 227.5h-52.5v-35c0-4.6-1.8-9.1-5.1-12.4s-7.7-5.1-12.4-5.1h-18.6c.7-5.8 1.1-11.7 1.1-17.5 0-56.3-30-108.3-78.8-136.4-48.7-28.1-108.7-28.1-157.4 0-48.8 28.1-78.8 80.1-78.8 136.4 0 5.8.3 11.7 1.1 17.5h-18.6c-4.6 0-9.1 1.8-12.4 5.1s-5.1 7.7-5.1 12.4v35h-52.5c-4.6 0-9.1 1.8-12.4 5.1s-5.1 7.8-5.1 12.4v192.5c0 13.9 5.5 27.3 15.4 37.1 9.8 9.8 23.2 15.4 37.1 15.4h115.2c13.6 0 27 3.2 39.2 9.3l47.8 23.8c5 2.5 10.8 2.5 15.8 0l47.8-23.8c12.2-6.1 25.6-9.3 39.2-9.3h115.1c13.9 0 27.3-5.5 37.1-15.4 9.8-9.8 15.4-23.2 15.4-37.1v-192.5c0-4.6-1.8-9.1-5.1-12.4s-7.9-5.1-12.5-5.1zm-87.5-17.5v157.5c0 4.6-1.8 9.1-5.1 12.4s-7.7 5.1-12.4 5.1h-55.6c-23.7 0-47 7-66.9 19.9v-91c29.3-3.3 57.2-14.8 80.3-33.2s40.6-42.9 50.4-70.7zm-157.5-175c32.5 0 63.6 12.9 86.6 35.9s35.9 54.1 35.9 86.6-12.9 63.6-35.9 86.6-54.1 35.9-86.6 35.9-63.6-12.9-86.6-35.9-35.9-54.1-35.9-86.6 12.9-63.6 35.9-86.6 54.1-35.9 86.6-35.9zm-157.5 175h9.3c9.9 27.8 27.3 52.3 50.4 70.7s50.9 29.9 80.3 33.2v91c-19.9-13-43.1-19.9-66.9-19.9h-55.6c-4.6 0-9.1-1.8-12.4-5.1s-5.1-7.7-5.1-12.4zm62.6 245h-115.1c-4.6 0-9.1-1.8-12.4-5.1s-5.1-7.7-5.1-12.4v-175h35v105c0 13.9 5.5 27.3 15.4 37.1 9.8 9.8 23.2 15.4 37.1 15.4h55.6c17.3 0 34.2 5.1 48.7 14.7l17.5 12.2v32.2l-22.6-11.1c-16.8-8.4-35.3-12.8-54.1-13zm322.4-17.5c0 4.6-1.8 9.1-5.1 12.4s-7.7 5.1-12.4 5.1h-115.2c-19 0-37.8 4.5-54.8 12.9l-22.5 11.3v-32.2l17.5-12.2c14.6-9.7 31.8-14.9 49.4-14.7h55.6c13.9 0 27.3-5.5 37.1-15.4 9.8-9.8 15.4-23.2 15.4-37.1v-105h35z"/><path d="m332.5 332.5h70v35h-70z"/><path d="m122.5 332.5h70v35h-70z"/><path d="m236.3 67.4h35v36.8h-35z"/><path d="m297.5 212.6h-17.5v-70c0-4.6-1.8-9.1-5.1-12.4s-7.7-5.1-12.4-5.1h-35v35h17.5v52.5h-17.5v35h70z"/></svg>