<svg enable-background="new 0 0 700 700" viewBox="0 0 700 700" xmlns="http://www.w3.org/2000/svg"><path d="m563.6 498.6-194-464.7c-4.2-10-14-16.5-24.8-16.4s-20.5 6.8-24.5 16.8l-184.1 465.4c-4 10.2-1.4 21.8 6.6 29.3 5 4.7 11.5 7.1 18.1 7.1 3.9 0 7.9-.9 11.6-2.7l177-85.6 178 85c10 4.8 21.8 2.9 29.8-4.7 8.1-7.5 10.6-19.3 6.3-29.5z" fill="#feb933"/><path d="m349.5 447.8 178 85c10 4.8 21.8 2.9 29.8-4.7 8.1-7.5 10.6-19.3 6.3-29.5l-194-464.7c-4.2-10-14-16.5-24.8-16.4" fill="#fecb68"/><path d="m344.8 17.5c-10.8.1-20.5 6.8-24.5 16.8l-184.1 465.4c-4 10.2-1.4 21.8 6.6 29.3 5 4.7 11.5 7.1 18.1 7.1 3.9 0 7.9-.9 11.6-2.7l177-85.6" fill="#feb933"/><path d="m350 378.8 148.2 51.9v184.1l-148.2 67.6-148.3-63.2.2-186.9z" fill="#464646"/><path d="m201.9 432.3-.2 186.9 148.3 63.2v-194.4z" fill="#232323"/><path d="m201.9 477.1v28.4l148.1 59.1v-28.1z" fill="#feb933"/><g fill="#fecb68"><path d="m498.3 477-.1 28.9-148.2 58.7v-28.1z"/><path d="m474.4 546.5.2 79.1-45.9 20.6v-81.6z"/></g></svg>