<svg enable-background="new 0 0 473.8 256.9" viewBox="0 0 473.8 256.9" xmlns="http://www.w3.org/2000/svg"><path d="m115.1 152.5c-12.4-.1-16.7 4.7-17 18.9-.2 10.2 3.2 12.1 21 12.3 10.4.1 12.3-2.1 12.3-14.5.1-12.9-3.4-16.5-16.3-16.7zm-2.6 24.9c-2.5-.6-9.1 2.1-8.6-6.1.4-6.7 1.3-12.9 10.7-12.5 6.7.3 11 1.8 10.9 9.8-.2 8.2-4.7 9.7-13 8.8z"/><path d="m143.7 42c-1.3-10.3-2.7-19.1-1.6-28.2.5-4.4 3.3-11.7-3-11.9-6.1-.2-3.6 7.5-4.2 11.8-2.3 17.2 4.1 33.7 4.2 50.7.1 30.1.1 60.3-.3 90.4-.1 7-1.2 14.1-2.9 20.9-2.6 10.5-12.8 15.1-25.6 12.4-12.3-2.7-16.2-8.2-14.2-20.6 2.2-13.6 4.9-27.1 6.7-40.8.6-4.6 2.3-12.5-4.2-12.8-6.3-.3-5.6 7.5-5.7 12.3-.2 16.6-1.5 33-4.9 50.1-1.1-4.9-1.4-9.5-6.6-10.3-5.9-.9-11.3-.1-15 5.9 2.1-13.9 4.2-27.9 6.2-41.8.4-3 1.9-7.6-2.4-8-4.1-.4-3.7 4.6-4.1 7.5-.9 6-1.6 12.1-1.8 18.2-.4 11-8.6 5.9-13.5 6.3-7 .6-3.7-5.6-3.5-8.4.7-9.6 2.3-19.1 3.5-28.6.2-1.8.1-4.3-2.3-4.7-3.2-.6-3.6 2.3-3.9 4.3-.9 6.3-1.2 12.7-2.1 19.1-1.6 11.2-9.1 3-13.4 4.4-5.2 1.8-3.2-4.2-2.9-6.6 1.5-11.5 3.8-22.8 7-33.9.5-1.8 1.2-4.3-.8-5.2-2.8-1.2-4.1 1.4-4.6 3.5-1.8 7.3-3.4 14.6-5.3 22.5-1.4-2.5-2.5-4.6-4.6-4.4-11.8.8-10.1-6.7-8.7-13.9 1.3-6.9 3.2-13.8 2.8-20.9-1.2-17.3 2-33.9 7.5-50.2 2.8-8.2 4.3-16.8 5-25.5.2-2.3.3-4.9-2.6-5.5-3.6-.7-4.1 2.2-4.6 4.8-.9 5.4-.8 11.2-2.9 16-12.1 28.2-8.5 58.8-14 88-1 5.4.3 10.9 1.7 16.2 1.5 6 5.1 10.9 11.4 11.8 6.4 1 7.2 4.7 7.7 10 .8 8.4 4.7 14.8 14.1 15.5 3.7.3 4.6 2.1 5.7 5.1 2.4 6.4 30.9 24.2 37.6 24.1 3.3-.1 6.3-1 9.1-2.8 2.6-1.6 4.9-2.1 8-.5 18.2 9.2 27.9 10.2 38.6 1.2 4.3-4.4 6.5-10.5 8.8-16.3 0-.5.1-1 .2-1.4 0-.7.1-1.3.3-2 0-.4.1-.8.2-1.1v-127.1c0 .2 0 .3-.1.4zm-125.9 82.7c0 .5-.2 1-.5 1.5-.5.9-1.1 1.8-2 2.3 0 0 0 0-.1 0-.1.1-.8.4-1 .4-.1 0-1 .1-1.1.1s-1-.1-1.1-.1c-.3-.1-.7-.2-1-.4-.2-.1-.7-.5-.8-.6s-.5-.6-.6-.8c-.2-.3-.3-.6-.4-1-.1-.2-.1-.4-.1-.6s-.1-.5-.1-.7c0-.5.1-1 .2-1.4s.2-.8.3-1.2c.2-.7.5-1.2 1-1.7.3-.2.5-.4.8-.6.6-.4 1.3-.5 2-.5.3 0 .7.1 1 .1.5.1 1 .4 1.3.7.4.3.8.6 1 1.1.2.3.3.5.4.8.2.3.4.7.5 1.1.4.5.4 1 .3 1.5zm18.9 28.2c-.2.5-.5 1.1-.9 1.5-.7.7-1.8 1.1-2.8 1.1-.8 0-1.7-.3-2.3-.8 0 0-.1-.1-.1-.1-.3-.1-.7-.3-1-.4-.7-.4-1.4-1-1.8-1.7-1-1.7-.7-3.8.4-5.3.8-1 1.6-1.7 2.9-1.9 1.2-.2 2.4.2 3.3 1.1 0 0 .1.1.1.1.7.4 1.3.8 1.8 1.4 1.4 1.3 1.5 3.4.4 5zm22.1 15.2c-1.9 1.8-4.1 3.3-6.8 2.7-2.6-.6-3.9-3.1-4.6-5.4-.4-1.2 0-3 1-3.8 1.1-.9 2.1-1.5 3.6-1.6h.7c1.3-.3 2.7.2 3.7 1.1 1.3.2 2.3 1.1 3.1 2.2.8 1.4.5 3.6-.7 4.8zm22.7 14.2c-2.4.8-4.9 1-7.5.5-1.3-.3-2.5-1.5-2.7-2.7-.3-1.6-.4-3.1.4-4.6.3-.5.6-.9 1-1.3.9-1.6 2.9-2.2 4.6-1.7.5-.2 1.1-.3 1.6-.3 3.1.1 4.4 2.9 5.4 5.4.7 1.9-.9 4.1-2.8 4.7z"/><path d="m342.4 169.2c.1 12.4 2 14.6 12.3 14.5 17.8-.2 21.2-2.2 21-12.3-.3-14.2-4.6-19-17-18.9-12.8.2-16.4 3.8-16.3 16.7zm6-.6c-.1-8 4.2-9.5 10.9-9.8 9.3-.4 10.3 5.8 10.7 12.5.4 8.2-6.1 5.4-8.6 6.1-8.4.9-12.9-.6-13-8.8z"/><path d="m330 41.6v127.2c.1.4.2.7.2 1.1.3.6.4 1.3.3 2 .1.5.2.9.2 1.4 2.3 5.8 4.6 11.9 8.8 16.3 10.7 9 20.5 8 38.6-1.2 3.1-1.6 5.4-1.2 8 .5 2.8 1.8 5.8 2.7 9.1 2.8 6.8.2 35.3-17.7 37.6-24.1 1.1-3 2-4.9 5.7-5.1 9.4-.6 13.3-7.1 14.1-15.5.5-5.3 1.3-9 7.7-10 6.2-1 9.8-5.8 11.4-11.8 1.3-5.3 2.7-10.8 1.7-16.2-5.5-29.2-1.9-59.8-14-88-2.1-4.9-2-10.7-2.9-16-.5-2.6-1-5.5-4.6-4.8-2.8.6-2.8 3.2-2.6 5.5.7 8.7 2.2 17.2 5 25.5 5.5 16.3 8.6 32.9 7.5 50.2-.5 7.2 1.4 14 2.8 20.9 1.4 7.2 3.1 14.8-8.7 13.9-2.1-.1-3.2 1.9-4.6 4.4-1.8-8-3.4-15.3-5.3-22.5-.5-2.2-1.8-4.7-4.6-3.5-2.1.9-1.4 3.3-.8 5.2 3.3 11.1 5.5 22.5 7 33.9.3 2.4 2.3 8.4-2.9 6.6-4.3-1.4-11.8 6.8-13.4-4.4-.9-6.4-1.2-12.7-2.1-19.1-.3-2-.7-4.9-3.9-4.3-2.3.4-2.5 2.9-2.3 4.7 1.1 9.6 2.8 19.1 3.5 28.6.2 2.8 3.4 9-3.5 8.4-4.8-.4-13.1 4.7-13.5-6.3-.2-6.1-.9-12.2-1.8-18.2-.4-3 0-7.9-4.1-7.5-4.3.4-2.8 4.9-2.4 8 2 13.9 4.1 27.9 6.2 41.8-3.6-6-9-6.8-15-5.9-5.3.8-5.6 5.4-6.6 10.3-3.4-17.1-4.7-33.5-4.9-50.1 0-4.8.6-12.7-5.7-12.3-6.4.3-4.7 8.3-4.2 12.8 1.7 13.7 4.4 27.2 6.7 40.8 2 12.3-1.9 17.9-14.2 20.6-12.8 2.8-22.9-1.8-25.6-12.4-1.7-6.8-2.8-13.9-2.9-20.9-.4-30.1-.5-60.3-.3-90.4.1-17 6.5-33.5 4.2-50.7-.6-4.4 1.9-12.1-4.2-11.8-6.3.2-3.5 7.6-3 11.9 1.1 9.1-.3 17.9-1.6 28.2 0-.2-.1-.3-.1-.5zm126.1 81.6c.1-.4.3-.8.5-1.1.1-.3.2-.6.4-.8.2-.5.6-.8 1-1.1s.8-.6 1.3-.7c.3 0 .7-.1 1-.1.7 0 1.4.2 2 .5.3.2.5.4.8.6.5.5.8 1.1 1 1.7.1.4.2.8.3 1.2s.2 1 .2 1.4c0 .2 0 .5-.1.7 0 .2 0 .4-.1.6-.1.3-.2.7-.4 1-.1.2-.5.7-.6.8s-.7.5-.8.6c-.3.2-.6.3-1 .4-.1 0-1 .1-1.1.1s-1-.1-1.1-.1-.8-.3-1-.4c0 0 0 0-.1 0-.9-.5-1.5-1.4-2-2.3-.3-.5-.4-.9-.5-1.5.1-.5.1-1 .3-1.5zm-18.5 24.6c.5-.5 1.2-1 1.8-1.4 0 0 .1-.1.1-.1.9-.9 2.1-1.2 3.3-1.1 1.3.2 2.1.8 2.9 1.9 1.1 1.5 1.5 3.7.4 5.3-.4.7-1.1 1.3-1.8 1.7-.3.2-.7.3-1 .4 0 0-.1.1-.1.1-.7.5-1.5.8-2.3.8-1 0-2.1-.4-2.8-1.1-.4-.4-.7-1-.9-1.5-1.1-1.5-1-3.6.4-5zm-23.2 15.5c.7-1.1 1.8-2 3.1-2.2 1-.9 2.4-1.5 3.7-1.1h.7c1.4.1 2.5.7 3.6 1.6 1 .9 1.4 2.6 1 3.8-.7 2.3-2 4.9-4.6 5.4-2.7.6-5-.9-6.8-2.7-1.2-1.2-1.6-3.4-.7-4.8zm-24.8 14.1c1-2.5 2.3-5.3 5.4-5.4.6 0 1.1.1 1.6.3 1.7-.5 3.6.1 4.6 1.7.3.4.7.8 1 1.3.8 1.5.7 3 .4 4.6-.3 1.3-1.5 2.5-2.7 2.7-2.5.5-5 .3-7.5-.5-1.9-.4-3.6-2.6-2.8-4.7z"/><path d="m263.2 58.9c5.7 1.4 10.6 3.9 14.3 8.5 3.3 4.2 5.1 8.9 5.1 14.2v152c0 12.5-10 22.9-22.5 23.1-18.6.2-37.2.2-55.8 0-13-.1-23.1-10.7-23.1-23.7 0-50.2 0-100.4 0-150.6 0-11.7 7.4-20.8 18.9-23.3.2 0 .4-.1.5-.2h62.6zm13.8 98.9c0-24.8 0-49.7 0-74.5 0-11.3-7.5-18.8-18.9-18.9-17.6 0-35.3 0-52.9 0-10.8 0-18.3 7.6-18.3 18.4v149.7c0 1.8.2 3.6.7 5.3 2.4 8.4 9.1 13.3 18.5 13.4 17.4.1 34.9 0 52.3 0 3 0 5.9-.4 8.6-1.8 6.7-3.5 10-9.1 10-16.6 0-25 0-50 0-75z"/><path d="m275.3 156.3v62.6c0 3.4-.2 3.6-3.6 3.6-26.5 0-53 0-79.5 0-3.2 0-3.6-.3-3.6-3.5 0-41.8 0-83.5 0-125.3 0-3.2.3-3.5 3.5-3.5h79.7c3.2 0 3.4.3 3.4 3.4.1 20.8.1 41.7.1 62.7zm-3.3.2c0-20.1 0-40.3 0-60.4 0-2.6 0-2.6-2.7-2.6-24.9 0-49.8 0-74.7 0-2.8 0-2.8 0-2.8 2.7v120.3c0 2.7 0 2.7 2.8 2.7h74.5c2.9 0 2.9 0 2.9-2.8 0-20 0-40 0-59.9z"/><path d="m242.5 77.3c0 5.9-4.7 10.4-10.7 10.4-5.7 0-10.4-4.8-10.4-10.5 0-5.8 4.9-10.6 10.6-10.6 5.8 0 10.5 4.8 10.5 10.7zm-3.3-.1c0-4.2-3.1-7.3-7.3-7.3s-7.3 3.1-7.3 7.3 3 7.3 7.3 7.3c4.3-.1 7.3-3.1 7.3-7.3z"/><path d="m231.9 232.3h7.9c1.1 0 2.6 0 2.6 1.6s-1.3 1.6-2.5 1.6c-5.3 0-10.5 0-15.8 0-1.2 0-2.5-.1-2.5-1.7 0-1.4 1.3-1.6 2.4-1.6 2.6.1 5.2.1 7.9.1z"/><path d="m237.1 77.1c0 5.2 0 5.2-5.1 5.2s-5.1 0-5.1-5.2c0-5.1 0-5.1 5.1-5.1s5.1 0 5.1 5.1zm-7 .1c-.3 1.4.4 1.8 1.8 1.9 1.4 0 1.9-.5 1.9-1.9s-.5-1.9-1.9-1.9c-1.3-.1-2 .3-1.8 1.9z"/></svg>