<svg enable-background="new 0 0 475.8 506" viewBox="0 0 475.8 506" xmlns="http://www.w3.org/2000/svg"><path d="m354.2 506h-273.1c-3.2 0-6.4-1.6-8.2-4.3-2-2.7-2.4-6-1.4-9.1l13.4-40.5c2.8-8 8-14.8 14.8-19.7s15.1-7.4 23.5-7.4h8.6c-25.4-19.1-40.5-49.2-40.5-81v-93.2c-.1-30.8 14.6-59.7 39.4-77.7s56.9-23.1 86-13.5 52 32.5 61.4 61.8l37.5-37.6c1.9-2 4.5-3 7.2-3s5.3 1 7.2 3l42.9 42.9c2 1.9 3 4.5 3 7.2s-1 5.3-3 7.2l-69.2 69.6c-5.9 5.8-12.7 10.5-20.2 13.9v26.9l77.7 7.6c17.6 1.7 33.9 9.9 45.7 23s18.4 30.2 18.3 47.8v5.2c0 18.7-7.5 36.8-20.7 50.1-13.4 13.2-31.4 20.7-50.3 20.8zm-259.1-20.2h259.2c13.4 0 26.3-5.3 35.7-14.8 9.5-9.5 14.8-22.3 14.8-35.7v-5.6c.1-12.6-4.6-24.7-13.1-34.1-8.4-9.4-20.1-15.3-32.6-16.4l-87-8.4c-5.2-.6-9.1-4.9-9.1-10.2v-42.7c0-4.4 2.8-8.2 6.8-9.6 7.1-2.4 13.5-6.5 18.7-11.8l62.6-62.4-28.7-28.7-43.1 43.3c-2.7 2.8-6.7 3.7-10.4 2.4s-6.2-4.4-6.8-8.2c-2.2-17.6-10.3-33.9-23-46.1-12.7-12.3-29.4-19.9-47-21.4-20.9-1.4-41.5 5.9-56.9 20.2s-24.1 34.3-24.1 55.4v93c0 21.5 8.6 42.1 23.7 57.2s35.7 23.7 57.2 23.7c5.6 0 10.2 4.5 10.2 10.2 0 5.6-4.5 10.2-10.2 10.2h-69.3c-4.3 0-8.3 1.4-11.8 3.8s-6 5.9-7.4 9.9z"/><path d="m197.4 172.2c-17.5 0-34.1-6.9-46.5-19.3s-19.3-29-19.3-46.5v-40.5c0-23.5 12.5-45.2 32.8-57 20.4-11.9 45.4-11.9 65.8 0s32.8 33.4 32.8 57v40.5c0 17.5-6.9 34.1-19.3 46.5-12.2 12.2-28.8 19-46.3 19.3zm0-151.9c-12 0-23.6 4.9-32.2 13.4-8.6 8.6-13.3 20.1-13.4 32.2v40.5c0 16.3 8.7 31.3 22.8 39.4s31.5 8.1 45.6 0 22.8-23.1 22.8-39.4v-40.5c0-12-4.9-23.6-13.4-32.2-8.6-8.5-20.1-13.4-32.2-13.4z"/><path d="m334 445.2h-141.7c-5.6 0-10.2-4.5-10.2-10.2 0-5.6 4.5-10.2 10.2-10.2h141.7c5.6 0 10.2 4.5 10.2 10.2s-4.5 10.2-10.2 10.2z"/><path d="m121.6 506c-1 .1-2.2.1-3.2 0-2.5-.8-4.6-2.7-5.9-5.1-1.2-2.4-1.4-5.2-.5-7.7l20.2-60.7c.8-2.5 2.7-4.6 5.1-5.9 2.4-1.2 5.2-1.4 7.7-.6 5.3 1.7 8.2 7.5 6.4 12.8l-20.2 60.7c-1.7 4-5.5 6.5-9.6 6.5z"/><path d="m253 331.4c-18.9.2-37.1-7.1-50.7-20.2l-59.4-59.4c-3.9-3.9-3.9-10.4 0-14.3s10.4-3.9 14.3 0l59.4 59.4c6.7 6.8 15.3 11.6 24.5 13.6 9.4 2.1 19.1 1.5 28.1-1.7 5.1-1.3 10.3 1.5 12 6.5s-.6 10.4-5.4 12.6c-7 2.4-14.9 3.5-22.8 3.5z"/><path d="m253 270.8c-2.7 0-5.3-1-7.2-2.9l-59.4-59.4c-3.9-3.9-3.9-10.4 0-14.3s10.4-3.9 14.3 0l52.3 52.4 12.1-12.3c3.9-3.9 10.4-3.9 14.3 0s3.9 10.4 0 14.3l-19.3 19.3c-1.7 1.9-4.4 2.9-7.1 2.9z"/><path d="m358.8 238.4c-2.7 0-5.3-1-7.2-2.9l-31-31.1c-2-1.9-3-4.5-3-7.2s1-5.3 3-7.2l50.7-50.7c4.9-4.6 11.2-7.2 17.9-7.2s13.1 2.5 17.9 7.2c7.3 7.3 11.3 17.1 11.3 27.4s-4 20.1-11.3 27.4l-41.1 41.1c-2 2.2-4.6 3.2-7.2 3.2zm-16.8-41.1 16.7 16.7 33.9-34c3.5-3.5 5.4-8.1 5.4-13.1s-2-9.6-5.4-13.1c-.9-.9-2.2-1.5-3.6-1.5s-2.7.6-3.6 1.5z"/><path d="m465.6 506h-455.4c-5.6 0-10.2-4.5-10.2-10.2 0-5.6 4.5-10.2 10.2-10.2h455.4c5.6 0 10.2 4.5 10.2 10.2-.1 5.7-4.6 10.2-10.2 10.2z"/></svg>