<svg enable-background="new 0 0 512 512" viewBox="0 0 512 512" xmlns="http://www.w3.org/2000/svg"><path d="m427.7 72.8h-178.1c-15.6 0-28.3 12.7-28.3 28.3v100.6l-25.6 14.9c-28.4-15.1-57.5-16.1-80.6-2.6-56.8 33.2-76 106.4-42.8 163.2 22.2 37.9 62.2 59.1 103.2 59.1 16.8 0 33.8-3.6 49.8-11 4.9 8.4 13.9 14 24.3 14h178.2c15.6 0 28.3-12.7 28.3-28.3v-309.9c-.1-15.6-12.8-28.3-28.4-28.3zm-201.7 331c-47.8 27.9-109.5 11.8-137.4-36.1-28-47.8-11.8-109.4 36.1-137.4 14.5-8.4 32.5-9 51.1-2l-24.4 14.3c-4.5 2.6-6 8.4-3.4 12.9 1.7 3 4.9 4.7 8.1 4.7 1.6 0 3.2-.4 4.8-1.3l135.5-79.2c2.9-1.7 6.3-2.2 9.7-1.3 3.3.8 6 2.9 7.8 5.9 3.5 6 1.5 13.8-4.5 17.3l-73.8 43.1-61.7 36.1c-4.5 2.6-6 8.4-3.4 12.9 1.7 3 4.9 4.7 8.1 4.7 1.6 0 3.2-.4 4.8-1.3l61.8-36.1c2.9-1.7 6.3-2.2 9.6-1.3 3.3.8 6 2.9 7.8 5.9 3.5 6 1.5 13.8-4.5 17.3 0 0-.1 0-.1.1l-62 36c-4.5 2.6-6 8.4-3.4 12.9 1.7 3 4.9 4.7 8.1 4.7 1.6 0 3.2-.5 4.8-1.3l52.7-30.9c2.9-1.7 6.3-2.2 9.7-1.4 3.2.8 6 2.9 7.7 5.9 1.7 2.9 2.2 6.3 1.4 9.7s-2.9 6-5.9 7.8l-18 10.3h-.1l-34.8 20.4c-4.5 2.6-6 8.4-3.4 12.9 1.7 3 4.9 4.7 8.1 4.7 1.6 0 3.2-.4 4.8-1.3l34.8-20.4c6-3.5 13.8-1.4 17.3 4.6 1.7 2.9 2.2 6.3 1.3 9.7-.8 3.2-2.9 6-5.9 7.8zm211.2 7.1c0 5.2-4.2 9.5-9.5 9.5h-178.2c-3.2 0-6.1-1.7-7.8-4.1l43.1-25.2c.2-.2.4-.3.5-.4 6-3.7 10.5-9.3 13-15.9h138.9zm0-54.9h-137.7c-.8-2.8-1.8-5.5-3.3-8.1-2.5-4.2-5.8-7.7-9.7-10.3 4.1-3.9 7.1-8.9 8.6-14.6 2.1-8.1 1-16.7-3.2-23.9-3.1-5.4-7.6-9.5-13-12.2 5.2-9.4 5.5-21.3-.3-31.2-2.3-3.8-5.3-7-8.7-9.6l48.9-28.6c14.9-8.7 20-28.1 11.2-43.1-4.2-7.2-11.1-12.4-19.2-14.6-8.1-2.1-16.6-1-23.8 3.2 0 0 0 0-.1 0l-46.8 27.3v-43.1h196.9zm0-227.5h-197.1v-27.5c0-5.2 4.2-9.5 9.5-9.5h178.2c5.2 0 9.5 4.2 9.5 9.5zm-98.5 282.9c7.6 0 13.7-6.2 13.7-13.7 0-7.6-6.2-13.7-13.7-13.7-7.6 0-13.7 6.2-13.7 13.7-.1 7.5 6.1 13.7 13.7 13.7zm14.3-310.8h-28.7c-5.2 0-9.4 4.2-9.4 9.4s4.2 9.4 9.4 9.4h28.7c5.2 0 9.4-4.2 9.4-9.4s-4.2-9.4-9.4-9.4z"/></svg>