<svg enable-background="new 0 0 512 512" viewBox="0 0 512 512" xmlns="http://www.w3.org/2000/svg"><path d="m369.9 60c0-2.2-1.8-4.1-4.1-4.1s-4.1 1.8-4.1 4.1v17.5h-16.1v-17.5c0-2.2-1.8-4.1-4.1-4.1s-4.1 1.8-4.1 4.1v17.5h-16.1v-17.5c0-2.2-1.8-4.1-4.1-4.1s-4.1 1.8-4.1 4.1v17.5h-16.1v-17.5c0-2.2-1.8-4.1-4.1-4.1s-4.1 1.8-4.1 4.1v17.5h-16.1v-17.5c0-2.2-1.8-4.1-4.1-4.1s-4.1 1.8-4.1 4.1v17.5h-16.1v-17.5c0-2.2-1.8-4.1-4.1-4.1-2.2 0-4.1 1.8-4.1 4.1v17.5h-16.1v-17.5c0-2.2-1.8-4.1-4.1-4.1s-4.1 1.8-4.1 4.1v17.5h-16.1v-17.5c0-2.2-1.8-4.1-4.1-4.1-2.2 0-4.1 1.8-4.1 4.1v17.5h-16.1v-17.5c0-2.2-1.8-4.1-4.1-4.1s-4.1 1.8-4.1 4.1v17.5h-16.1v-17.5c0-2.2-1.8-4.1-4.1-4.1s-4.1 1.9-4.1 4.1v369.4c-.1.3-.1.5-.1.8v21.6c0 2.3 1.8 4.1 4.1 4.1s4.1-1.8 4.1-4.1v-17.5h16.1v17.5c0 2.3 1.8 4.1 4.1 4.1s4.1-1.8 4.1-4.1v-17.5h16.1v17.5c0 2.3 1.8 4.1 4.1 4.1 2.2 0 4.1-1.8 4.1-4.1v-17.5h16.1v17.5c0 2.3 1.8 4.1 4.1 4.1s4.1-1.8 4.1-4.1v-17.5h16.1v17.5c0 2.3 1.8 4.1 4.1 4.1 2.2 0 4.1-1.8 4.1-4.1v-17.5h16.1v17.5c0 2.3 1.8 4.1 4.1 4.1s4.1-1.8 4.1-4.1v-17.5h16.1v17.5c0 2.3 1.8 4.1 4.1 4.1s4.1-1.8 4.1-4.1v-17.5h16.1v17.5c0 2.3 1.8 4.1 4.1 4.1s4.1-1.8 4.1-4.1v-17.5h16.1v17.5c0 2.3 1.8 4.1 4.1 4.1s4.1-1.8 4.1-4.1v-17.5h16.1v17.5c0 2.3 1.8 4.1 4.1 4.1 2.2 0 4.1-1.8 4.1-4.1v-369.3c.1-.3.1-.5.1-.8zm-219.2 25.8h210.8v340.4h-210.8z"/><path d="m356.1 417.8v-321.6c0-2.2-1.8-4.1-4.1-4.1h-191.8c-2.2 0-4.1 1.8-4.1 4.1v321.7c0 2.3 1.8 4.1 4.1 4.1h191.8c2.3 0 4.1-1.8 4.1-4.2zm-8.2-4h-183.6v-313.5h183.5v313.5z"/><path d="m176.8 404.4h158.8c2.3 0 4.1-1.8 4.1-4.1v-196.9c0-13.7-14.5-39.3-34.7-42-2.1-9.9-11.2-38.9-47.5-51.6-.2-.1-.3-.1-.5-.1-.3-.1-.5-.1-.9-.1-.3 0-.5.1-.9.1-.2.1-.3 0-.5.1-36.3 12.7-45.4 41.7-47.5 51.6-20.2 2.7-34.7 28.3-34.7 42v196.9c.1 2.3 1.9 4.1 4.3 4.1zm34-235.1c.1 0 .2-.1.3-.1.4-.1.8-.1 1.2-.3.2-.1.4-.3.6-.3.3-.1.5-.3.7-.5.2-.1.3-.3.5-.5s.3-.4.5-.7c.1-.2.1-.5.2-.7s.2-.4.2-.6c.1-1.4 4.4-33.9 41.3-47.5 36.8 13.7 41.1 46.2 41.3 47.5 0 .3.1.5.2.7s.1.5.2.7c.1.3.3.5.5.8.1.1.2.3.4.5.3.2.5.4.8.5.1.1.3.2.5.3.5.2 1 .3 1.5.3 17.3 0 29.9 23.9 29.9 34v192.8h-150.7v-192.7c0-10.3 12.6-34.2 29.9-34.2z"/><path clip-rule="evenodd" d="m233.8 168c0-4.1 3.3-7.4 7.4-7.4h29.7c4.1 0 7.4 3.3 7.4 7.4v54.5c0 4.1-3.3 7.4-7.4 7.4h-29.7c-4.1 0-7.4-3.3-7.4-7.4zm5 52.1v2.5c0 1.4 1.1 2.5 2.5 2.5h29.7c1.4 0 2.5-1.1 2.5-2.5v-2.5zm34.6-5h-34.7v-47.1c0-1.4 1.1-2.5 2.5-2.5h3.4l1.8 3.6c.4.9 1.3 1.4 2.2 1.4h14.9c.9 0 1.8-.5 2.2-1.4l1.8-3.6h3.4c1.4 0 2.5 1.1 2.5 2.5z" fill-rule="evenodd"/></svg>