<svg enable-background="new 0 0 643.7 732.6" viewBox="0 0 643.7 732.6" xmlns="http://www.w3.org/2000/svg"><path d="m425.9 93.1c0-4.3 1.7-8.4 4.7-11.4s7.1-4.7 11.4-4.7 8.4 1.7 11.4 4.7 4.7 7.1 4.7 11.4c0 3.4-1.1 6.7-3.1 9.5s-4.8 4.8-8 5.8c-3.2 1.1-6.7 1.1-10 0-3.2-1.1-6.1-3.1-8-5.8-2-2.8-3.1-6.1-3.1-9.5" fill="none"/><path d="m432.4 93.1c0-2 .6-4 1.8-5.7 1.2-1.6 2.9-2.9 4.8-3.5s4-.6 5.9 0 3.6 1.9 4.8 3.5 1.8 3.6 1.8 5.7c0 2.5-1 5-2.8 6.8s-4.2 2.8-6.8 2.8c-2.5 0-5-1-6.8-2.8-1.7-1.8-2.7-4.3-2.7-6.8" fill="#0b7e6a"/><path d="m433.9 92.2c0-1 .4-2 1.1-2.7s1.7-1.1 2.7-1.1 2 .4 2.7 1.1 1.1 1.7 1.1 2.7c0 .8-.2 1.6-.7 2.2-.5.7-1.1 1.1-1.9 1.4-.8.2-1.6.2-2.4 0s-1.4-.7-1.9-1.4c-.5-.6-.7-1.4-.7-2.2" fill="none"/><path d="m447.9 96.6c0-1.5-1.2-2.6-2.6-2.6-1.5 0-2.6 1.2-2.6 2.6 0 1.5 1.2 2.6 2.6 2.6s2.6-1.2 2.6-2.6z" fill="none"/><path d="m209.8 94.7c0-1.8.5-3.5 1.6-4.9 1-1.4 2.5-2.5 4.2-3s3.5-.5 5.1 0c1.7.5 3.1 1.6 4.2 3 1 1.4 1.6 3.1 1.6 4.9s-.5 3.5-1.6 4.9c-1 1.4-2.5 2.5-4.2 3s-3.5.5-5.1 0c-1.7-.5-3.1-1.6-4.2-3s-1.6-3.1-1.6-4.9" fill="#0f8372"/><path d="m210.4 96.7c.4 1.6 1.3 3.1 2.6 4.2s2.9 1.7 4.6 1.8 3.4-.3 4.8-1.2 2.5-2.2 3.2-3.8c.6-1.6.7-3.3.3-4.9s-1.3-3.1-2.6-4.2-2.9-1.7-4.6-1.8-3.4.3-4.8 1.2-2.5 2.2-3.2 3.8c-.7 1.5-.8 3.3-.3 4.9z" fill="#0f8372"/><path d="m210.7 96.6c.4 1.6 1.3 3 2.5 4s2.8 1.7 4.4 1.8 3.2-.3 4.6-1.2 2.4-2.1 3-3.6.7-3.2.3-4.7c-.4-1.6-1.3-3-2.5-4s-2.8-1.7-4.4-1.8-3.2.3-4.6 1.2-2.4 2.1-3 3.6-.7 3.1-.3 4.7z" fill="#0f8272"/><path d="m211 96.5c.4 1.5 1.2 2.8 2.4 3.8s2.7 1.6 4.2 1.7 3.1-.3 4.4-1.1 2.3-2 2.9-3.5c.6-1.4.7-3 .3-4.5s-1.2-2.8-2.4-3.8-2.7-1.6-4.2-1.7-3.1.3-4.4 1.1-2.3 2-2.9 3.5c-.6 1.4-.7 3-.3 4.5z" fill="#108272"/><path d="m211.4 96.4c.3 1.4 1.1 2.7 2.3 3.7 1.1.9 2.5 1.5 4 1.6s2.9-.3 4.2-1.1c1.2-.8 2.2-1.9 2.7-3.3s.6-2.9.2-4.3c-.3-1.4-1.1-2.7-2.3-3.7-1.1-.9-2.5-1.5-4-1.6s-2.9.3-4.2 1.1c-1.2.8-2.2 1.9-2.7 3.3s-.6 2.9-.2 4.3z" fill="#108172"/><path d="m224.7 94.7c0-3.6-2.9-6.5-6.5-6.5s-6.5 2.9-6.5 6.5 2.9 6.5 6.5 6.5 6.5-2.9 6.5-6.5z" fill="#108172"/><path d="m224.3 94.7c0-3.4-2.8-6.2-6.2-6.2s-6.2 2.8-6.2 6.2 2.8 6.2 6.2 6.2 6.2-2.7 6.2-6.2z" fill="#108072"/><path d="m224 94.7c0-3.2-2.6-5.8-5.8-5.8s-5.8 2.6-5.8 5.8 2.6 5.8 5.8 5.8 5.8-2.5 5.8-5.8z" fill="#108072"/><path d="m223.6 94.7c0-3-2.4-5.5-5.5-5.5s-5.5 2.4-5.5 5.5c0 3 2.4 5.5 5.5 5.5s5.5-2.4 5.5-5.5z" fill="#107f72"/><path d="m223.2 94.7c0-2.8-2.3-5.1-5.1-5.1s-5.1 2.3-5.1 5.1 2.3 5.1 5.1 5.1 5.1-2.2 5.1-5.1z" fill="#117f72"/><path d="m222.9 94.7c0-2.6-2.1-4.7-4.7-4.7s-4.8 2.1-4.8 4.7 2.1 4.8 4.8 4.8 4.7-2.1 4.7-4.8z" fill="#117e72"/><path d="m222.5 94.7c0-2.4-2-4.4-4.4-4.4s-4.4 2-4.4 4.4 2 4.4 4.4 4.4 4.4-1.9 4.4-4.4z" fill="#117e72"/><path d="m180.7 94.7c0-2.8 1.1-5.5 3.1-7.5s4.7-3.1 7.5-3.1 5.5 1.1 7.5 3.1 3.1 4.7 3.1 7.5-1.1 5.5-3.1 7.5-4.7 3.1-7.5 3.1-5.5-1.1-7.5-3.1-3.1-4.7-3.1-7.5" fill="#0f8372"/><path d="m181.3 94.7c0-2.7 1.1-5.2 2.9-7.1s4.4-2.9 7.1-2.9 5.2 1.1 7.1 2.9 2.9 4.4 2.9 7.1-1.1 5.2-2.9 7.1-4.4 2.9-7.1 2.9-5.2-1.1-7.1-2.9-2.9-4.4-2.9-7.1" fill="#0f8372"/><path d="m187.8 103.5c1.8.8 3.9.9 5.8.4s3.7-1.5 4.9-3.1c1.3-1.5 2.1-3.4 2.2-5.4s-.3-4-1.4-5.7-2.6-3-4.5-3.7c-1.8-.8-3.9-.9-5.8-.4s-3.7 1.5-4.9 3.1c-1.3 1.5-2.1 3.4-2.2 5.4s.3 4 1.4 5.6c1 1.7 2.6 3 4.5 3.8z" fill="#0f8272"/><path d="m187.9 103c1.7.7 3.7.9 5.5.5s3.5-1.4 4.7-2.9c1.2-1.4 2-3.2 2.1-5.1s-.3-3.8-1.3-5.4-2.5-2.8-4.3-3.5c-1.7-.7-3.7-.9-5.5-.5s-3.5 1.4-4.7 2.9c-1.2 1.4-2 3.2-2.1 5.1s.3 3.8 1.3 5.4c1.1 1.6 2.6 2.8 4.3 3.5z" fill="#108272"/><path d="m188.1 102.5c1.6.7 3.4.8 5.1.4s3.3-1.4 4.4-2.7 1.8-3 2-4.8c.1-1.8-.3-3.5-1.2-5s-2.3-2.7-3.9-3.3c-1.6-.7-3.4-.8-5.1-.4s-3.3 1.4-4.4 2.7-1.8 3-2 4.8c-.1 1.8.3 3.5 1.2 5s2.3 2.6 3.9 3.3z" fill="#108172"/><path d="m188.3 102c1.5.6 3.2.8 4.8.4s3-1.3 4.1-2.5c1.1-1.3 1.7-2.8 1.8-4.5.1-1.6-.3-3.3-1.1-4.7-.9-1.4-2.2-2.5-3.7-3.1s-3.2-.8-4.8-.4-3 1.3-4.1 2.5c-1.1 1.3-1.7 2.8-1.8 4.5-.1 1.6.3 3.3 1.1 4.7.9 1.3 2.2 2.4 3.7 3.1z" fill="#108172"/><path d="m198.6 94.7c0-4-3.2-7.2-7.2-7.2s-7.2 3.2-7.2 7.2 3.2 7.2 7.2 7.2 7.2-3.2 7.2-7.2z" fill="#108072"/><path d="m198 94.7c0-3.7-3-6.6-6.6-6.6s-6.6 3-6.6 6.6c0 3.7 3 6.6 6.6 6.6s6.6-2.9 6.6-6.6z" fill="#108072"/><path d="m197.4 94.7c0-3.4-2.7-6.1-6.1-6.1s-6.1 2.7-6.1 6.1 2.7 6.1 6.1 6.1 6.1-2.7 6.1-6.1z" fill="#107f72"/><path d="m196.9 94.7c0-3-2.5-5.5-5.5-5.5s-5.5 2.5-5.5 5.5 2.5 5.5 5.5 5.5 5.5-2.4 5.5-5.5z" fill="#117f72"/><path d="m196.3 94.7c0-2.7-2.2-5-5-5s-5 2.2-5 5c0 2.7 2.2 5 5 5s5-2.2 5-5z" fill="#117e72"/><path d="m195.7 94.7c0-2.4-2-4.4-4.4-4.4s-4.4 2-4.4 4.4 2 4.4 4.4 4.4 4.4-1.9 4.4-4.4z" fill="#117e72"/><path d="m155.6 86c0-3-2.4-5.4-5.4-5.4s-5.4 2.4-5.4 5.4 2.4 5.4 5.4 5.4 5.4-2.5 5.4-5.4z" fill="none"/><path d="m501.6 91.1c0-1 .4-2 1.1-2.7s1.7-1.1 2.7-1.1 2 .4 2.7 1.1 1.1 1.7 1.1 2.7-.4 2-1.1 2.7-1.7 1.1-2.7 1.1-2-.4-2.7-1.1-1.1-1.7-1.1-2.7" fill="none"/><path d="m34.6 731.2v-598.3c0-31.7 22.4-56.9 16.9-55.5-25.4 6.6-38.2 41.7-38.2 62.9v592.3c7.1-1.2 14.2-1.6 21.3-1.4z" fill="#158974"/><path d="m607.8 721.3h.6c6.9-1.2 13.8-1.4 20.7-.7v-580.3c0-21.3-12.9-56.4-38.2-62.9-5.4-1.4 16.9 23.9 16.9 55.5z" fill="#158974" fill-opacity=".95"/><path d="m360.5 98.6c0 .8-.7 1.5-1.5 1.5h-74.2c-.8 0-1.5-.7-1.5-1.5v-11.4c0-.8.7-1.5 1.5-1.5h74.2c.8 0 1.5.7 1.5 1.5z" fill="none"/><g fill="#158974"><path d="m98.4 53.5c-18.9 0-40.9 9.9-36 4.1 3.9-4.6 23.3-7.9 31.3-9 2-.3 5.5-.4 7.5-.4h441.1c2 0 5.5.1 7.5.4 8 1.1 27.4 4.4 31.3 9 4.9 5.8-17.1-4.1-36-4.1z"/><path d="m10.5 455.9c0 2.4-2 4.5-4.5 4.5h-1.5c-2.4 0-4.5-2-4.5-4.5v-173.2c0-2.4 2-4.5 4.5-4.5h1.5c2.4 0 4.5 2 4.5 4.5z"/><path d="m643.7 541.7c0 1.7-1.4 3.1-3.1 3.1h-4.2c-1.7 0-3.1-1.4-3.1-3.1v-80.9c0-1.7 1.4-3.1 3.1-3.1h4.2c1.7 0 3.1 1.4 3.1 3.1z"/><path d="m9.5 535c0-2.4-1.9-4.5-4.2-4.5s-4.2 2-4.2 4.5v81.3c0 2.4 1.9 4.5 4.2 4.5s4.2-2 4.2-4.5z"/></g><path d="m557.4 163.9h-472.7c-44.8 0-81.2-36.3-81.2-81.2 0-44.8 36.3-81.2 81.2-81.2h472.7c44.8 0 81.2 36.3 81.2 81.2-.1 44.8-36.4 81.2-81.2 81.2z" fill="none" stroke="#158974" stroke-width="3"/><path d="m315.5 163.9v114.4" stroke="#158974" stroke-width="3"/><g fill="#007460"><path d="m112.6 299.8c2.3 0 4.2.3 5.9.8s3 1.3 4.1 2.2c1.1 1 1.9 2.1 2.4 3.4s.8 2.7.8 4.3-.3 3.1-.8 4.5-1.3 2.5-2.4 3.5-2.5 1.7-4.1 2.3c-1.7.5-3.6.8-5.8.8h-4.4v11.4h-6.9v-33.3h11.2zm0 16.5c2.2 0 3.7-.5 4.7-1.6 1-1 1.5-2.5 1.5-4.3 0-.8-.1-1.6-.4-2.3s-.6-1.3-1.1-1.7c-.5-.5-1.2-.9-1.9-1.1-.8-.3-1.7-.4-2.8-.4h-4.4v11.3z"/><path d="m156.6 333h-6.2c-1.2 0-2-.4-2.5-1.3l-6.3-10.2c-.3-.4-.5-.7-.9-.9-.3-.2-.8-.3-1.4-.3h-2.3v12.7h-6.9v-33.3h10.5c2.3 0 4.3.2 6 .7s3 1.2 4.1 2c1.1.9 1.8 1.9 2.3 3.1s.7 2.5.7 3.9c0 1.1-.2 2.1-.5 3.1s-.8 1.9-1.4 2.7-1.3 1.5-2.2 2.2c-.9.6-1.9 1.1-3 1.5.4.2.9.5 1.2.9.4.3.7.8 1 1.2zm-16.1-17.5c1.1 0 2.1-.1 2.9-.4s1.5-.7 2-1.2.9-1.1 1.1-1.8.4-1.4.4-2.2c0-1.6-.5-2.8-1.6-3.7s-2.6-1.3-4.8-1.3h-3.6v10.5h3.6z"/><path d="m191.5 316.4c0 2.4-.4 4.7-1.2 6.8s-2 3.9-3.5 5.4-3.3 2.7-5.4 3.6-4.4 1.3-7 1.3-4.9-.4-7-1.3-3.9-2.1-5.4-3.6-2.7-3.3-3.5-5.4-1.2-4.3-1.2-6.8c0-2.4.4-4.7 1.2-6.8s2-3.9 3.5-5.4 3.3-2.7 5.4-3.6 4.4-1.3 7-1.3 4.9.4 7 1.3 3.9 2.1 5.4 3.6 2.6 3.3 3.5 5.4c.8 2.1 1.2 4.4 1.2 6.8zm-7 0c0-1.7-.2-3.3-.7-4.7s-1.1-2.6-2-3.5c-.9-1-1.9-1.7-3.1-2.2s-2.6-.8-4.2-.8-3 .3-4.2.8-2.3 1.3-3.2 2.2c-.9 1-1.5 2.1-2 3.5s-.7 2.9-.7 4.7.2 3.3.7 4.7 1.1 2.6 2 3.5c.9 1 1.9 1.7 3.2 2.2 1.2.5 2.6.8 4.2.8s3-.3 4.2-.8 2.3-1.2 3.1-2.2c.9-1 1.5-2.1 2-3.5s.7-2.9.7-4.7z"/><path d="m223.1 333h-6.9c-.5 0-.8-.1-1.1-.3s-.5-.5-.7-.8l-7.2-12.2c-.1.2-.1.3-.2.5s-.1.3-.2.4l-6.8 11.3c-.2.3-.4.6-.7.8s-.6.4-1 .4h-6.4l10.9-17.1-10.5-16.1h6.9c.5 0 .8.1 1 .2s.4.3.6.6l7.2 11.8.3-.6s.2-.4.3-.6l6.4-10.5c.2-.3.4-.5.6-.7.2-.1.5-.2.8-.2h6.6l-10.7 15.7z"/><path d="m233.5 333h-6.9v-33.3h6.9z"/><path d="m277.2 299.8v33.3h-6.1v-20.5c0-.4 0-.9 0-1.4s.1-1 .1-1.5l-9.5 18.1c-.5 1-1.3 1.5-2.4 1.5h-1c-.5 0-1-.1-1.4-.4s-.7-.6-1-1.1l-9.6-18.1c0 .5.1 1.1.1 1.5v1.4 20.4h-6.1v-33.3h5.2.8c.2 0 .4.1.6.1.2.1.3.2.5.3.1.1.3.3.4.6l9.3 17.8c.3.5.6 1.1.8 1.7.3.6.5 1.1.7 1.7.2-.6.5-1.2.7-1.8.3-.6.5-1.1.8-1.7l9.2-17.7c.1-.3.3-.5.4-.6.2-.1.3-.3.5-.3.2-.1.4-.1.6-.1h.8z"/><path d="m291 333h-6.9v-33.3h6.9z"/><path d="m321.6 305.3h-9.7v27.7h-7v-27.7h-9.7v-5.6h26.4z"/><path d="m340.8 320.2v12.8h-6.9v-12.8l-12.1-20.5h6.1c.6 0 1.1.1 1.4.4s.6.6.9 1.1l5.5 10.5c.4.7.7 1.4 1 2s.6 1.2.8 1.8c.2-.6.5-1.2.7-1.8.3-.6.6-1.3 1-2l5.4-10.5c.2-.4.5-.7.8-1 .4-.3.8-.5 1.4-.5h6.1z"/><path d="m382.9 306.1c-.2.4-.4.6-.7.8-.2.2-.5.2-.9.2-.3 0-.7-.1-1.1-.4-.4-.2-.8-.5-1.4-.8-.5-.3-1.1-.5-1.8-.8-.7-.2-1.5-.4-2.4-.4-1.6 0-2.8.4-3.6 1.1s-1.2 1.6-1.2 2.8c0 .7.2 1.3.7 1.8.4.5 1 .9 1.7 1.2.7.4 1.5.7 2.4.9.9.3 1.8.6 2.8.9.9.3 1.9.7 2.8 1.2.9.4 1.7 1 2.4 1.7s1.3 1.5 1.7 2.5.7 2.2.7 3.5c0 1.5-.3 2.9-.8 4.3-.5 1.3-1.3 2.5-2.3 3.5s-2.2 1.8-3.7 2.3c-1.5.6-3.1.8-5 .8-1.1 0-2.1-.1-3.2-.3-1-.2-2.1-.5-3-.9-1-.4-1.9-.8-2.7-1.4-.9-.5-1.6-1.1-2.2-1.8l2-3.3c.2-.2.4-.4.7-.6s.6-.2.9-.2c.4 0 .8.2 1.3.5s1 .6 1.6 1 1.3.7 2.1 1 1.7.5 2.8.5c1.6 0 2.8-.4 3.7-1.1s1.3-1.8 1.3-3.3c0-.8-.2-1.5-.7-2-.4-.5-1-1-1.7-1.3-.7-.4-1.5-.7-2.4-.9-.9-.3-1.8-.5-2.8-.8-.9-.3-1.9-.7-2.8-1.1s-1.7-1-2.4-1.7-1.3-1.6-1.7-2.6-.7-2.3-.7-3.9c0-1.2.2-2.4.7-3.6s1.2-2.2 2.2-3.1c.9-.9 2.1-1.6 3.5-2.2s3-.8 4.8-.8c2 0 3.9.3 5.6.9s3.1 1.5 4.3 2.6z"/><path d="m397.1 305.2v8.6h11.1v5.2h-11.1v8.7h14.3v5.4h-21.2v-33.3h21.2v5.4z"/><path d="m445 299.8v33.3h-3.6c-.5 0-1-.1-1.4-.3s-.7-.5-1.1-.9l-16.6-21.1c0 .5.1 1.1.1 1.6s0 1 0 1.4v19.2h-6.1v-33.3h3.6.7c.2 0 .4.1.6.2s.3.2.5.3.3.3.5.6l16.7 21.2c-.1-.6-.1-1.1-.1-1.7 0-.5 0-1.1 0-1.5v-19z"/><path d="m470 306.1c-.2.4-.4.6-.7.8-.2.2-.5.2-.9.2-.3 0-.7-.1-1.1-.4-.4-.2-.8-.5-1.4-.8-.5-.3-1.1-.5-1.8-.8-.7-.2-1.5-.4-2.4-.4-1.6 0-2.8.4-3.6 1.1s-1.2 1.6-1.2 2.8c0 .7.2 1.3.7 1.8.4.5 1 .9 1.7 1.2.7.4 1.5.7 2.4.9.9.3 1.8.6 2.8.9.9.3 1.9.7 2.8 1.2.9.4 1.7 1 2.4 1.7s1.3 1.5 1.7 2.5.7 2.2.7 3.5c0 1.5-.3 2.9-.8 4.3-.5 1.3-1.3 2.5-2.3 3.5s-2.2 1.8-3.7 2.3-3.1.8-5 .8c-1.1 0-2.1-.1-3.2-.3-1-.2-2.1-.5-3-.9-1-.4-1.9-.8-2.7-1.4-.9-.5-1.6-1.1-2.2-1.8l2-3.3c.2-.2.4-.4.7-.6s.6-.2.9-.2c.4 0 .8.2 1.3.5s1 .6 1.6 1 1.3.7 2.1 1 1.7.5 2.8.5c1.6 0 2.8-.4 3.7-1.1s1.3-1.8 1.3-3.3c0-.8-.2-1.5-.7-2-.4-.5-1-1-1.7-1.3-.7-.4-1.5-.7-2.4-.9-.9-.3-1.8-.5-2.8-.8-.9-.3-1.9-.7-2.8-1.1s-1.7-1-2.4-1.7-1.3-1.6-1.7-2.6-.7-2.3-.7-3.9c0-1.2.2-2.4.7-3.6s1.2-2.2 2.2-3.1c.9-.9 2.1-1.6 3.5-2.2s3-.8 4.8-.8c2 0 3.9.3 5.6.9s3.1 1.5 4.3 2.6z"/><path d="m509.4 316.4c0 2.4-.4 4.7-1.2 6.8s-2 3.9-3.5 5.4-3.3 2.7-5.4 3.6-4.4 1.3-7 1.3-4.9-.4-7-1.3-3.9-2.1-5.4-3.6-2.7-3.3-3.5-5.4-1.2-4.3-1.2-6.8c0-2.4.4-4.7 1.2-6.8s2-3.9 3.5-5.4 3.3-2.7 5.4-3.6 4.4-1.3 7-1.3 4.9.4 7 1.3 3.9 2.1 5.4 3.6 2.6 3.3 3.5 5.4c.8 2.1 1.2 4.4 1.2 6.8zm-7 0c0-1.7-.2-3.3-.7-4.7s-1.1-2.6-2-3.5c-.9-1-1.9-1.7-3.1-2.2s-2.6-.8-4.2-.8-3 .3-4.2.8-2.3 1.3-3.2 2.2c-.9 1-1.5 2.1-2 3.5s-.7 2.9-.7 4.7.2 3.3.7 4.7 1.1 2.6 2 3.5c.9 1 1.9 1.7 3.2 2.2 1.2.5 2.6.8 4.2.8s3-.3 4.2-.8 2.3-1.2 3.1-2.2c.9-1 1.5-2.1 2-3.5s.7-2.9.7-4.7z"/><path d="m541 333h-6.2c-1.2 0-2-.4-2.5-1.3l-6.3-10.2c-.3-.4-.5-.7-.9-.9-.3-.2-.8-.3-1.4-.3h-2.3v12.7h-6.9v-33.3h10.4c2.3 0 4.3.2 6 .7s3 1.2 4.1 2c1.1.9 1.8 1.9 2.3 3.1s.7 2.5.7 3.9c0 1.1-.2 2.1-.5 3.1s-.8 1.9-1.4 2.7-1.3 1.5-2.2 2.2c-.9.6-1.9 1.1-3 1.5.4.2.9.5 1.2.9.4.3.7.8 1 1.2zm-16.1-17.5c1.1 0 2.1-.1 2.9-.4s1.5-.7 2-1.2.9-1.1 1.1-1.8.4-1.4.4-2.2c0-1.6-.5-2.8-1.6-3.7s-2.6-1.3-4.8-1.3h-3.6v10.5h3.6z"/></g></svg>