<svg enable-background="new 0 0 402.5 428.6" viewBox="0 0 402.5 428.6" xmlns="http://www.w3.org/2000/svg"><g fill="#008780"><path d="m401 250.1c-10.5-5.4-20.8-11.4-31.6-16.1-17.9-7.7-36.1-14.9-54.5-21.7-19.8-7.4-39.9-14-59.9-20.9-17.2-5.9-34.3-11.7-51.5-17.5-1.3-.4-2.7-.5-4-.8-.1.2-.1.5-.2.7.6.3 1.1.7 1.7 1 7.9 2.7 15.7 5.4 23.6 8.1 19.9 6.8 39.9 13.5 59.7 20.5 19.7 6.9 39.3 14 58.8 21.4 10.8 4.2 21.3 9.3 32 13.9 2.2 1 2.8 2.2 1.9 4.7-3.7 10.8-7.2 21.7-10.8 32.5-9.9 29-19.9 58-29.7 87.1-5.2 15.3-10 30.6-15 46-.7 2.2-1.7 4.4-2.5 6.6-.7-.2-1-.3-1.3-.4-22.6-9.8-45.1-19.8-67.8-29.5-27.7-11.8-55.4-23.5-83.3-34.8-24.5-9.8-49.1-19.2-73.9-28.3-14.2-5.2-28.6-9.8-43.1-14.3-8-2.5-16.2-4.1-24.8-6.2 1.2-1.1 2.2-2 3.5-3.1 0-.4-.3-1.6 0-1.8 2-1.4 3.2-3.2 4.4-5.4 2.4-4.3 5.7-8.1 8.5-12.1 2.7-3.8 5.2-7.8 8-11.6.4-.6 1.6-1.1 2.2-.9 2.9.9 5.8 2 8.6 3.1-.6 1.2-1.1 2.2-1.6 3.3.2.1.5.3.7.4.6-.7 1.2-1.6 2-2.1.9-.6 2.1-1.2 3-1 6.1 1.4 12.2 3.1 18.3 4.6 3.1.8 6.3 1.6 9.4 2.3.6-.2 1.3-.1 1.9.4.5.4.7.5 1.1.6.1 0 .1 0 .2.1.3-.1.5-.1.8-.1.5 0 1.1.1 1.6.3s.8.5 1.1.8c.2.1.4.1.7.2.8.1 1.6.2 2.4.4 1.9.4 3.8 1 5.7 1.5 3.8 1.1 7.6 2.6 11.5 3.3 4.1.8 8.2 1.1 12.3 2.2 2.9.7 5.8.6 8.7.9 4.7-.3 9.4-.6 14 0 5.9.8 10.8-.5 16-2.5 2.6-1 5.4-1.9 8.3-3 .6 2.3 1.9 4.5 1.3 5.7s-3.2 1.6-4.9 1.8c-1.2.1-2.4-.9-3.6-1.3-1.9-.5-3.8-.8-5.7-1.2l-.2.9c.3.2.6.4 1 .5 12.7 4.8 25.5 9.6 38.2 14.4 10.7 4 21.5 7.8 32.1 12.1 17.2 6.9 34.3 14.1 51.4 21.3 2.4 1 3.3.1 4.1-1.8.9-2.3 1.7-4.7 2.6-7.1 2.1-5.5 4.2-11 6.3-16.4 5.1 1.3 5.2 1.4 3.6 5.7-3.2 8.7-6.6 17.4-9.8 26.2-.8 2.3-1.9 2.4-3.8 1.5-4-1.8-8.1-3.5-12.2-5.2-24.1-9.8-48.1-19.6-72.2-29.2-18.7-7.5-37.6-14.6-56.4-21.9-1-.4-2.2-.4-3.3-.5-.1.3-.1.6-.2.9.9.4 1.7.9 2.6 1.2 10.2 4 20.4 7.8 30.6 11.9 37.1 14.9 74.2 29.9 111.3 44.9 3.1 1.3 3.8 1.1 4.9-2.1 3.4-9.1 6.8-18.2 10.1-27.4.4-1.1.8-2.1 1.5-2.9.2-1 1.1-2 2.5-2h.4c.2-.1.5-.2.8-.3.6-.5 1.1-1.3 1.6-2 .1-.4.2-.9.5-1.2.1-.6.3-1.3.6-1.9.2-.5.5-.9.8-1.4.1-.2.2-.4.3-.6 0-.1.1-.2.1-.2.2-.6.6-1.1 1.2-1.4.1-.5.3-.9.6-1.3.2-.7.5-1.3.7-2 .3-.8.6-1.6 1-2.4 0-.5.1-1 .3-1.4h-.1c.8-1.9 1.9-3.7 2.1-5.6.2-1.3 0-2.7-.2-4.1 0-.1-.1-.1-.1-.2-.1-.1-.1-.2-.2-.3-.8-.5-1.1-1.6-.9-2.5-.1-.7.1-1.4.4-2 0-.3 0-.6.1-.9 1.7-5.1 3.5-10.3 5.6-15.3 1.1-2.6.4-3.9-2.1-4.8-6-2.3-11.9-4.8-17.9-7-24.9-9.1-49.9-18.1-74.9-26.9-1.1-.2-2.2-.5-3.2-1.2-2.7-1.6-4.1-4.2-6-6.5-1-1.2-2.1-2.4-3.3-3.5-1.2-1.2-2.1-2.4-3.1-3.7-.5-.7-1-1.5-1.5-2.2-.3-.3-.5-.6-.8-.9-.3-.1-.5-.1-.7-.3-1.4-.9-2.3-2.2-3.1-3.6-.5-1.1-.9-2.2-1.8-2.8l-.3.1c-.1-.2-.2-.4-.2-.6-.3-.4-.5-.8-.5-1.2-.7-1.5-1.3-2.9-1.8-4.5-.9-2.9-1.4-5.8-2.1-8.7-.1-.1-.2-.3-.3-.4-.5-1.3-1-2.6-1.4-3.9-.2.2-.4.4-.6.6-.5-.5-1.3-1-1.5-1.6-2.3-5.4-4.6-10.9-6.9-16.3-1.2-2.9-2.3-5.9-3.5-8.9-.7.5-.9.8-.8 1 4.1 10.1 8.3 20.1 12.5 30.2.8 2 1.9 4 2.7 6 .2.6-.2 2.2-.5 2.3-4.5.6-6.8 3.8-9.2 7.1-1 1.4-2.3 1.3-3.5-.2-3.2-3.9-6.4-7.9-9.9-11.5-4.5-4.7-9.2-9.1-13.8-13.7-.5-.5-1-1.3-1-2-.1-2.9-1.8-4.5-4.2-5.7-3.5-1.8-3.9-3.5-2.5-7.2.7-1.9 1.3-4.1 1.1-6.1-.3-3-1.2-5.9-1.9-8.8l-7.5-30c-.6-2.5-1.5-4.9-2.2-7.3-.3.1-.6.2-.9.2 0 .6-.1 1.2 0 1.7 2 8.9 4 17.7 6 26.6 1.1 5.2 1.7 10.5 3.3 15.5.9 3 .8 5.2-.8 7.6-.9 1.3-2.1 2.4-3.1 3.7-1.9 2.6-3.8 5.3-5.6 7.9.3.2.7.5 1 .7.7-.9 1.5-1.7 2.2-2.7 2.4-3.5 2.4-3.5 6.3-1.6.6.3 1.3.5 2 .7 5.1 1.5 7.2 5.8 5.7 11-.5 1.7-.3 3.6-.4 5.5h.8c.4-1.9.8-3.7 1.3-6.2 2.4 1.9 4.5 3.2 6.1 5 5.8 6 11.4 12.2 17.2 18.4.6.7 1.4 1.5 2.3 1.7.7.1 1.3.3 1.8.4.7-.4 1.4-.7 2.2-.8-.5-2.6.9-5 4.1-6.9 2.3-1.3 3.8-.4 6.2 2.4 4.8 5.8 10 11.3 14.6 17.2 1.9 2.4 3.4 5.2 4.9 7.9.5.7.9 1.4 1.3 2.2 0 .1.1.2.1.3v.1s0 0 0-.1c.5 1.2.7 2.3.4 3.5-.1.3-.2.7-.4.9.2.5.3 1.1.3 1.8v9.2c1 0 1.7-.6 1.8-2.1 2.2 3.7 1.1 6.3-2.2 8.5-1 .7-1.4 2.1-2 3.2 2.8-1.6 5.5-3.3 8.3-4.9 2.3-1.3 3.4-.8 4.1 1.7.2.7.6 1.5.9 2.2.7 1.6.2 3.2-1.5 3.1-2.5-.1-5.1 5-7.4-.2-.4-.9-1-1.8-1.5-2.7-.3.2-.7.3-1 .5.2.8.6 1.7.5 2.4-.1.9-.5 2.1-1.1 2.4-1.9.9-3.9 1.5-5.7 2.2 1.4-2.1 2.9-4.4 4.4-6.7-.3.2-.8.3-1 .6-3.5 4.6-8.4 6.5-14.1 7-3.5.3-7 .9-10.5 1.4l.1 1.1c3.8-.3 7.6-.5 11.3-.8.1.2.1.5.2.7-3.1 1.6-6.2 3.3-9.3 4.9-.1-1 .3-1.4.6-1.9s.5-1 .8-1.5c-.3-.2-.6-.4-.9-.6-.8 1.1-1.6 2.2-2.4 3.3-.5.7-.8 1.9-1.5 2.3-8.9 4.9-18.3 8.2-28.7 6.6-1-.1-2 .2-3.7.3 1 .9 1.5 1.4 2.1 1.9-9.2 5-18.7 6-28.5 3.8-6.4-1.5-12.8-3.4-19-5.5-8.9-3-18-6-24.1-13.9-.4-.5-.9-.9-1.4-1.1-8-2.7-15.9-5.6-24-7.9-5.2-1.5-6.7-5.1-3.2-9.4 5-6.1 9.1-12.7 11.6-20.2.5-1.7 1.2-3.3 2-5.7 1.8 3.4 3 5.9 4.3 8.4.6-.7.6-1.2.4-1.6-2.2-6-4.6-11.9-6.5-18.1-1.5-5-3.5-9.2-7.7-12.8-2.7-2.3-4-6.1-5.9-9.2h-.2c-.1 1.1-.8 2.5-.3 3.1 2.9 4 6.1 7.9 9.2 11.8.7.9 1.3 1.8 1.9 2.7-.2.1-.3.3-.5.4-1.9-1.2-3.8-2.4-6-3.7.2 1.7.4 2.7.6 4.4 1.7 1.2 4.2 2.9 6.6 4.8.9.7 1.7 2 1.9 3.1.1.4-1.5 1.2-2 1.5-3.7-2.5-7-4.7-10.2-6.9-.3.4-.6.8-.8 1.2 2.8 2 5.5 4.1 8.3 6.1-.2.3-.4.6-.6.9-2.8-1.7-5.6-3.4-8.4-5.2-.2.3-.4.7-.6 1 2 1.5 4 3 6.2 4.6-4.7 4.3-6.7-2.2-11.2-2 1.2 2.1 2.2 3.8 3.2 5.6-1.4 2.8-3.8 1.1-6.7.3.8 1.3 1.3 1.9 1.6 2.4-3.8 2.6-7.3 5-10.8 7.5-3.6 2.5-3.7 4.4-.8 7.6 2.2 2.4 4.3 5 6.5 7.6-.9 1.4-2.2 1.7-4.1.2-1.9-1.6-4-3.1-6-4.5-.7-.5-1.6-.8-2.3-1.2-.2.3-.5.7-.7 1 3 2.4 6.1 4.8 9.1 7.1-.2.3-.5.6-.7.9-2.8-1.8-5.6-3.6-8.3-5.5-.3.4-.6.8-.8 1.2 2.5 1.9 5.1 3.7 7.6 5.6-.1.2-.2.4-.3.6-1.7-.9-3.4-1.8-5.1-2.7-.1.2-.3.5-.4.7 1.1 1.3 2.2 2.6 3.3 4-.2.2-.4.3-.6.5-2.5-1.8-5-3.5-7.5-5.3-.2.3-.4.5-.6.8 1.1 3.5 6.2 3.6 6.5 7.9-2.5-1.8-4.9-3.5-7.4-5.3-.3.4-.6.8-.8 1.1 3.2 2.6 6.5 5.1 9.7 7.7l-.4.5c-2.5-1.8-5-3.6-7.5-5.5-.3.4-.5.7-.8 1.1 4.7 3.9 9.4 7.8 14 11.6-.1.2-.3.3-.4.5-6.2-4.5-12.5-9-18.7-13.6-.3.4-.6.8-.9 1.2 5.6 4.2 11.2 8.5 16.8 12.7-3-1.6-5.6-3.6-8.3-5.5-2.6-1.9-5.3-3.7-7.9-5.6-.3.4-.5.7-.8 1.1 5.8 4.4 11.5 8.9 17.3 13.3l-.9 1.1-14-10.9c-.3.4-.7.8-1 1.3 4.6 3.8 9.2 7.6 13.7 11.4-6.7-3.3-11.9-8.7-18.4-12.3-.3.4-.6.7-.8 1.1 5.8 4.5 11.7 9 17.5 13.5-.2.3-.4.6-.6.8l-15.4-9.1c-.3.4-.6.9-.8 1.3 5 3.2 10.1 6.5 15.1 9.7l-.8 1.2c-5.2-3.2-10.4-6.3-15.6-9.5l-.9 1.4 14.4 9c-6.3-2.8-11.9-6.9-18.1-9.8-.3.4-.5.9-.8 1.3 6 3.6 12 7.1 18.1 10.7-.1.2-.3.4-.4.7-5.1-2.8-9.9-6.4-15.2-8.9-.3.4-.5.9-.8 1.3 4.9 3.1 9.8 6.2 14.7 9.2-.1.2-.3.4-.4.6-6.6-3.7-13.3-7.4-19.9-11.1-.3.4-.7.8-1 1.2.9 1.2 1.6 2.8 2.7 3.6 4.6 2.9 9.3 5.5 14 8.2.7.4 1.4.9 2 1.4-.1.3-.3.5-.4.8-5.1-2.7-10.2-5.4-15.4-8.2-.2.5-.5.9-.7 1.4 4.9 2.8 9.7 5.6 14.6 8.4-.1.2-.3.5-.4.7l-19.4-9.6c-.2.5-.5.9-.7 1.4 6.3 3.4 12.7 6.8 19 10.2-.1.4-.3.7-.4 1.1-.8-.2-1.7-.2-2.4-.6-4.6-2.4-9.2-4.9-13.8-7.3-.9-.5-1.9-.7-2.8-1-.2.4-.4.8-.6 1.2 5.9 3.2 11.7 6.5 17.6 9.7-.1.2-.2.4-.3.7-6.1-2.1-11.8-5.3-18.1-6.6l-.5 1.3c5.6 2.2 11.2 4.5 16.8 6.7-.1.2-.2.5-.3.7-7.6-2.4-15-5.7-22.9-7.2.3.8.7 1.4 1.3 1.6 9.5 3.1 18.9 6.4 28.5 9.2 12.3 3.6 24.9 6.2 37 10.3 22.3 7.6 44.5 15.6 66.4 24.2 30.8 12.1 61.4 24.7 92 37.4 19.3 8 38.4 16.2 57.5 24.7 21.2 9.4 42.3 18.8 64.2 26.4.8.3 1.6.3 2.4.5.1-.3.2-.6.4-.8-.8-.5-1.6-1.2-2.5-1.5-7.7-2.8-15.4-5.6-23.1-8.5-.9-.3-1.5-1.4-2.3-2.2 1 0 2-.2 2.9.1 7.4 2.9 14.7 5.8 22.1 8.7.6.2 1.2.2 1.8.3.1-.2.2-.5.4-.7-.7-.5-1.3-1.2-2.1-1.5-1.8-.9-3.7-1.8-5.6-2.6 1.1.2 2.1.3 3.2.5.1-.4.3-.7.4-1.1-7-3.3-13.9-6.7-20.9-10 .2-.4.5-.9.7-1.3 7.9 4.1 15.7 8.2 23.6 12.3l.6-1.1c-7.2-5.4-16-8.4-23.5-13.5l.5-.8c6.6 3.6 13.1 7.3 19.7 10.9.2-.4.4-.7.7-1.1-1-.8-2-1.7-3.1-2.4-4.8-2.8-9.8-5.6-14.6-8.4-.8-.5-1.4-1.2-2.1-1.8 8.5 3 15.8 8.3 24.3 11-.6-1.1-1.3-1.8-2.2-2.2l-18.6-9.9c-1-.5-1.7-1.5-2.5-2.3.2-.3.5-.5.7-.8 7.6 4 15.1 8 22.7 11.9.2-.4.4-.7.7-1.1-.9-.7-1.6-1.5-2.6-2-5.9-3.2-11.8-6.4-17.7-9.6-.9-.5-1.6-1.3-2.4-2 .2-.2.4-.5.5-.7 7.9 4.2 15.7 8.3 23.6 12.5.2-.3.5-.7.7-1-.9-.7-1.7-1.6-2.8-2.1-6.1-3.2-12.2-6.4-18.4-9.6-2.3-1.2-2.4-1.3-1.8-3.4 7.4 3.9 14.8 7.8 22.1 11.7.2-.4.5-.8.7-1.2-1.2-.8-2.5-1.7-3.7-2.5 2.8-1.1.9-2-.3-2.7-5.1-2.9-10.3-5.8-15.4-8.7-.6-.3-1.2-.7-1.8-1.1 1.5 0 2.6.4 3.8 1 6.1 3.2 12.2 6.4 18.4 9.6.9.5 1.9.6 2.9.9.1-.4.3-.8.4-1.1-8.4-4.4-16.8-8.9-25.2-13.3.2-.4.4-.8.5-1.2.9.3 1.9.4 2.8.8 5.9 3.1 11.8 6.3 17.8 9.4 1 .5 2.1.7 3.2 1 .1-.4.3-.7.4-1.1-7.8-4.2-15.7-8.4-23.5-12.6.2-.4.5-.8.7-1.3 6.1 3.4 12.3 6.7 18.4 10.1.3-.4.5-.9.8-1.3-6.1-3.6-12.2-7.1-18.3-10.7.1-.2.2-.4.4-.6 3.9 2 7.8 3.9 11.6 5.9 3.8 1.9 7.7 3.9 11.5 5.8l.6-1.2c-7.1-5.4-16.3-7.5-23.3-13.3.2-.4.4-.7.6-1.1 7.4 3.9 14.9 7.8 22.3 11.7.2-.4.4-.8.7-1.2-2.7-1.6-5.3-3.3-8-4.9 1.5.6 3.1 1.2 4.6 1.8.2-.4.4-.8.6-1.2-6.2-3.5-12.4-7.1-18.6-10.6.1-.2.2-.4.3-.5 8 4 15.9 8 24.5 12.4-1.2-4.3-3.2-6.4-6.4-7.8-4.8-2.1-9.4-4.7-14.1-7.1.1-.2.2-.4.3-.6 7 3.6 14 7.1 21 10.7.2-.3.4-.7.7-1-1.1-.8-2.1-1.7-3.3-2.3-6.1-3.2-12.3-6.4-18.4-9.6-.9-.5-1.6-1.1-2.4-1.7.2-.3.4-.6.5-.9 6.4 3.5 12.9 7 19.3 10.4.3-.5.5-.9.8-1.4l-19.5-11.1c.1-.2.2-.4.4-.6 7.9 4 15.7 8 23.6 12.1.3-.5.5-1 .8-1.5-8-4.2-16.1-8.4-24.1-12.7.2-.4.4-.8.6-1.2 8.1 2.4 14.7 8.3 22.9 10.6-.7-1.2-2.5-2.5-2.3-3 .8-1.9-.7-2.1-1.6-2.6-4.5-2.5-9.1-5-13.7-7.5-1.2-.6-2.3-1.4-3.5-2 .1-.2.2-.4.3-.5 8.3 4.1 16.5 8.2 24.8 12.3.2-.4.4-.8.7-1.2-1.4-.8-2.7-1.7-4.1-2.4-5.9-3-11.8-5.9-17.7-8.9-1.2-.6-2.3-1.5-3.4-2.3.2-.3.4-.7.6-1 1.5.7 3 1.2 4.4 2 5.2 2.7 10.3 5.5 15.4 8.1 1.1.6 2.4.8 3.6 1.2.1-.3.3-.7.4-1-7.8-4.1-15.5-8.2-23.3-12.3.2-.4.4-.7.6-1.1 6.2 3.3 12.5 6.6 18.7 9.9.2-.3.4-.7.6-1-2.4-2.7-6-3.7-9.1-5.5s-6.3-3.5-9.5-5.2c.1-.2.2-.4.4-.7 7.7 3.8 15.5 7.7 23.2 11.5.2-.5.5-1 .7-1.4-4-2-8-3.9-12-6-3.9-2.1-7.7-4.3-11.6-6.4.2-.4.4-.8.6-1.2 7.4 3.8 14.9 7.6 22.3 11.4l.6-1.2c-1.9-1.2-3.9-2.5-5.8-3.7.9.2 1.8.5 2.7.7.2-.4.3-.8.5-1.2-6.1-3.4-12.3-6.7-18.4-10.1.1-.2.2-.4.3-.5 7.9 3.9 15.7 7.8 24.1 11.9-.6-4.2-2.7-5.9-5.6-7.2-5.4-2.4-10.6-5.3-15.9-8-.8-.4-1.4-1-2.1-1.5.2-.2.3-.5.5-.7 6 3.2 12 6.3 17.9 9.5.2-.4.4-.7.6-1.1-5.5-4.2-12.1-6.7-18-10.3.1-.2.2-.4.3-.6 7.5 3.7 15 7.5 22.6 11.2.2-.4.4-.8.6-1.2-7.1-4.9-15.8-7.3-22.7-12.4.2-.3.4-.7.5-1 7.2 3.7 14.4 7.4 21.6 11-3.7-9.1-13.1-10.2-19.5-15.4l23.1 11.1c.3-.4.6-.7.8-1.1-1.1-1.2-2-2.8-3.4-3.6-5.8-3.1-11.8-5.9-17.7-8.9-.7-.4-1.3-1-2-1.5.2-.2.3-.5.5-.7l17.4 9c.2-.4.5-.9.7-1.3-5.9-3.2-11.7-6.4-17.6-9.6.1-.2.2-.5.4-.7 7.3 3.6 14.6 7.3 22 10.9.2-.5.5-1 .7-1.4-7.5-3.8-15-7.6-22.5-11.4.2-.4.4-.8.6-1.2 7.2 3.5 14.4 7 21.5 10.4.2-.3.4-.7.6-1-1.5-.9-3-1.9-4.4-2.8.3-.5.7-1 1-1.5-.7-.4-1.4-.8-2.1-1.2-4.8-2.7-9.7-5.3-14.5-7.9.1-.2.2-.3.3-.5 7.5 3.7 14.9 7.4 22.4 11 .3-.4.7-.8 1-1.2-.9-1.1-1.6-2.7-2.8-3.3-5.7-3.2-11.5-6.1-17.3-9.1-.9-.5-1.7-1.1-2.6-1.6.1-.3.3-.5.4-.8 6 3.1 12 6.3 18 9.4.2-.4.5-.9.7-1.3-6.1-3.4-12.2-6.8-18.3-10.1.1-.2.2-.4.3-.6 7.5 3.8 14.9 7.6 22.4 11.4.2-.4.5-.9.7-1.3-7.6-4-15.1-8-22.7-12.1.2-.4.4-.7.6-1.1 7 3.5 14 7.1 21.1 10.6.3-.4.6-.8.8-1.2-2-1.9-3.8-4.2-6.1-5.6-4.6-2.9-9.5-5.2-14.3-7.8.1-.2.2-.3.3-.5 7.7 3.8 15.4 7.7 23 11.5.2-.5.5-.9.7-1.4-7.8-4-15.7-8.1-23.5-12.1.2-.3.3-.6.5-.9 7.3 3.6 14.6 7.2 21.9 10.8.2-.5.5-.9.7-1.4-7.4-3.8-14.8-7.6-22.2-11.4.2-.4.4-.7.6-1.1 5.8 3.1 11.6 6.2 17.5 9.3.3-.5.5-.9.8-1.4-5.7-3.1-11.5-6.3-17.2-9.4.1-.2.2-.4.3-.6 7.1 3.6 14.3 7.2 21.4 10.8.2-.3.4-.6.6-1-.8-.7-1.6-1.5-2.5-1.9-5.6-2.9-11.3-5.6-17-8.5-.9-.5-1.7-1.3-2.6-1.9.2-.3.3-.5.5-.8 7 3.5 14 7.1 21 10.6.2-.4.4-.7.6-1.1-.7-.5-1.4-1-2.2-1.6-.4-.3-1-.8-1-.8 1.2-2.4-1.2-2.4-2.2-3-4.8-2.7-9.7-5.2-14.5-7.7.1-.1.1-.3.2-.4 7.5 3.6 15 7.2 22.8 10.9-.5-4.6-3.5-5.6-6.3-6.9-4.6-2.1-9-4.4-13.5-6.7-.8-.4-1.6-1.1-2.4-1.6.2-.3.3-.5.5-.8 2.8 1.5 5.5 3.1 8.3 4.6s5.7 2.8 8.6 4.2c.2-.4.4-.8.6-1.2-5.7-3.1-11.3-6.2-17-9.3.1-.2.2-.4.3-.5 7.1 3.6 14.2 7.1 21.3 10.7.2-.4.4-.7.6-1.1-.8-.6-1.6-1.3-2.4-1.8-5.4-2.7-10.8-5.3-16.2-8-1.1-.6-2.1-1.4-3.1-2.1.2-.3.4-.6.6-.9 6.9 3.5 13.8 7 20.7 10.4-4-8-12.3-9.8-18.5-14.5 7.3 3.6 14.6 7.2 21.8 10.8.3-.3.5-.6.8-1-1.1-1.2-2.1-2.7-3.4-3.5-3.5-2-7.1-3.7-10.7-5.5-2.6-1.3-5.1-2.6-7.7-4 .1-.2.3-.5.4-.7 5.6 2.7 11.1 5.4 16.7 8.2l.5-1.1c-5.6-3-11.1-5.9-16.7-8.9.1-.2.2-.4.3-.5l20.7 10c.2-.4.4-.8.6-1.2-7.1-3.6-14.2-7.2-21.2-10.8l.4-.8c6.8 3.2 13.7 6.3 20.5 9.5l.6-1.2c-2.7-2.1-5.3-4.3-8.2-6.1-3.6-2.2-7.5-4-11.2-6l.2-.4c6.6 3.4 13.8 6.9 21.1 10.4.2-.3.3-.6.5-1-.5-.4-.9-1-1.5-1.2zm-217.6 44c-1.4-.6-2.9-1.3-4.3-1.9l.3-1.2c1.1 0 2.4-.3 3.4.1.7.3.9 1.5 1.3 2.4-.2.2-.5.4-.7.6zm3.7.4c-2.3-2.2-1.5-4.1 1.5-4.8.4-.1.8-.1 1.2-.2 1.5-.4 3.7-1.6 4.2-1.1 1.3 1.3 2 3.3 2.6 5.1.6 1.9-1.3 3.3-5.4 3.4-1-.5-2.9-1.1-4.1-2.4zm8.6 3.8c3.1-2 3.9-1.6 4.3 1.7-1.4-.5-2.6-1-4.3-1.7zm4.8-3c-1-1.8-2.2-3.6-2.7-5.5-.2-.7 1.3-1.9 2-2.8.2-.2.8 0 1.2-.1 5.1-1.3 5.2-1.3 6.5 3.6.2.7-.1 2-.5 2.3-1.9 1-3.9 1.7-6 2.6-.2-.1-.5 0-.5-.1zm2.8 5.2c-1.9-2-1.2-3.9 1.5-4.6.4-.1.8-.1 1.2-.2 1.4-.5 2.9-1.7 4-1.3.9.3 1.5 2.2 2 3.5 1.4 3.7.3 5.2-4.5 5.2-1.1-.6-2.9-1.3-4.2-2.6zm5.9-15c1.9-1.3 4.2-2 6.4-2.8.4-.1 1.4.3 1.5.7.8 1.8 1.4 3.7 2 5.4.1.3.2.6.1.7-2.2 1.1-4.4 2.6-6.8 3.2-1.7.4-2.8-1.2-2.8-3.1 0-1.4-1-3.8-.4-4.1zm2.7 19.3c3.2-2.3 4.3-2 5.2 1.5-1.8-.5-3.3-.9-5.2-1.5zm3.2-5.2c-.2-.8-.5-1.7-.8-2.5-.9-2.2-.2-3.4 2-4 1.6-.5 3.1-1.1 5.4-2 1 2 2.2 4 2.8 6.1.2.6-1 1.9-1.9 2.5-1.1.7-2.5 1-3.7 1.6-1.9.8-3.3.6-3.8-1.7zm51-49.3c-1.2.2-2.6.8-3.8.5-.7-.2-1.2-1.5-1.7-2.4.3-.3.6-.6.9-.8 1.5.5 3.1 1 4.6 1.6zm.7 1.7c.4-.1 1.2.5 1.3.9.6 2.1 1.1 4.3 1.8 7.1-3.1-.9-5.5-5.2-4.7-6.8.3-.5 1-1 1.6-1.2zm-1.4 6.8c-3.1 1.4-5.3 2.6-7.6 3.4-1.3.4-3.7-3.7-3.6-5.7.1-1 5.4-4.6 6.4-3.8 1.7 1.3 2.8 3.5 4.8 6.1zm-10.3 4.8c.6-.2 2 1.7 2.4 2.1-.1 3.9-3 7.7-5.2 7.8-1.6.1-5-4.6-3.8-6.2 1.4-1.9 4.2-2.9 6.6-3.7zm-5.8 11.3c1.5.8 2.5 2.7 3.8 4.1-.6 2.6-4.4 5.7-6.8 5.6-1.5-.1-3.5-3.5-3.5-5.9-.1-1.1 5.1-4.5 6.5-3.8zm-3.8 12.5c1.1 1.4 1.3 3.5 1.9 5.2v.4c-2.2 1.2-4.3 2.7-6.6 3.4-1.6.4-2.9-.9-2.9-3 0-.6-.9-1.3-.8-1.8.1-1.1.7-3.2 1-3.2 2.6.1 4.8-4.3 7.4-1zm-1 9.5c.7-.2 1.4-.3 1.9-.6 3.6-1.9 5.1-1.1 5.3 2.9.1 1.9-3.5 6.3-5.3 6.3-3.7-.1-2.7-3.9-4.1-5.8-.9-1.5.7-2.5 2.2-2.8zm6.9-3.5c-.8-.2-1.5-1.3-2-2.2-.5-.8-1-1.8-1-2.7 0-1 .4-2.1.7-3.2 1.7 2.6 3.1 4.8 4.8 7.4-.6.3-1.7 1-2.5.7zm2.4 2.7c.6-1.3 3.1-2.1 4.9-2.3 1.2-.1 3 .9 3.9 1.9s1.4 2.6 1.4 4c0 .4-2.1.9-2.7 1.1-1.9-.2-3.3-.2-4.5-.6-1.9-.7-3.9-2.2-3-4.1zm4.5-19.5c.2-.7 1.2-1.2 1.9-1.8.5.6 1.3 1.3 1.4 1.9 0 .6-.9 1.3-1.6 2.3-.9-1.1-1.9-1.9-1.7-2.4zm.5-26.5c-1.3 1.7-3.7 2.6-5.8 3.4-.7.3-2.2-.4-2.7-1.1-.8-1.1-1.2-2.5-1.4-3.8-.1-.8.5-2 1.2-2.4 1.3-.6 2.8-.8 4.2-1.1 2 .1 5.5 3.8 4.5 5zm-12.9-5.1c-.6-.1-1-1.7-1.5-2.7l.7-.7c1.6.5 3.3 1.1 4.9 1.6 0 .3.1.6.1.9-1.4.5-2.9 1.1-4.2.9zm-1.4 1.6c.5.5 1.5.9 1.9 1.7.6 1 .9 2.2 1.3 3.3.1.3.3.8.2.8-2.1 1.3-4.2 2.7-6.4 3.6-.4.2-1.7-1.4-2.4-2.3-.4-.4-.4-1.1-.7-1.6-1.6-2.2-.6-3.2 1.6-3.9 1.4-.4 2.8-.9 4.5-1.6zm1.7 9.9c1.2-.4 2.3-1.2 3.8-2 .7.8 1.5 1.5 2 2.4.4.6.5 1.5.8 2.2 1.2 2.5.8 3.4-1.9 4-.5.1-1 .1-1.4.3-3.7 1.6-3.7 1.7-5.4-2.2-1.5-3.5-1.5-3.4 2.1-4.7zm1.3 14.7c.2.6-.1 1.8-.5 2.1-2 1-4.1 1.8-6.6 2.9-.6-.7-1.3-1.4-1.9-2.2-.3-.6-.3-1.4-.5-2-1.4-3.1-1.2-3.4 1.9-4.3.2-.1.4 0 .6-.1 5.5-1.8 5.5-1.8 7 3.6zm-7.5 7.1c1 1.3 1.2 3.3 1.7 5 .1.4-.1 1.1-.5 1.3-2.1 1.1-4.2 2-6.4 3.1-.6-.4-1.4-.6-1.7-1.2-.7-1.6-1.5-3.2-1.8-4.9-.1-.7 1.3-2.4 1.7-2.3 2.7.5 4.5-4.2 7-1zm-4 17.6c-2 .9-4.3 2.3-6.7 2.9-2 .5-3.7-2.1-4-5.7-.1-1.5 3.8-4.2 6.5-4.5 2.1-.1 4 2.7 4.2 7.3zm-1.1-19.5c-2.6-.2-4.8 4.2-7.4.8-.8-1.1-1.1-2.7-1.4-4.1-.1-.6.2-1.6.6-1.8 2-1 4.1-1.8 6.2-2.6.4-.4.8-.7 1.3-1.1.3.9.7 1.9 1 2.8.4 1 1 2 1 3-.2 1-1 3-1.3 3zm-6.3 4.3c1.3 1.2 1.5 3.6 2.2 5.4v.3c-2.4 1.2-4.7 2.8-7.2 3.5-1.7.5-2.5-1.1-2.5-2.9 0-.5-.7-1.1-.7-1.6 0-1 .4-3 .5-3 2.8.4 4.7-4.5 7.7-1.7zm-6.8 27.5c-1.1-.9-2.1-2.4-2.4-3.8-.1-.4 1.8-1.5 2.9-2.2.5-.3 1.1-.5 1.6-.8 2.9-1.7 4-1.3 4.9 1.9.1.3.2.6.3.9 1.6 3.9.9 5-4 5.1-.8-.2-2.3-.3-3.3-1.1zm7.1 2.7c3.6-1.9 4.7-1.5 5.2 1.8-1.8-.6-3.2-1.1-5.2-1.8zm5.4-2.9c-1.4.4-3.6-3.4-3.6-6 0-1.2 4.9-4.3 6.8-4.3 1.3 0 4 4.2 3.9 7.3-2.1.9-4.5 2.2-7.1 3zm2.2 4.1c-.3-.7 0-2.2.6-2.5 1.9-1.1 4-2 6.1-2.7.5-.2 1.3.6 2 .9l.2 1.1c-2.2 1.3-4.3 2.7-6.5 3.8-.6.3-2.2-.1-2.4-.6zm25.2 11.9c-7.4-2.8-14.7-5.7-23-8.9 7.1-3.3 10.8-8.8 13.9-13.2h12.8c.6 0 1.3-.2 1.7-.6 3.2-3.3 6.4-1.7 9.7-.1 3.2 1.5 6.6 2.9 9.9 4.3-4.1 10-11.6 18.4-22.7 18.7-.8 0-1.6 0-2.3-.2zm34.7-5.6c-2.1 5.7-4.3 11.4-6.7 17.6-8.1-3.3-15.6-6.5-24-9.9 10.9-1.8 16.8-8.6 21.2-17 1.2-2.3 2.3-2.6 4.7-1.6 7.6 3.2 7.7 3.2 4.8 10.9zm6-9.7c-14.3-6.1-28.4-12-42.8-18.2 3.4-8 6.6-15.8 10.2-24.1 14.2 6 28.3 12 42.9 18.2-3.5 8.1-6.8 15.9-10.3 24.1zm-5.4-34.2c-8.6-3.7-16.6-7-24.6-10.6-.7-.3-1.1-1.5-1.2-2.4-.5-3.6-.8-7.3-1.2-11.1 6.4 2.4 13.5 5 20.6 7.6.4.2.8.6 1.1 1 2.9 4.5 4.6 9.4 5.3 15.5zm-2.2-15.1c6.7 2.7 13.7 5.4 20.9 8.3-1.7 4.4-3.2 8.4-4.8 12.7-3.8-1.6-7.3-3.1-10.7-4.7-.7-.3-1.2-1.3-1.4-2.1-1.4-4.7-2.6-9.4-4-14.2zm-63.3-11.9c0 .1-.6.3-1.2.6-.7-5.5-1.3-10.8-1.9-16.1-.3 0-.7 0-1 .1.2 2.3.4 4.5.6 6.8-.4 0-.8.1-1.2.1-.1-3-.3-6-.4-9 1.3-2 2.8-1.7 4.8-1 24.1 8.8 48.2 17.4 72.3 26.2 7 2.6 14 5.3 21.3 8.1-1.9 5.1-3.7 10-5.5 14.8-.3.8-.6 1.5-.9 2.2-.5 1.5-.9 2.8-3.1 1.9-2-.8-2.7-1.6-1.8-3.8 1.3-2.9 2.1-6 3.4-9 .9-2.1.3-3.1-1.7-3.9-7.4-2.8-14.7-5.9-22.1-8.6-19.1-7-38.2-13.9-57.3-20.8-1.8-.7-3.7-1.1-5.5-1.7-.2.3-.3.7-.5 1 1 .7 2.1 1.4 3.5 2.5-1.2.7-2.2 1.4-3.4 2.2.5 2.5 1.1 4.9 1.6 7.4zm4.8.1c-.5.2-1.8-1.3-2.6-2.2-.5-.6-.8-1.4-1-2.1-.1-.7-.1-2.1.2-2.2 2-.7 4.2-1.7 6-1.3 1.6.3 2.7 2.5 4.1 3.8l-.5.5c0 .1.1.3 0 .3-2 1.1-4 2.4-6.2 3.2zm-3.6 12.3c1.9-1 4-1.7 6.3-2.6.6.5 1.5 1.1 1.9 1.8.6 1 .9 2.2 1.3 3.3.1.2.2.5.1.6-.6.9-1.3 2.4-2 2.4-2.3 0-4.5 3.8-6.9.4-.8-1.1-1.1-2.5-1.4-3.9-.1-.6.2-1.7.7-2zm-10.2 1.9c2.4.4 4.5-3.9 6.9-.6.8 1.1 1.3 2.6 1.7 4 .2.5 0 1.7-.4 1.8-2.1 1.1-4.3 1.9-6.7 3-.6-.4-1.5-.8-1.9-1.5-.7-1.4-1.3-3-1.3-4.5 0-.7 1.3-2.3 1.7-2.2zm-1.4 9.4c1.6-.1 4 2.7 4.1 5.4 0 .8-1.3 2-2.3 2.5-1.3.8-2.9 1.2-4.8 2-.6-.5-1.3-1-2-1.6-.1-.1-.1-.2-.1-.3-2-5-.9-6.9 4.7-8zm-5.6-8.3c.3-.2.8-.3 1.1-.3 3.4.3 1.5 4 3.3 5.3-.7.9-1.3 1.7-2 2.6 0 .1-.2.1-.3.1-1.8.5-4 1.7-5.4 1.1-1.3-.5-1.7-3.1-2.5-4.9 1.9-1.2 3.8-2.6 5.8-3.9zm-4.5 11.1c.6.4 1.4.9 1.6 1.5.3 1.9 1.2 4.5.4 5.6-1.2 1.5-3.8 1.8-6.3 2.9-.5-.7-1.5-1.5-1.4-2.2.2-2-3.7-4.3.4-6 1.2-.6 2.5-1.1 3.9-1.6.4-.2 1.1-.4 1.4-.2zm-3.9-6.1c3.1 3.3 2.8 4.4-.9 5.5-2 .6-3.6 2.9-6.3.5 2.3-2 4.7-4 7.2-6zm-17.4 12c.5.6 1 1.2 1.9 2.2 1.1-4.2 3.4-6.4 7.6-5.5 1 .2 1.8 1.3 2.6 2.2.4.5.3 1.4.7 1.9 1.4 2.4.4 3.5-2 4-.6.1-1.2.3-1.7.6-3.7 2-4.8 1.6-5.8-3.1-.7.7-1.2 1.1-1.6 1.7-.2.3 0 .8 0 1.2-.1 1.1-4.9 4.2-6.8 4.2-2.1 0-2.6-1.3-2.8-3.1-.1-.9-1.1-1.8-1.9-2.9 3.3-1.2 6.5-2.3 9.8-3.4zm150.8 139.7c-6-2.3-12.1-4.6-18.1-6.9.2-.4.3-.8.5-1.2 6.1 2.2 12 4.9 17.6 8.1zm2.1-25.1c2.1 1.2 4.2 2.6 6.3 4-6-3.2-12.1-6.4-18.1-9.5.2-.3.3-.6.5-.9 3.7 2.1 7.6 4.2 11.3 6.4zm8-17.2c-4.6-2.3-9.2-4.6-13.9-6.9.2-.3.4-.7.6-1 4.5 2.6 8.9 5.3 13.3 7.9zm4.9-20.4c-.1.2-.2.3-.3.5-4.1-2.1-8.2-4.2-12.3-6.3l.4-.8c4.1 2.2 8.2 4.4 12.2 6.6zm9.4-15.2c-5.2-2.6-10.4-5.2-15.7-7.8l.5-1c5.1 2.9 10.1 5.9 15.2 8.8zm3.3-17.4c-.1.2-.2.3-.3.5l-13.6-6.8.4-.7c4.5 2.3 9 4.6 13.5 7zm7.6-13.2c-5.5-2.6-10.9-5.3-16.4-7.9.2-.3.3-.6.5-.9 5.3 2.9 10.6 5.8 15.9 8.8zm3.2-34.9c-.1.2-.2.3-.3.5l-9.3-4.7c.1-.2.2-.4.3-.6 3.2 1.6 6.3 3.2 9.3 4.8zm5.5-13.9c-.1.2-.2.3-.2.5-3.2-1.6-6.4-3.3-9.6-4.9.1-.2.2-.5.3-.7 3.1 1.7 6.3 3.4 9.5 5.1zm4-13.7c-.1.2-.2.3-.3.5-3-1.6-6.1-3.1-9.1-4.7.1-.2.2-.4.3-.6 3 1.6 6 3.2 9.1 4.8z"/><path d="m153.3 62.4c-.1 0-.2 0-.2-.1.1-1.1.2-2.1.4-3.2-.3-1.3-.1-2.7.6-3.8-.1-.1-.1-.1-.1-.2.2-.2.4-.4.7-.6.3-.4.7-.7 1.2-.9.5-.4 1-.9 1.4-1.5 2.4-4.1 3.4-8.8 4.3-13.5.4-1.9 1.9-3.7 1.7-5.4-.6-5.8-1.6-11.6-5.5-16.3-6.6-8-15.1-13.1-25-15.8-.7-.2-1.5 0-2.2 0 0 .2-.1.5-.1.8 7.5 2.5 14.9 5.3 21.4 11.6h-44.6c1.2-1.5 1.8-2.3 2.4-3 4-4.8 9.6-6.6 15.4-8 1.4-.4 2.9-1.1 4.3-1.6-.6-.7-.9-.9-1.1-.9-9.4 1.5-17.7 4.9-23.6 13.2-4 5.7-4.4 11.8-3.6 18.3.2 2.1.2 4.2-.1 6.2-1.1 6.3-.7 12 4.8 16.3.7.6 1.2 1.3 1.8 2 3.3 3.8 3.1 7.4-.7 10.8-2.4 2.2-3.4 4.7-2.7 7 .7-1.1 1.3-2.1 2.2-3.5-.1 2.5.2 4.2 3 4.5.5-3.1.9-6.2 1.3-9.3-.1-.4-.1-.7-.1-1.1 0-2.8.1-5.5-.1-8.3-.7-.3-1.4-.9-1.9-1.4-1.4-1.4-2.7-3-4-4.5 0 0 0-.1-.1-.1-1.3-1.2-1.9-2.8-1.4-4.7-.1-.6-.2-1.3-.1-2-.8-2.9.7-6.5 4.6-6.5 9.2 0 19.9-1.4 29.3.8 6.3-.2 12.5-.2 18.8-.1 4.3.1 4.5.3 3.4 4.4-.1.7.1 1.5-.2 2.1-.5 1.1-1 2.5-1.9 3.1-5.4 3.4-6.2 5.3-5.1 11.6.4 2.3.4 4.9-.1 7.1 0 .1-.1.2-.1.3.2 1.3-.2 2.7-.9 3.8v.3.1h.1l-.1.1c-.3 1-.9 1.7-1.7 2.3l.3-.3c-.2.1-.3.3-.4.4 0 .1-.1.1-.1.2-.2.9-.7 1.6-1.3 2.2-.1.2-.2.4-.4.5-.3 1-1 1.9-1.9 2.5-.4.5-1 .9-1.6 1.2.6.7 1.2 1.4 1.9 2.1 2.3-4.5 5.4-8.7 7.8-13.3 0-.7.2-1.4.5-2-.1-.4-.2-.8-.2-1.1-.7-.9-.7-1.9-.4-2.8zm-10.1-43.2c-.1-1.1-.3-2.3-.4-4.1 3.5 0 7.2-.9 9.9.3 2.5 1.2 4 4.6 5.9 7.1.1.1-1 1.6-1.6 1.6-3 .2-6 .2-9-.1-1-.1-2-1.3-2.9-2.2-.8-.7-1.3-1.7-1.9-2.6.1 1.2.2 2.4.3 3.6-2.8.5-4.5-2.1-4.8-7.4 3.1-.7 2.6 3.1 4.5 3.8zm-8.2-4.1c2.9 2 2.7 5.1 3.9 7.9-3.4.1-5-3.6-3.9-7.9zm-3.2.3c.5 2.2 1.1 4.4 1.5 6.6.1.3-.6.9-1 1.1-.3.1-1.1-.3-1.2-.6-.5-2.2-.8-4.5-1.1-6.7.6-.2 1.2-.3 1.8-.4zm-5.2.4c.3-.1.5-.1.8-.1.2 2.3.5 4.5.9 7-2.6-.9-3.1-3.3-1.7-6.9zm-4.9.3c.4 0 .9.1 1.4.1-.2 1.9-.4 3.7-.6 5.6-.5-.1-1-.1-1.5-.2.2-1.8.4-3.7.7-5.5zm-4.4.1c.3.1.6.1.9.2-.2 1.7-.5 3.5-.7 5.3-.4 0-.9-.1-1.3-.2.3-1.7.7-3.5 1.1-5.3zm40.6 19.7h-16.2v.6c-11.9-.8-23.8-1.6-35.7-2.3-2.5-.2-3.2-1.5-3.5-3.6-.9-7.4-.4-8 6.9-7.6 11.5.6 22.9 1.1 34.4 1.8 4.6.3 9.3.7 14 1.1h.3c1.9.3 3.5 3.9 3.3 7.6-.2 2.2-1.8 2.4-3.5 2.4z"/><path d="m202 187c1.2 0 2.5-.3 3.6 0 16.9 5.7 33.8 11.4 50.7 17.3 24 8.4 48 16.9 71.9 25.7 11.4 4.2 22.5 9.2 33.7 13.8 2.4 1 3.3 2.2 2.3 5.1-7.8 22.1-15.5 44.3-23.2 66.4-5.4 15.4-10.8 30.9-16.2 46.3-3.7 10.7-7.4 21.4-11.1 32.1-1.1 3.2-1.5 3.4-4.5 2.2-20.9-8.9-41.8-18-62.8-26.8-32.8-13.6-65.6-27.2-98.6-40.3-31.1-12.4-62.6-23.9-94.8-33.1-2.1-.6-4.3-1-6.4-1.8-.7-.3-1.5-1.9-1.3-2.2 3.4-4.9 6.9-9.6 10.4-14.4.1-.1.4-.1 1.6-.2-3.6 5.2-6.9 9.9-10.2 14.6 90.8 27.3 177 66.1 264.2 102.8.7-1.7 1.4-3.2 1.9-4.8 10-28.7 19.9-57.4 29.9-86.1 6.2-17.9 12.4-35.8 18.8-53.6 1-2.9.6-4.3-2.3-5.4-13.5-5.2-26.7-11-40.3-16-25.7-9.4-51.5-18.5-77.3-27.6-7.7-2.7-15.6-5.1-23.4-7.8-5.5-1.8-10.9-3.8-16.3-5.8-.1-.1-.2-.2-.3-.4z"/><path d="m64.7 278.4c-1.8 2.7-3.6 5.3-5.6 8.2 85 26.7 166.2 62 248.2 96.6 1-2.6 2.1-5 3-7.5 6.4-18.1 12.7-36.1 19-54.2 8.1-23 16.2-45.9 24.3-68.9.7-2.1.5-3-1.6-3.8-21.6-8.2-43-16.7-64.6-24.7-21.1-7.7-42.3-15-63.5-22.4-5.3-1.9-10.7-3.5-16-5.3-1-.4-2-1-2.9-1.5.1-.3.2-.6.3-.9 1 .2 2 .4 2.9.7 25.5 8.9 51 17.5 76.4 26.7 22.5 8.2 44.8 16.9 67.2 25.4.7.2 1.3.6 1.9.8 2.4.8 2.8 2.2 2 4.6-7.2 20.2-14.3 40.4-21.4 60.7-7.3 20.8-14.7 41.6-22 62.4-.9 2.5-1.8 4.9-2.7 7.3-1.2 3.3-1.6 3.4-4.8 2-14.2-6.2-28.4-12.6-42.7-18.6-21.3-8.9-42.6-17.7-64-26.2-27-10.8-54-21.6-81.3-31.7-18.6-6.9-37.6-12.6-56.5-18.7-4-1.3-4.1-1.6-1.8-4.9 1.2-1.7 2.4-3.5 3.7-5.1.5-.6 1.3-1 1.9-1.5.2.2.4.4.6.5z"/><path d="m126.4 225.7c1.1-.9 2.5-1.4 4.1-1.1-2.6-1.3-5.2-2.8-7.7-4.1 5.4-4 10.5-7.7 15.8-11.7-2.1-1.7-3.5-2.8-4.9-3.9-3.4-2.7-7.3-5.1-10.2-8.3-4.1-4.5-7.6-9.4-10.9-14.5-3.1-4.7-8.5-8.3-8.1-15-.3 1.2-.5 2.4-.8 3.8-3-3.2-5.8-6.2-8.5-9.1-.3.2-.5.4-.7.6 1.2 1.5 2.5 2.8 3.6 4.3l16.5 21c2.9 3.7 5.7 7.5 8.6 11.3.3.3.7.5 1 .7 2.7 2.1 5.6 4.1 8.3 6.3 3 2.5 3 3.5-.2 5.7-3.9 2.6-7.9 5-12 7.3-4.6 2.6-9.8 4.4-13.9 7.7-3.5 2.9-6 4.1-10.5 1.8-2.5-1.2-3.8-2.5-4.3-4.9-3.1-16.3-10-31.3-15.3-46.8-.3-1-1.6-1.6-2.4-2.3 2.3 7.3 4.9 14.5 6.9 21.9 2.8 10 5.2 20.2 7.8 30.2.3 1.4 1.2 3.6 2.2 3.9 4 1.1 8.1 1.8 12.3 2.2 5.8.6 11-2 15.7-5 2.7-1.7 5.1-2.7 7.6-2z"/><path d="m67.6 134c-.2 3.5-.4 7-.7 10.5-.3 0-.6 0-.9 0 0-4.5 0-9 0-13.4 0-5.9 0-11.7 0-17.6 0-.8 0-1.7.3-2.3 3.9-6.6 7-13.6 13.8-18.2 6.9-4.6 13.2-10 19.9-15.1 1.1-.8 2.2-1.5 3.9-2.7-1.1 6 3.8 8.4 5.9 12.2-.3.2-.6.5-.9.7-1.5-1.7-3.2-3.3-4.6-5.1-2.1-2.6-2.3-2.7-4.5-.3-.9 1-1.9 2-3 3-.2.2-.5.2-1.6.5 1.2-1.7 1.9-2.8 2.7-4-.1-.1-.2-.2-.2-.3-3.4 2.5-6.8 4.9-10.1 7.4-2.8 2.1-5.5 4.3-8.3 6.4-5.4 4-9.1 9.7-11.5 15.6-2.5 6.1-2 12.9.5 19.2h.9c.4-5.8.9-11.7 1.3-17.5h1.4c.2 2.8.5 5.6.5 8.3 0 10-.3 20-.2 30.1 0 2.2.9 4.5 1.4 6.7.2.8.2 1.5-.2 2.4-3.5-8.5-5.1-17.3-5.1-26.5-.1-.1-.4-.1-.7 0z"/><path d="m112.4 76.8c5.9 2.1 11.1 6.5 18.4 6.7-1.3-1.3-2.3-2.1-3.2-3 .1-.2.3-.5.4-.7 1 .5 2 .8 2.9 1.4 3.6 2.2 7.3 3.8 11.6 1.9.4-.2 1.1 0 1.6.3 5.2 2.4 10.3 4.8 15.5 7.1 4 1.7 7.6 7.4 6.6 12.1-.5-1.4-.7-2-.9-2.7-1-4-3.3-6.5-7.4-7.8s-8-3.2-11.7-5.4c-2.9-1.7-5.6-.4-8.5-.3-.1 0-.5 1.9-.2 2.6 1.3 2.9 2.9 5.7 4.3 8.6.3.6.4 1.2.5 1.8-.3.1-.5.2-.8.4-1.4-2.5-2.8-5-4.4-7.7-.7 5.9-1.3 11.3-1.9 16.8-1.6-3.4-.5-6.7-.1-10.1.4-3.3.4-6.7.7-10.7-1.4 1-2 1.4-3.1 2.2.5-1.7.7-2.8 1.1-4.1-2.1-.7-4-1.7-5 1.4-.4 1.1-1 2.2-1.7 3.1-.5.6-1.4.9-2.1 1.4-.4-.7-1.2-1.6-1-2.1 1.9-4.9-.8-6.8-4.9-8.2-2.5-.9-4.7-2.5-7-3.7 0-.5.1-.9.3-1.3z"/><path d="m172.1 120c1.4 12 4.4 23 3.1 34.3-2.1-14.7-4.2-29.4-6.3-44.3 11.8 20.8 23.1 41.6 28.8 64.8-6.7-18.8-14.3-37.1-25.6-54.8z"/><path d="m69.4 247.6c3.8-.2 7.6-.8 11.4-.6 6.8.3 13.1 2.2 17.6 7.7 1 1.3 1.1 3.3 1.6 4.9-1.7-.6-4.2-.8-5.1-2-5.8-7.4-13.2-10.3-22.5-8.7-.9.2-1.8.1-2.8.2-.1-.5-.1-1-.2-1.5z"/><path d="m153 201.5c-3.1-2.7-7-3.5-11-4-.8-.1-1.5-1.1-2.2-1.7.8-.9 1.6-2.4 2.5-2.5 4.4-.3 12 5 13.3 8.9.2.5.2 1 .4 2.1-4.2-.3-8.1-.7-11.9-1 0-.5.1-1.1.1-1.6 2.9.3 5.8.5 8.6.8.1-.3.2-.7.2-1z"/><path d="m74.6 183.9c-2.7 1.9-2.7 4.3-1.9 6.6.7 2 1.8 3.8 2.3 5.9-3.9-1.9-6.3-5.1-7.2-9-.8-2.6 2.9-4.7 6.8-3.5z"/><path d="m101.9 158.7c.2-2.4.3-3.9.4-5.5h.7c.7 3.9 1.5 7.8 2.2 11.7-.2.1-.5.2-.7.2-4.9-7.6-9.8-15.1-14.7-22.7.3-.2.7-.5 1-.7 3.6 5.5 7.1 11 11.1 17z"/><path d="m190.1 210.2c-3.8-1.5-14.6-1.9-19.9-.1-.1.3-.1.7-.1 1h19.9c0-.3 0-.6.1-.9z"/><path d="m159.8 221.7c-4.4-2.2-8.9-4.4-13.2-6.8-2.7-1.5-5.2-3.5-7.7-5.3.1-.2.2-.5.4-.7.4 0 .9-.1 1.2.1 6.3 3.8 12.7 7.6 19 11.4.3.2.5.6.8.9-.2.2-.3.3-.5.4z"/><path d="m155.1 100.7c-5-2.5-10.8-9.4-11.8-13.7 4.3 5 8.1 9.3 11.8 13.7z"/><path d="m64.2 186.5c1.8-3.4 3.5-6.8 5.4-10.2 1-1.9 2.1-3.6 3.5-6 .3 1.4.6 2.8.9 4.1l-.1.1c-.8.4-1.8.7-2.2 1.3-2.5 3.5-4.9 7.2-7.3 10.8 0 .1-.2-.1-.2-.1z"/><path d="m164 109.3c.5-6.3-5.1-9.7-7.6-15.1 5.2 3.4 9.4 10.4 7.6 15.1z"/><path d="m186.1 266.9c-4.2 1.7-8.2 3.3-12.1 4.9.4-2.8 8.7-6.5 12.1-4.9z"/><path d="m167.7 211.6c-4.7 0-9.3 0-14 0 0-.2 0-.5 0-.7h14z"/><path d="m124.9 117.2c-.3-5.3-.6-10.7-.8-16 .4 0 .7 0 1.1-.1.3 5.3.6 10.7.9 16-.4.1-.8.1-1.2.1z"/><path d="m167.5 254.7c4.2 1.5 3.4 7.3-1.3 11.5 1.4-3.7 4.5-7.1 1.3-11.5z"/><path d="m127.7 133.5v13.4c-.3 0-.6 0-.8 0 0-4.5 0-8.9 0-13.4z"/><path d="m134.2 197.2c3.1 1.6 5.7 2.9 8.3 4.2-2.3 1.6-5.3.2-8.3-4.2z"/><path d="m187.1 232.5h8v.6c-2.7 0-5.3 0-8 0 0-.2 0-.4 0-.6z"/><path d="m75.3 213c-1.8-1.3-3.7-2.7-5.5-4l.9-1.2c1.8 1.3 3.7 2.7 5.5 4-.3.4-.6.8-.9 1.2z"/><path d="m45.1 240.3c1.9 1.5 3.7 3 5.6 4.5-.3.4-.6.8-.9 1.1-1.8-1.5-3.6-3-5.5-4.6.2-.3.5-.7.8-1z"/><path d="m128.7 117.3c0-1.6 0-3.2 0-5.3 2.3 2.3 2.3 2.9 0 5.3z"/><path d="m160.3 221.3c2.3 1.1 4.6 2.1 6.9 3.2-.2.4-.5.8-.7 1.3-2.2-1.3-4.4-2.7-6.6-4 .1-.2.2-.3.4-.5z"/><path d="m130.5 144.7c0-1.3 0-2.7 0-4h1.4c.1 1.4.1 2.7.2 4.1-.5-.1-1-.1-1.6-.1z"/><path d="m184.9 231.6c-2 1.3-4.2.3-6-3 2.4 1.2 4.1 2.1 6 3z"/></g></svg>