<svg enable-background="new 0 0 420.3 334.1" viewBox="0 0 420.3 334.1" xmlns="http://www.w3.org/2000/svg"><path d="m46.3 204.3c-.5 3.7.5 7.4 2.8 10.2 2 2 4.7 3.1 7.5 3 .8 0 1.6-.4 2.1-1.1s.6-1.5.3-2.3c-.4-5.7.9-11.4 3.9-16.3.9-1 2-2 3.2-2.7 2.2-1.2 4.8-1.2 7-.1-.4 1.9-.5 3.8-.4 5.7.1 1.3 1.1 2.2 2.4 2.3 3 .2 73.9 8.3 111 12.6h1.6c5.4.2 10.7-1.5 15.1-4.7s7.5-7.8 8.9-13c1.9 1.6 3.7 3.2 5.3 4.6 1.9 1.7 3.6 3.1 4.9 4.3 1.5 1.1 3.3 1.7 5.1 1.7.5 0 1.1-.1 1.6-.1 4.4 4.7 10.7 7.2 17.1 6.9l35.6.2c2.7.3 5.3-.9 6.7-3.1.9-1.6.8-3.6-.2-5.1-4.5-4.7-11.1-6.8-17.5-5.6-5.5-.6-10.7-3.1-14.5-7.1l-.5-.4-6.7-3.9c.6-1 .3-2.3-.5-3.1-.2-.2-19.8-18-29.7-29.5-1.9-2-3.5-4.3-4.9-6.7 15.9 12.2 44.8 27.2 62.9 21.2l10.3 10.6c-1.5 5.3-1.9 10.8-1.3 16.3l.3.9 2.2-1.3-2.1 1.6c3.4 5.4 8.6 9.3 14.6 11.1 3.3 1 6.8 1.5 10.3 1.3 9.4-.3 18.8-1.2 28.1-2.8.5.8 1.1 1.6 1.9 2.1 1.3.9 2.8 1.5 4.4 1.5.4 0 .8 0 1.2-.1l18.6-3.2c5.7-.9 9.6-6 9-11.7 1.2-16.5-1.5-33-7.8-48.3-1.2-5.4-6.4-9.1-11.9-8.4l-16.5 2.1c-2.8.3-5.2 2.1-6.1 4.8-.5 0-1 .1-1.6.1-6.6.5-13.2 1.5-19.7 3.1-2.9.7-5.7 2-8.1 3.8-1.2-1.6-2.4-3.2-3.5-4.7 1.3-2.3 1.7-5 .9-7.5-13.1-32.2-36.2-59.3-66-77.2-44.4-26.6-79.1-35.1-106.3-26-11.1 4.8-19.3 14.6-22.2 26.4-6.9 22.5-3.1 46.8 10.3 66.1 17.7 24.7 15.8 36.2 14.5 39.6-16.1-2.1-32.3-3.3-48.6-3.6-1.1 0-2.2.8-2.5 1.9s-.3 1-.7 2.5c-3-.2-5.8-1.5-7.9-3.6-2.4-3.9-6.5-6.4-11.1-6.6-2.7-.1-5.3 1.1-6.8 3.4-3.4 5.2-4.9 21.5-5.9 36.7zm243.9-6.6c-.4-5.3.1-10.5 1.7-15.6 1.9-8.1 6-15.4 11.9-21.3 2.1-2 4.7-3.4 7.6-4 6.2-1.5 12.6-2.5 19-3l1.2-.1 1.3 10.5 4.8 40.5c-17.4 2.8-31.1 3.5-35.3 1.8-5.1-1.4-9.4-4.5-12.2-8.8zm-9-27.8c.7-.4 1.4-.9 2.1-1.4.3-.2.5-.4.8-.6.6-.4 1.2-.9 1.8-1.4.3-.3.6-.5.9-.8.8-.7 1.5-1.3 2.2-2.1.1-.1.3-.3.4-.4.7-.7 1.4-1.4 2.1-2.2.2-.2.4-.5.7-.7.6-.7 1.2-1.4 1.8-2.1.1-.1.2-.3.3-.4.6-.7 1.1-1.4 1.6-2.1.7.9 1.4 1.9 2.2 2.9-4.7 5.2-8.2 11.3-10.4 17.9zm-35.7 40.3c-4.3.3-8.6-1.1-11.8-4 4.5-3.2 8.5-7.1 11.7-11.6l6.8 4c4.8 4.9 11.3 7.9 18.2 8.3 9.2-.4 12.8 2.4 13 3.3 0 0 0 0-.1 0-.7.1-1.4.2-2.1.2zm-192.7.8c-1.3-1.9-1.8-4.1-1.5-6.4l.1-1.5c1.3-19.6 2.9-31.1 5-34.2.6-.8 1.5-1.2 2.5-1.1 2.8.2 5.3 1.8 6.8 4.2 2.7 3.4 6.7 5.5 11 5.9l-.1.3c-.1.4-.2.8-.3 1.2-.2.7-.4 1.5-.6 2.4-.1.4-.2.8-.3 1.2-.1.5-.2.9-.3 1.4s-.2 1-.3 1.5c-.1.4-.2.9-.3 1.3-.1.6-.3 1.3-.4 1.9-.1.2-.1.5-.2.7-1.6-.5-3.2-.8-4.9-.8-2 0-4.1.6-5.8 1.7-1.6 1-3.1 2.3-4.4 3.8-3.2 5.1-5.1 11-5.4 17.1-.1-.2-.4-.4-.6-.6z"/><path d="m294.2 230.1c-7.2 7.6-11.1 17.8-10.8 28.2.2 10.5 4.5 20.4 12 27.7s17.5 11.4 28 11.4h10.8c14.3 0 27.5-7.6 34.6-20s7.1-27.6 0-40-20.3-20-34.6-20h-46c-.8 0-1.6.5-2 1.3s-.2 1.7.3 2.3zm40-8.3c12.7 0 24.5 6.8 30.9 17.8s6.4 24.6 0 35.7c-6.4 11-18.1 17.8-30.9 17.8h-10.8c-9.5 0-18.5-3.7-25.2-10.4s-10.4-15.8-10.4-25.2c0-9.5 3.8-18.5 10.5-25.2.1-.2.3-.3.4-.4.9-.8 1-2.1.2-3l-6-7z"/><path clip-rule="evenodd" d="m320.4 238.4h16.6c3.1 0 5.6 2.5 5.6 5.6v27c0 3.1-2.5 5.6-5.6 5.6h-16.6c-3.1 0-5.6-2.5-5.6-5.6v-26.9c0-3.2 2.5-5.7 5.6-5.7zm8.3 44.5c-1.4 0-2.6-1.2-2.6-2.6s1.2-2.6 2.6-2.6 2.6 1.2 2.6 2.6c0 1.5-1.1 2.6-2.6 2.6zm-10-52c-3.7 0-6.8 3-6.8 6.8v39.7c0 3.7 3 6.8 6.8 6.8h20c3.7 0 6.8-3 6.8-6.8v-39.7c0-3.7-3-6.8-6.8-6.8zm3 2.8h14.2c1 0 1 1.5 0 1.5h-14.2c-1.1.1-1.1-1.5 0-1.5z" fill-rule="evenodd"/></svg>