<svg enable-background="new 0 0 512 512" viewBox="0 0 512 512" xmlns="http://www.w3.org/2000/svg"><path d="m263.9 312.3c-2.3 1.4-4.3 2.9-6.6 3.9-4.9 2.1-9.4.8-13.5-2.3-2.6-2-4.2-4.7-5.9-7.4-1.7-2.9-4-5-7.3-5.8-2.6-.6-5.1-.4-7.6.2-3.5 1-7 .7-10.6.1-5.9-.9-11.4-2.9-16.3-6.3-7.3-5.2-11.2-12.4-11.5-21.4-.3-6.7 1-13.2 2.8-19.7 1.6-5.8 2.5-11.6 3.2-17.5.5-4 .8-8.1.7-12.1-.2-8.5-3.7-15.6-10-21.2-4.3-3.8-9.3-6.7-14.2-9.7-15.4-9.1-31.5-17-47.9-24.2-1.9-.8-2.7-2.7-2-4.4.8-1.7 2.6-2.5 4.5-1.6 9.3 4.4 18.6 8.7 27.9 13.2 10.7 5.2 21.2 11 31 17.9 2.6 1.9 5.4 2.5 8.4 2.7 6.2.5 12.3-.1 18-2.9 2.1-1 3.6-2.4 4.6-4.7 3.4-7.7 7-15.3 10.5-22.9.2-.5.4-1.1.7-1.7.9-1.8 2.6-2.5 4.4-1.7 1.7.7 2.4 2.6 1.5 4.5-1.8 4-3.8 8-5.6 12.1-6 13.7-12 27.4-17.7 41.2-4.7 11.5-8.9 23.2-11.9 35.3-1.3 5.1-2.4 10.3-2.5 15.6-.1 8.6 3.7 15.1 11.2 19.3 4.8 2.6 9.9 4.1 15.4 4.2 1.9 0 3.9-.5 5.8-.8 5.3-.9 10.4-.2 14.9 3 2.4 1.7 4 4 5.5 6.4 1.3 2.2 2.7 4.3 4.9 5.7 2.6 1.7 5.2 1.7 7.8 0 1.3-.9 2.5-1.9 3.8-2.8-1.4-2.7-2.7-5.3-4-8-.6-1.3-1.1-2.6-1.7-4-.3-.6-.3-1.3.4-1.5.4-.1 1.1.2 1.3.5 2.7 3.5 5.5 6.9 8.1 10.5 2.8 4 6.4 7 10.3 9.8.8.6 1.8 1.1 2.7 1.6 1 .5 2 .5 2.7-.4 2.6-3 6.2-3.8 9.8-4.6 2-.5 4-.8 6-1.2 4.4-.8 7.5 1.1 9.4 4.9 1.5 2.8 2.8 5.7 4.4 8.9 0-2.1 0-4 0-5.8h.4c.3 2.6.9 5 2.6 7 .3.4 1 .7 1.3.6.4-.2 1-.9.9-1.3-.3-1.9-.5-3.9-1.1-5.7-1.1-3.5-2.9-6.6-5.1-9.5-.2-.3-.4-.6-.6-.8l.3-.3c1.4 1.2 2.9 2.3 4.2 3.6 4.1 4.5 6.1 9.9 6.2 16 0 1.3-.3 2.4-1.5 3.1s-2.4.3-3.5-.5c-.6-.4-1.1-1-1.7-1.4-.1.1-.2.2-.3.3 1.4 1.2 2.7 2.6 4.3 3.7 3.3 2.3 7.1 3.5 11.2 3.4 1.5 0 2.9-.4 4.1-1.4 5.8-4.8 11.6-9.6 17.6-14.2 6.8-5.4 13.6-10.7 20.5-15.9 2.9-2.2 5.9-4.2 9.7-4.4 2.9-.2 5.8-.4 8.6 0 7.7 1.2 15.3 2.7 23 4.1 4.7.8 9.3.2 14-.7 9.1-1.9 18.2-3.7 27.2-5.6 1.8-.4 3.5.7 3.8 2.4.4 1.9-.6 3.6-2.6 3.9-4.1.8-8.2 1.6-12.2 2.5-5.5 1.2-11.1 2.5-16.6 3.8-6.2 1.4-12.3 1.2-18.5 0-6.1-1.2-12.2-2.3-18.3-3.2-2.5-.4-5.2-.3-7.8-.1-2.8.2-4.9 2.1-7 3.7-7.5 5.8-15 11.6-22.5 17.5-4.9 3.8-9.7 7.7-14.5 11.6-2.6 2.1-5.6 3.1-8.9 2.9-8.2-.3-15.2-3.3-20.1-10-1.8-2.5-2.9-5.5-4.2-8.3-1-2.1-1.9-4.2-2.9-6.3-.6-1.4-1.5-2.2-3.2-2-3.7.4-7.2 1.2-10.6 2.6-.5.2-.8.6-1.2 1-3.6 3.4-7.3 3.8-11.4 1.1-1.8-1.1-3.5-2.4-5.1-3.7-1.5-1.6-3-3.1-4.3-4.4z"/><g fill="#010101"><path d="m216.1 331.2c0 .7.3 1.4.8 1.9s1.2.8 1.9.8h2.6c1.5 0 2.6-1.2 2.6-2.6s-1.2-2.6-2.6-2.6h-2.6c-.7 0-1.4.3-1.9.8s-.8 1-.8 1.7z"/><path d="m226.7 331.2c0 .7.3 1.4.8 1.9s1.2.8 1.9.8c1.5 0 2.6-1.2 2.6-2.6s-1.2-2.6-2.6-2.6c-.7 0-1.4.3-1.9.8-.5.3-.7 1-.8 1.7z"/><path d="m120.8 331.2c0-1.5-1.2-2.6-2.6-2.6h-10.6c-1.5 0-2.6 1.2-2.6 2.6s1.2 2.6 2.6 2.6h10.6c.7 0 1.4-.3 1.9-.8.4-.4.7-1.1.7-1.8z"/><path d="m208.2 331.2c0 .7.3 1.4.8 1.9 1 1 2.7 1 3.8 0 1-1.1 1-2.7 0-3.8-1-1-2.7-1-3.8 0-.5.5-.8 1.2-.8 1.9z"/><path d="m253.2 333.8v-5.3c0-2.1-.8-4.1-2.3-5.6s-3.5-2.3-5.6-2.3h-153.6c-2.1 0-4.1.8-5.6 2.3s-2.3 3.5-2.3 5.6v5.3c0 2.1.8 4.1 2.3 5.6s3.5 2.3 5.6 2.3h153.6c2.1 0 4.1-.8 5.6-2.3 1.5-1.4 2.3-3.5 2.3-5.6zm-5.3-5.3v5.3c0 .7-.3 1.4-.8 1.9s-1.2.8-1.9.8h-56.1c.3-.8.5-1.7.5-2.6v-7.9h55.6c1.5-.1 2.7 1.1 2.7 2.5zm-92.7 8c-.7 0-1.4-.3-1.9-.8s-.8-1.2-.8-1.9v-7.9h2.6v2.6c0 1.5 1.2 2.6 2.6 2.6s2.6-1.2 2.6-2.6v-2.6h5.3v2.6c0 1.5 1.2 2.6 2.6 2.6s2.6-1.2 2.6-2.6v-2.6h5.3v2.6c0 1.5 1.2 2.6 2.6 2.6s2.6-1.2 2.6-2.6v-2.6h2.6v7.9c0 .7-.3 1.4-.8 1.9s-1.2.8-1.9.8zm-66.2-2.7v-5.3c0-1.5 1.2-2.6 2.6-2.6h55.6v7.9c0 .9.2 1.8.5 2.6h-56c-.7 0-1.4-.3-1.9-.8-.5-.4-.8-1.1-.8-1.8z"/></g><path d="m415.9 349.2h-319.9c-22.1 0-40-17.9-40-40v-106.8c0-22.1 17.9-40 40-40h320c22.1 0 40 17.9 40 40v106.8c-.1 22.1-18 40-40.1 40z" fill="none" stroke="#000" stroke-miterlimit="10" stroke-width="9"/></svg>