<svg enable-background="new 0 0 700 700" viewBox="0 0 700 700" xmlns="http://www.w3.org/2000/svg"><path d="m577.6 107.1h-236.1c-20.7 0-37.5 16.8-37.5 37.5v133.4l-33.9 19.8c-37.6-20-76.2-21.3-106.9-3.4-75.3 44-100.7 141-56.7 216.3 29.4 50.3 82.4 78.3 136.8 78.3 22.3 0 44.8-4.8 66-14.6 6.5 11.1 18.4 18.6 32.2 18.6h236.2c20.7 0 37.5-16.8 37.5-37.5v-410.9c-.1-20.7-16.9-37.5-37.6-37.5zm-267.4 438.8c-63.4 37-145.2 15.6-182.2-47.8-37.1-63.4-15.6-145.1 47.8-182.2 19.2-11.2 43.1-11.9 67.8-2.6l-32.4 18.9c-5.9 3.5-7.9 11.1-4.5 17.1 2.3 4 6.5 6.2 10.8 6.2 2.1 0 4.3-.5 6.3-1.7l179.6-105c3.9-2.3 8.4-2.9 12.8-1.7 4.4 1.1 8 3.9 10.3 7.8 4.7 8 2 18.3-6 23l-97.8 57.1-81.8 47.8c-5.9 3.5-7.9 11.1-4.5 17.1 2.3 4 6.5 6.2 10.8 6.2 2.1 0 4.3-.5 6.3-1.7l81.9-47.9c3.9-2.3 8.4-2.9 12.7-1.7 4.4 1.1 8 3.9 10.3 7.8 4.7 8 2 18.3-6 23 0 0-.1 0-.1.1l-81.8 47.8c-5.9 3.5-7.9 11.1-4.5 17.1 2.3 4 6.5 6.2 10.8 6.2 2.1 0 4.3-.6 6.3-1.7l69.9-40.9c3.9-2.3 8.4-2.9 12.8-1.8 4.3 1.1 8 3.9 10.2 7.8 2.3 3.9 2.9 8.4 1.8 12.8s-3.9 8-7.8 10.3l-23.8 13.7h-.1l-46.1 27c-5.9 3.5-7.9 11.1-4.5 17.1 2.3 4 6.5 6.2 10.8 6.2 2.1 0 4.3-.5 6.3-1.7l46.2-27c8-4.6 18.3-1.9 23 6.1 2.3 3.9 2.9 8.4 1.7 12.8-1.1 4.3-3.9 8-7.8 10.3zm280 9.5c0 6.9-5.6 12.6-12.6 12.6h-236.2c-4.3 0-8.1-2.2-10.3-5.5l57.1-33.4c.3-.2.5-.4.7-.5 8-4.9 13.9-12.3 17.2-21.1h184.1zm0-72.8h-182.6c-1-3.7-2.4-7.3-4.4-10.7-3.3-5.6-7.7-10.2-12.8-13.6 5.4-5.2 9.4-11.8 11.4-19.3 2.8-10.8 1.3-22.1-4.3-31.7-4.1-7.1-10.1-12.6-17.3-16.2 6.9-12.5 7.3-28.2-.4-41.4-3-5.1-7-9.3-11.6-12.7l64.8-37.9c19.8-11.6 26.5-37.2 14.9-57.1-5.6-9.6-14.7-16.5-25.5-19.3s-22-1.3-31.6 4.3c0 0 0 0-.1 0l-62 36.2v-57.2h261.3zm0-301.6h-261.3v-36.5c0-6.9 5.6-12.6 12.6-12.6h236.2c6.9 0 12.6 5.6 12.6 12.6zm-130.6 375c10.1 0 18.2-8.2 18.2-18.2 0-10.1-8.2-18.2-18.2-18.2-10.1 0-18.2 8.2-18.2 18.2-.1 10 8.1 18.2 18.2 18.2zm19-412h-38.1c-6.9 0-12.5 5.6-12.5 12.5s5.6 12.5 12.5 12.5h38.1c6.9 0 12.5-5.6 12.5-12.5s-5.6-12.5-12.5-12.5z"/></svg>