<svg enable-background="new 0 0 78.9 102.8" viewBox="0 0 78.9 102.8" xmlns="http://www.w3.org/2000/svg"><path d="m50.7 77.6c-.5 0-1 0-1.5-.1v6.7l-42.2-.1.2-67.5 42.3.1v6.8h1.5c.7 0 1.3 0 2 .1v-14.6c0-2.3-1.8-4.2-4.1-4.2 0 0 0 0-.1 0l-40.8-.1c-2.3 0-4.2 1.9-4.2 4.1l-.2 85c0 2.3 1.9 4.2 4.2 4.2l40.8.1c2.3 0 4.2-1.9 4.2-4.1v-16.5c-.8 0-1.4.1-2.1.1zm-28.7-67.4h12.4c.3 0 .6.3.6.6s-.3.6-.6.6h-12.4c-.3 0-.6-.3-.6-.6s.2-.6.6-.6zm6.1 84.8c-2.2 0-4-1.8-4-4s1.8-4 4-4 4 1.8 4 4c0 2.3-1.8 4-4 4z"/><path d="m50.7 75c-13.5 0-24.5-11-24.5-24.5s10.9-24.5 24.5-24.5 24.5 11 24.5 24.5-10.9 24.5-24.5 24.5zm0-45.8c-11.8 0-21.3 9.5-21.3 21.3s9.5 21.3 21.3 21.3 21.3-9.5 21.3-21.3c0 0 0 0 0-.1 0-11.6-9.5-21.2-21.3-21.2z"/><path d="m49.8 41-6.8 3.8h-4.7c-1.1 0-1.9.9-1.9 1.9v8.1c0 1.1.9 1.9 1.9 1.9h4.7l6.8 3.8c.9.5 2.1.2 2.5-.7.2-.3.3-.6.3-1v-16.2c0-1.1-.9-1.9-1.9-1.9-.3-.1-.6 0-.9.3z"/><path d="m55.4 56c-.2-.4-.1-.9.2-1.2 2.4-1.9 2.6-5.3.9-7.5-.3-.3-.6-.6-.9-.9-.4-.3-.5-.8-.2-1.2.3-.5.8-.6 1.3-.4 0 0 .1 0 .1.1 3.2 2.5 3.6 7 1.2 10.2-.3.4-.7.8-1.2 1.2-.4.4-1 .4-1.4-.3.1.1 0 .1 0 0z"/></svg>