<svg enable-background="new 0 0 326.5 537" viewBox="0 0 326.5 537" xmlns="http://www.w3.org/2000/svg"><path d="m117.4 465.1-28-10.4c-4.3-1.4-9 .7-10.8 5-1.4 4.3.7 9 5 10.8l28 10.4c1.1.4 1.8.4 2.9.4 3.2 0 6.5-2.2 7.9-5.4 1.5-4.3-.7-9-5-10.8z"/><path d="m174.5 478.1-6.5 2.5c-3.2 1.1-6.8 1.1-10.1 0l-6.5-2.5c-4.3-1.4-9 .7-10.8 5-1.4 4.3.7 9 5 10.8l6.5 2.2c3.6 1.4 7.2 1.8 10.8 1.8s7.5-.7 10.8-1.8l6.5-2.5c4.3-1.4 6.5-6.5 5-10.8-1.7-4-6.4-6.2-10.7-4.7z"/><path d="m69.3 399.4c-4.7 0-8.3 3.6-8.3 8.3v29.8c0 4.7 3.6 8.3 8.3 8.3s8.3-3.6 8.3-8.3v-29.8c.3-4.7-3.6-8.3-8.3-8.3z"/><path d="m69.3 332.6c-4.7 0-8.3 3.6-8.3 8.3v29.8c0 4.7 3.6 8.3 8.3 8.3s8.3-3.6 8.3-8.3v-29.8c.3-4.3-3.6-8.3-8.3-8.3z"/><path d="m256.8 399.1c-4.7 0-8.3 3.6-8.3 8.3v29.8c0 4.7 3.6 8.3 8.3 8.3s8.3-3.6 8.3-8.3v-29.8c-.1-4.4-4-8.3-8.3-8.3z"/><path d="m256.8 332.6c-4.7 0-8.3 3.6-8.3 8.3v29.8c0 4.7 3.6 8.3 8.3 8.3s8.3-3.6 8.3-8.3v-29.8c-.1-4.3-4-8.3-8.3-8.3z"/><path d="m236.7 454.7-28 10.4c-4.3 1.4-6.5 6.5-5 10.8 1.1 3.2 4.3 5.4 7.9 5.4 1.1 0 1.8 0 2.9-.4l28-10.4c4.3-1.4 6.5-6.5 5-10.8s-6.5-6.4-10.8-5z"/><path d="m299.5 196.2h-272.9c-14.8 0-26.6 11.8-26.6 26.5v19.4c0 18.7 8.3 36.3 21.9 48.1v164.1c0 20.8 12.9 39.5 32.7 47l84 31.2c7.9 2.9 16.2 4.3 24.8 4.3 8.3 0 16.5-1.4 24.8-4.3l84-31.2c19.4-7.2 32.3-26.2 32.3-46.7v-164.4c13.7-12.2 21.9-29.5 21.9-48.1v-19.4c-.3-14.7-12.2-26.5-26.9-26.5zm-11.5 258.5h-.4c0 14-8.6 26.2-21.5 31.2l-84 31.2c-12.2 4.7-25.5 4.7-37.7 0l-84-31.2c-12.9-5-21.5-17.2-21.5-31.2v-153.7c1.1.7 2.5 1.1 3.6 1.8l18.6 7 29 10.8 42.8 16c8.6 3.2 17.8 5 27 5.3 1.2 0 2.3.1 3.5.1 10.4 0 20.5-1.8 30.5-5.4l43.4-16.2 47.1-17.6c1.4-.3 2.5-1.1 3.6-1.8zm21.9-212.6h-.7c0 20.1-12.6 38.1-31.2 45.2l-34.5 12.9-56 20.9c-15.8 5.8-33.4 5.8-49.2 0l-85.6-32-4.6-1.7c-18.7-7.2-31.2-25.1-31.2-45.2v-19.4c0-5.4 4.3-10.1 10-10.1h272.9c5.4 0 10 4.3 10 10.1v19.3z"/><path d="m163 232.8c-18.7 0-33.8 15.1-33.8 33.8s15.1 33.8 33.8 33.8 33.8-15.1 33.8-33.8-15.1-33.8-33.8-33.8zm0 50.6c-9.3 0-16.9-7.5-16.9-16.9 0-9.3 7.5-16.9 16.9-16.9 9.3 0 16.9 7.5 16.9 16.9s-7.5 16.9-16.9 16.9z"/><path d="m280.1 41.5-132.7-40.5c-12.6-3.8-25.8 3.2-29.6 15.8l-53 173.9h19.1l39.1-128.4 143.2 43.7-25.8 84.8h19.1l36.5-119.6c3.7-12.7-3.3-25.9-15.9-29.7zm-61.8 21.2c-1.5 4.9-6.5 7.5-11.4 6.1l-14-4.2c-4.9-1.5-7.6-6.5-6.1-11.4s6.5-7.6 11.4-6.1l14 4.2c4.9 1.5 7.6 6.5 6.1 11.4zm24.7 17.3c-5.4 0-9.8-4.4-9.8-9.8s4.4-9.8 9.8-9.8 9.8 4.4 9.8 9.8-4.4 9.8-9.8 9.8z"/></svg>