<svg enable-background="new 0 0 1012.6 907.6" viewBox="0 0 1012.6 907.6" xmlns="http://www.w3.org/2000/svg">
    <path d="m221.4 148.8c-.6 0-1.2.2-1.9.7-7.4 4.5-15.3 8.8-19.7 16.5-2.7 4.9-6.3 6.9-11.2 8.5-30.6 10.1-57.6 26.6-82.1 47.4-45.8 39-77.2 87.3-93.8 145-13.1 45.4-14.8 91.5-7.3 138 5.3 32.6 14.5 64.2 27.3 94.7 1.2 2.9 1.4 5.7.9 8.7-5 30.8-8.5 61.6-4.8 92.9 2.9 24.2 10.2 46.5 27.7 64.3 2.3 2.4 1.7 3.3-.8 4.5-14.4 7-26.4 17.2-37.3 28.8-5.8 6.2-11.4 12.7-15.6 20.2 6.5-5.5 12.5-11.4 18.9-16.9 12.7-11.1 26.3-21 42.6-26.3 1-.4 1.9-.6 2.8-.6s1.8.2 2.8.9c19.1 12.3 40.6 16.9 62.8 19.3 10.8 1.2 21.5 1.6 32.3 1.6 18.5 0 37-1.4 55.5-3 30.3-2.7 60.4-7.3 90.5-11.8 4.5-.7 9.1-.9 13.7-3.2-1.4-.7-2.6-.9-3.7-.9-.9 0-1.7.1-2.6.1-35.3-.2-70.7.1-106-.4-24.6-.3-49.3-.3-73.7-4.8-22.4-4.2-42.2-13-56.7-31.5-9-11.5-15.2-24.5-21-37.8-1.8-4.3-1.1-7.3 1.7-10.8 16.4-20.6 36.9-36 60.8-46.8 30.1-13.7 62.2-19.3 94.9-21.5 24.5-1.7 49-2.1 73.4-3.3 6.9-.3 13.8-1.6 20.5-3.9 8.9-3.1 11.7-8.6 8.5-17.5-1.9-5.2-5-9.8-8.3-14.2-9.9-13-21.9-24.1-32-37-8.2-10.5-15.7-21.4-18.9-34.8-1.1-4.6.3-6.4 4.6-8 37.1-13.7 70.4-34 99.9-60.3 3-2.7 5.7-5.3 9.9-5.3.5 0 1.1 0 1.7.1h.4c1.4 0 3-.8 4.3-1.5 18.5-10.3 31.1-25.7 38.8-45.3 1-2.6.4-4.5-1.4-6.7-14.6-17.9-30.1-35.2-43.6-54-1.3-1.8-2.4-2.6-3.7-2.6-.9 0-1.9.4-3.1 1-9.7 4.8-19.5 9.5-29.2 14.2-26 12.6-52.5 24.4-77.8 38.6-8.5 4.7-16.7 10-25.3 16.9.7-1.8.9-2.4 1.3-2.8 5.9-18.4 16.4-34.4 27.8-49.9 11.1-15 23-29.4 31.3-46.3 11.2-22.9 9.2-45.2-3.4-66.8-9.9-16.8-23.2-30.8-37.2-44.2-12.8-12.1-26.9-23.2-33.5-40.4-.5-1.3-1.1-1.8-2-1.8zm-168.4 528c-1.8-2.4-2.2-4.9-2.9-7.4-5.5-20.3-9.8-40.8-14-61.3-7.9-38.1-12.4-76.6-11.7-115.5 1-54.4 11.1-106.9 32.7-156.9 21.1-48.9 50.6-91.8 91.3-126.5 13.7-11.7 28.2-22.3 44.2-30.8 1-.5 1.8-.9 2.4-.9.8 0 1.4.7 2 2.5 3.3 9.9 11.8 15.4 19.7 21.2 12.6 9.4 26.3 17.1 38 27.6 13.4 11.9 23.8 25.6 26.6 43.9 2.5 15.8-.8 30.7-6.8 45.3-8.3 20.2-20.3 38.2-31.8 56.5-10 15.9-20.3 31.6-27 49.4-2.3 5.9-3.8 11.9-4.5 18.7 5.5-1.7 9.4-5.2 13.7-7.9 35.8-22.3 71.7-44.3 106.8-67.6 8.9-5.9 17.7-12 26.2-18.3 1.3-1 2.4-1.5 3.3-1.5 1.2 0 2.2.8 3.5 2.3 11.6 13.4 23.2 26.7 35 39.8 2.2 2.4.8 3.7-.6 5.4-8.1 9.8-17 19.1-22.4 30.6-5.4 11.3-15.6 17.1-24.8 23.9-28.5 21.2-59.8 36.7-94.7 44.2-9.9 2.1-19.9 3.4-29.9 3.4-8.7 0-17.4-.9-26.1-3.1-27.8-6.9-45.9-24.6-55-51.5-7.5-22.3-8.1-45.4-5.6-68.6 4.2-39.7 15.5-77.5 29.5-114.7.6-1.8 1.2-3.7 1.8-5.5-6.6 9.9-11.4 20.5-16.3 31.2-11.3 24.9-21.5 50.2-29.3 76.4-7.5 25-12.9 50.4-12.5 76.6.3 17.4 3.2 34.5 12.7 49.7 11.3 18.2 28.3 27.4 48.9 31.3 6.9 1.3 13.7 1.9 20.5 1.9 13.6 0 27-2.2 40.4-5.1.9-.2 1.7-.3 2.3-.3 1.3 0 2.1.7 2.5 2.9 3.2 20.1 13.5 36.6 26.5 51.7 4.9 5.8 10.6 11.1 14 18.1 3.8 7.9 1.8 12.8-6.4 16.1-6.3 2.5-12.9 3.5-19.5 4-18.6 1.4-37.2 2.2-55.8 3.2-30.5 1.6-60.8 4.3-89.8 14.8-24.4 8.8-45.7 23.5-57.1 50.8z" fill="none" stroke="#015758" stroke-width="8"/>
    <path d="m808.6 273.8c-1.2 0-1.8.7-2 1.8-1.3 8.8-2.5 17.7-3.8 26.5 3.3-5.3 3.4-11.4 5.7-17.2 1.8 8.2 1 16.2 1.6 24.2 1 13.8 1.6 27.6 2.4 41.4.1 1.9 0 3.6-2.5 4.1-.6.1-1 .2-1.5.2-2.8 0-2.8-2.2-2.8-4.8v-38.2c-.9 13-2.6 25.9-2.2 38.9.1 2.1.2 3.9-2.8 4.3-7.6 1-7.6 1.1-4.8 8.6.3.8.6 1.5.9 2.3 4.5 10.5 6.5 21.4 5.8 33-1.1 17.6-1.4 35.3-1.9 52.9-.1 3.1-1 4.5-4 4.5-.1 0-.2 0-.3 0s-.2 0-.3 0c-2.9 0-3.4 1.5-2 4.1 1.4 2.7 2.3 5.6 3.9 8.1 3.1 5 2.1 10.1 1.4 15.3-1.8-.1-2.7-1.2-3.7-2-13.7-11.2-29.1-19.1-46.1-24.2-10.6-3.2-21.3-5.2-32.3-6.1-1.8-.2-4.8.5-5.1-2-.8-6-3.7-12.3 1.1-18.1 2.5-3 2.3-6.9-.4-9.1-4.8-3.9-4-9.1-4.9-14-.6-3.5.4-5.9 3.4-8.1 8.3-6.1 11.7-14.6 10.5-24.9-1.1-9.1-8.2-18.9-15.4-20.6 10.5 18.9 5.6 42-28.2 45.7 0 1.7 1.5 2.1 2.6 2.6 4.3 2.1 8.8 3.1 13.5 3.2h1.4c1.2 0 2.4.2 2.1 1.6-.7 4.6 1.5 9.7-3.2 13.5-3 2.4-3.7 6.6-1.3 9.5 4.4 5.3 3.1 10.9 2.6 16.6-.2 3.1-1.5 4.2-4.6 4.5-23.5 2-45.3 9.1-65 22.1-19.3 12.7-33.9 29.4-41.6 51.5-3 8.5-4.4 17.3-4.3 27.3-9.8-8.2-20.2-12.6-32-13.2-1-.1-2.1-.1-3.1-.1-10.6 0-20.6 2.9-29.5 9.2-13.4 9.4-20.4 22.3-20.8 38.7.9-.8 1.5-1.7 1.8-2.8 5.6-21.5 26-36.1 48-36.1 7.2 0 14.6 1.6 21.7 5 15.1 7.3 25.6 18.8 26.9 36.7.7 9.3 4 13 12.7 13h1.1c25.5-.8 51-1.7 76.4-3 36.1-1.8 72.2-4 108.3-5.8 2.4-.1 5.3-1.3 7.7-1.3 1.4 0 2.6.4 3.5 1.6 2 2.8 1.1 7.7 1.2 11.7.6 35.8.1 71.7 1 107.5.5 19 .3 38 .4 57 0 2 .8 4.8-2.6 5-11 .7-21.9 1.4-32.9 2.1-.2 0-.3 0-.4 0-2.3 0-2.1-1.5-2.1-3.5.5-31.7.9-63.3 1.1-95 0-5.3-1.2-10.5-4-15.3-8.9-15.3-22.4-24.7-38.8-30.4-3.5-1.2-7-1.8-10.7-1.8-2.3 0-4.6.3-7 .8-17.6 4.1-30.9 14.3-40.9 29-1.6 2.3-2.8 4.8-2.7 7.9 1 34.9-2.6 69.9 0 104.9.2 2.1-1.3 5.4 1.8 5.9h.4c2.4 0 3.7-2.6 4.6-4.9.6-1.6 1.2-3.1 1.7-4.7 2.2-7.9 3.1-16 3.9-24.1 2-20.3 2.7-40.8 5.8-61.1 2.3-15.4 11.2-24.3 24.9-29.5 4.7-1.8 9.2-2.5 13.8-2.5 8.2 0 16.1 2.5 23.9 6 4 1.8 6.3 4.5 7.4 8.7 2.5 9.3 3.8 18.9 4.7 28.5 2.3 25.2 3.9 50.4 6.4 75.6.5 5.6-1.7 6.1-5.8 6.3-13.2.8-26.3 1.7-39.4 2.6-23 1.5-45.9 3.1-68.8 4.7-6 .4-12.1.9-18.1 1.3 2.5 1 4.9 1 7.4 1 58-.1 116 .1 174-.7 4.6 0 4.7-2.1 4.6-5.5-1-39.8-1.9-79.6-2.8-119.4-.3-13.2-.7-26.3-1-39.5 0-1.7-1.1-4.1 2.5-4.2 23.3-.6 46.5-3.2 69.7-4.9 8.6-.7 17.1-1.5 25.6-2.3-.6-.8-1.2-1.1-1.8-1.1-18.6-.6-37.2-1.4-55.8-1.4-9.7 0-19.4.2-29.1.8-2.4.1-4.3.3-5.8.3-5.3 0-5.4-1.6-6.1-10.3-.6-8.1-.6-8.1-8.9-8.3-20.6-.6-41.3-1.2-61.9-1.8-47.3-1.4-94.6-2.9-141.9-4.2-2.9 0-4.4-.6-4.9-3.9-1.4-9.6-5.2-18.2-11.8-25.4-2-2.3-1.9-4.6-1.1-7.4 8-29.3 26.8-50.1 53.1-63.1 23.5-11.7 46.8-17.6 69.9-17.6 27.8 0 55.1 8.6 81.8 26.1 16.9 11.1 29 26.8 36.6 45.7 1.8 4.3 2 7.7-1.7 11.7-7.7 8.4-11.3 18.8-10.9 30.5 3.6-12.5 10-23 20.9-30.6 8.7-6.1 18.3-8.9 28.3-8.9 2.7 0 5.5.2 8.3.6 17.7 2.7 36.6 14.1 42.3 42.6 1-.9.7-2.1.6-3 .3-16.9-7-30.2-20.4-39.6-9.4-6.6-19.2-9.7-29.3-9.7-7.8 0-15.8 1.9-23.8 5.4-1.3.6-2.2.9-2.9.9-1.2 0-1.6-1-1.7-3.5-.3-6.6-1.1-13.3-1.6-19.9-1.4-16.9-4.6-33.8 4-49.9 1.2-2.1 1.5-4.7 2.5-7 1.4-3.2.4-4.5-2.2-4.5-.4 0-.8 0-1.3.1-.3 0-.7 0-1 0s-.7 0-1 .1c-.9.2-1.7.3-2.4.3-3.1 0-3.8-2.4-4-6.1-1-14.8-2.5-29.5-3.7-44.3-.5-6.6-2.5-13.9-.6-19.8 2.5-7.9 4.5-16 7.2-23.8 2.4-6.9 2.5-7.8-3.2-7.8-.8 0-1.7 0-2.6 0-3.6 0-5.1-.9-5.2-4.7-.2-7-1.2-13.9-1.6-20.9-.5-8.3-1.8-16.7-1-24.9.9-9.9-3.3-18.5-4.7-27.7-.2-1.5-1.5-2.1-3-2.1zm2.6 182.7c-5.3 0-5.3-2-5.3-11v-77.4c.1-2.5-.8-5.6 3.4-5.6h.2.4c3.3 0 5.9.1 6.3 4.9 1.5 17.8 2 35.5 2.9 53.3.3 6.4.6 12.9.9 19.4h-.3c.2 4.2.4 8.3.7 12.6.1 2.2-.5 3.2-3 3.4-2.6.2-4.6.4-6.2.4zm11.1 56.8c-4.4-7.1-8.9-13.9-14.4-20-.6-.6-1.3-1.3-1.4-2-1.1-8.5-.6-16.9-.3-25.4 0-1.1.9-1.8 2-1.9h1.5c1.7-.1 3.1-.1 4.3-.1 6 0 6.2 1.4 7 10 .3 2.5.5 5 .6 7.5.2 10.6.2 21.3.7 31.9z" fill="none" stroke="#015758" stroke-width="8"/>
    <path d="m713.9 817c-11.8 0-23.6.2-35.4.6-29.5 1-58.8 3.8-88 7.8-32.2 4.4-63.7 12.1-95 20.7-30.2 8.2-60.7 15-91.5 20.4-30.5 5.3-61.1 9.2-91.9 12.6-36.4 4-73 6-109.6 7.3-19.7.7-39.5 1.2-59.2 1.2-20.7 0-41.5-.5-62.2-2-15.6-1.1-31.2-2.2-46.6-5-11.8-2.1-23.5-4.7-34.6-9.7 7.2 6 15.6 9.4 24.3 12.2 22.4 7.1 45.4 11.1 68.7 14.4 29.7 4.2 59.5 7.2 89.4 8.5 20.2.9 40.4 1.4 60.7 1.4 22.1 0 44.2-.6 66.2-2 31.5-2 62.7-5.8 93.7-10.9 42.2-7 83.6-17.9 125.2-27.5 33.8-7.8 67.9-14.5 102.4-19.1 37.9-5 76-7 114.1-7.4 4.8 0 9.7-.1 14.5-.1 47.5 0 94.9 2.2 142.2 6.8 33.4 3.2 66.8 7 99.8 13.7 3.8.8 7.7 1.5 11.5 2.2-2.9-3.5-7-4.6-11-6.1-34.3-10.9-69.5-18.3-104.9-24.3-25.7-4.3-51.6-7.7-77.6-10.3-22.5-2.2-45.1-3.8-67.7-4.7-12.5-.5-25-.7-37.5-.7z" fill="none" stroke="#015758" stroke-width="8"/>
    <path d="m330.9 214.6c1.9 2.3 4 4.5 6.3 6.6 4.6 4.2 9.2 7.4 12.8 9.8l.1.1.1.1c.9.6 1.6 1 2.1 1.4-1.9 2.2-4.1 4.1-6.5 5.9-4.3-3.1-7.6-7-10.2-12-2-3.9-3.5-7.8-4.7-11.9m47.6-214.6c-29.4 0-57 17.2-68.7 44.2-7.2 16.4-13.6 33.2-21.4 49.4-5.3 10.9-9 22.7-18.1 31.4-6.1 5.9-12.1 11.9-18.1 17.9-5.3 5.3-11.3 9.8-16.4 16.1.4.1.7.1 1 .1 1.9 0 2.9-.9 4.1-1.8 10.5-7.1 21.3-13.8 31.4-21.3 3.9-2.9 7.8-4.2 12-4.2 1.9 0 3.8.3 5.8.8 1.4.4 2.8.5 4.1.5 4.5 0 8.3-2.1 11.6-5.6 5.8-6.2 10.6-13.3 14.9-20.6 2.2-3.7 5-6.7 8.7-8.8 2.3-1.3 4.7-1.9 6.9-1.9 6.5 0 12.1 5 12.7 12.6.5 6.9-1.9 12.7-5.3 18.4-6.6 10.9-16 19.2-24.7 28.1-11.6 11.9-20.6 25.1-19.8 42.6.6 14.7 3.9 28.7 10.6 41.8 5.2 10 12.4 18.1 21.9 24.2 4.8 3.1 9.6 4.8 14.4 4.8 4 0 8.1-1.2 12.3-3.8 11.4-7.2 20.2-16.9 26.1-29 1-2 1.8-3 2.8-3 .7 0 1.6.5 2.7 1.5.8.7 1.7 1.2 2.5 1.7 4.8 3.1 9 4.6 12.6 4.6 6.6 0 11.4-5 14.3-14.9 2.8-9.6 4-19.5 5.5-29.4.4-2.8 1.3-4.4 4.6-4.6 6.7-.4 11.7-4.1 16-9.1 6.6-7.7 10.6-16.8 13.7-26.4.7-2.5 1.7-4.1 4.4-4.1h.7c.4 0 .9.1 1.3.1 1.7 0 3.4-.4 4-2.1 1.9-4.9 4.7-9.8 4.3-15.8-3.5 1.3-6.7 1.8-10 1.8-.7 0-1.4 0-2.1-.1-8.4-.4-16-3.3-23.5-6.5-24.8-10.6-47.3-25.1-69-40.9-13.9-10.1-27.9-20.1-39.3-33.1-12.6-14.4-9.8-28.1 7.3-36.8.8-.5 1.8-.8 2.7-1.2 9.8-3.7 19.8-5.4 30-5.4 4.9 0 9.7.4 14.7 1.1 41.1 6 70.3 27.5 85.9 66.4 1.5 3.7 2.7 7.5 4.3 11.8.6-1 .8-1.2.9-1.5.1-.5.1-1 .1-1.5-.9-22.2-8.8-41.5-24.3-57.5-18.1-18.7-40.7-28.5-66.5-30.7-2.2-.2-4.4-.3-6.6-.3zm19.1 229c-2.2 0-4.7-.6-7.4-1.7-4.4-1.8-8.4-4.1-11.2-8.5-3.3-5.1-8-8.8-13.1-12.1-3.2-2.1-6.3-4.3-9.1-6.9-9.3-8.4-11.4-19.1-5.8-30.3 6.8-13.7 16.4-25.4 27.4-35.9 4.7-4.4 10-6.6 15.6-6.6 4.1 0 8.3 1.2 12.5 3.4 8.4 4.4 15.7 10.6 24.6 14.3 6.7 2.8 13.4 5.1 20.4 6.6 1.7.4 3.7.3 2.3 2.9-5.8 10.6-11.8 21-22.6 27.4-4.2 2.5-8.4 3.7-12.5 3.7-5 0-9.8-1.8-14.6-5.2-1.5-1.1-2.9-2.1-4.4-3.2 1.5 8 6 13.2 13.6 14.6 3.9.8 4.2 2.3 3.2 5.6-2.2 7.5-3.6 15.3-6.9 22.4-2.9 6.4-6.8 9.5-12 9.5z" fill="none" stroke="#015758" stroke-width="8"/>
    <path d="m312.3 654.7c-.9 0-1.8 0-2.7 0 .3.4.4.8.6.9.6.3 1.3.4 1.9.6 49.2 11.8 94.4 32.3 134.3 63.6 14.8 11.6 28.1 24.9 36.9 42.1 4.8 9.3 8.5 19 7.1 29.6-1.9 14-11.8 21.9-23.2 28.2-13.3 7.3-27.7 11.3-42.4 14.4-35.5 7.6-71.6 9.9-107.7 10.7-9.9.2-19.9.3-29.8.3-50.8 0-101.6-2.8-152.3-6.9-25.3-2.1-50.7-4.4-76-7-3-.3-6-1-9-1-1.4 0-2.8.2-4.3.6 9 1.8 17.9 3.5 26.9 4.7 22.7 3.1 45.5 5.9 68.3 8.4 30.7 3.3 61.4 5.6 92.1 7.3 21.9 1.2 43.8 1.7 65.7 1.7 6.2 0 12.5 0 18.7-.1 35-.5 69.9-2.4 104.4-8.4 25.2-4.4 50-10.1 72.1-23.7 17.5-10.7 28.9-25.3 27.2-47-1.1-14.7-7.1-27.7-15.5-39.5-17.8-24.9-42.7-40.2-70-52.2-25.2-11.2-51.7-18.2-78.9-22.7-14.7-2.4-29.4-4.6-44.4-4.6z" fill="none" stroke="#015758" stroke-width="8"/>
    <path d="m321.8 613.5c2.7 2.3 4.9 2.3 6.9 2.9 8.8 1.8 17.6 3.5 26.4 5.4 29.6 6.5 58.8 14.4 86.5 27.1 37.8 17.3 68.4 42.6 88.2 79.9 2.9 5.4 5.7 11 9 17.4.5-1.9.9-2.9.9-3.8.1-2.8.2-5.7.1-8.5-1.4-28.3-14.7-50.4-36.1-68-28.4-23.3-62.1-34.7-97.3-42.8-16.8-3.9-34-6.2-51.2-7.9-10.8-1.1-21.6-1.5-33.4-1.7z" fill="none" stroke="#015758" stroke-width="8"/>
    <path d="m913.7 613.7c-2.8 3.9-5.1 7.6-5.1 12.9 0 48.9-.3 97.7-.4 146.5 0 4-.7 5.9-5.3 6.2-14.1.9-28.2 2.4-42.3 3.8-8.9.9-17.9 1.1-26.9 3.4.5.4.6.5.9.5l84.3 3.9h.4c2.1 0 3.1-.8 3-3.1s-.1-4.7-.2-7c-1.3-27.4-2.5-54.8-3.7-82.3-1.1-27-2.1-53.9-3.2-80.9 0-1.2.3-2.7-1.5-3.9z" fill="none" stroke="#015758" stroke-width="8"/>
    <path d="m608.8 619.8c-3.6 3.6-5.3 6.9-5.3 11.4 0 27.9-.3 55.9-.4 83.9-.1 17.2-.1 34.3-.2 51.5 0 2.5.2 5-3.5 5.3-15.4 1.3-30.8 2.7-46.2 4.2-5.7.5-11.6.5-17.2 2-.1.6-.1 1.2 0 1.9 4.7 0 9.5-.1 14.3-.1 2.4 0 4.8 0 7.1.1 18 .7 35.9 1.6 53.9 2.5h.7c3.3 0 4.1-1.5 3.8-5-.7-9.8-1.1-19.6-1.5-29.4-1.4-36.6-2.8-73.2-4.2-109.8-.2-5.9-.8-11.8-1.3-18.5z" fill="none" stroke="#015758" stroke-width="8"/>
    <path d="m561 266.3c-.5.3-.7.3-.6.5-.1.5-.3.9-.4 1.4-4 25.1-15.6 46-35 62.5-18.3 15.6-39.9 24.9-62.6 31.9-1.9.6-4.2.6-5.8 3.1 4.9.9 9.8 1.3 14.5 1.3 14.4 0 27.6-4.1 39.8-12.3 27.6-18.5 43.7-44.9 50.1-77.3.7-3.5 1.5-7.3 0-11.1z" fill="none" stroke="#015758" stroke-width="8"/>
    <path d="m864.6 700.4c-6.1 0-12.3 2.9-18.8 8.9-2.9 2.7-5.8 5.8-5.9 10.1-.1 15.1-.3 30.3-.2 45.4 0 2.4-1.1 6.9 1.5 6.9 3.5 0 3.3-4.6 4.1-7.5v-.5c1.7-10.2 2-20.6 3.1-30.8.8-7.4 1.5-14.9 9.5-19 3.4-1.7 6.7-2.5 10-2.5 4 0 8 1.2 11.9 3.2 2.7 1.4 4 4 3.9 7-.2 13.1 2.5 25.8 3.1 38.8.1 3.8.4 7.7 1.9 11.4 1.7-.6 1.4-1.7 1.5-2.6.1-15.8.2-31.6.2-47.4 0-3.3-1.4-6.2-3.5-8.6-7.3-8.3-14.7-12.8-22.3-12.8z" fill="none" stroke="#015758" stroke-width="8"/>
    <path d="m547.2 269.1c-2.3 0-4.2.8-6 1.5-7.1 2.9-12.4 8.2-17.5 13.7-10.5 11.4-21.7 21.9-36.6 27.7-6.7 2.6-13.8 3.4-20.7 5.7 6.3 2.2 12.7 1.8 19.1 1.9h.4c13.6 0 24.8-5.2 34.4-14.8 10.9-10.9 16.6-25.9 30-35.2-1.1-.3-2.2-.5-3.1-.5z" fill="none" stroke="#015758" stroke-width="8"/>
    <path d="m495.6 281.1c-4.3 3.2-7.5 6.1-11.4 8-9.2 4.6-19.4 4.7-29.1 6.5-17.4 3.2-28.7 17.9-32 38 2.8-4 4.7-7.3 7.1-10.5 7.3-8.8 17.4-13 28.1-16 8.8-2.5 17.9-4 25.9-8.8 6.2-3.7 10.4-8.8 11.4-17.2z" fill="none" stroke="#015758" stroke-width="8"/>
    <path d="m550.1 678.4c-4.5 0-8.5 2-12.1 4.4-3.4 2.2.2 5.8-.3 8.8-.3 2.2 0 3.5 1.1 3.5.6 0 1.6-.4 2.8-1.4 3.8-3 7.8-4.2 12-4.2 3.2 0 6.4.7 9.7 2 4.1 1.6 6.4 4.3 6.3 8.6-.1 9.1 1.4 18.2 2.2 27.3.7 7.3 1.7 14.6 2.6 22.8 2.3-2.5 1.8-4.6 1.8-6.4.2-11.8.1-23.7.3-35.5.3-15.8-7.7-26.1-23-29.5-1.2-.3-2.3-.4-3.4-.4z" fill="none" stroke="#015758" stroke-width="8"/>
    <path d="m571.6 609.2c-.7 0-1.4 0-2.2 0-14.8.5-29.6.6-44.4.9-7.6.2-15.3 0-23 1.9.8.1 1.6.2 2.4.2 14.9 1.3 29.8 2.7 44.7 3.9 14.8 1.1 29.5 2 44.3 3h1.3c3.2 0 5.8-.8 7.5-4.1 1.1-2.3 1.1-4-2-4-9.6-.1-19.1-1.8-28.6-1.8z" fill="none" stroke="#015758" stroke-width="8"/>
    <path d="m630.2 574.5c-10.2 0-20.2 1.2-30.4 1.5-4.2.1-3.7 2.1-2.1 4.8 1.8 3 4.3 3.7 7 3.7 1.4 0 2.8-.2 4.2-.3 29.7-2.4 59.4-4.1 89.1-8-1.1-.1-2.2-.2-3.4-.3-20.1-1.4-40.3-.5-60.4-1.3-1.3 0-2.7-.1-4-.1z" fill="none" stroke="#015758" stroke-width="8" />
    <path d="m810.2 224.1c9.1 19.5.7 33.2-23.3 36.3 4.8 2.9 9.4 4.3 13.8 4.3 4.2 0 8.2-1.3 12.2-3.8 7.4-4.8 10.8-11.8 9.5-20.9-.9-6-6.6-15.6-12.2-15.9z" fill="none" stroke="#015758" stroke-width="8"/></svg>