<svg enable-background="new 0 0 700 700" viewBox="0 0 700 700" xmlns="http://www.w3.org/2000/svg"><path d="m522.3 53.3c0-3.4-2.8-6.2-6.2-6.2-3.5 0-6.2 2.8-6.2 6.2v26.5h-24.4v-26.5c0-3.4-2.8-6.2-6.2-6.2-3.5 0-6.2 2.8-6.2 6.2v26.5h-24.4v-26.5c0-3.4-2.8-6.2-6.2-6.2-3.5 0-6.2 2.8-6.2 6.2v26.5h-24.4v-26.5c0-3.4-2.8-6.2-6.2-6.2-3.5 0-6.2 2.8-6.2 6.2v26.5h-24.4v-26.5c0-3.4-2.8-6.2-6.2-6.2-3.5 0-6.2 2.8-6.2 6.2v26.5h-24.4v-26.5c0-3.4-2.8-6.2-6.2-6.2s-6.2 2.8-6.2 6.2v26.5h-24.4v-26.5c0-3.4-2.8-6.2-6.2-6.2s-6.2 2.8-6.2 6.2v26.5h-24.4v-26.5c0-3.4-2.8-6.2-6.2-6.2s-6.2 2.8-6.2 6.2v26.5h-24.4v-26.5c0-3.4-2.8-6.2-6.2-6.2s-6.2 2.8-6.2 6.2v26.5h-24.4v-26.5c0-3.4-2.8-6.2-6.2-6.2s-6.2 2.8-6.2 6.2v559.4c-.1.4-.2.8-.2 1.2v32.7c0 3.5 2.8 6.2 6.2 6.2s6.2-2.8 6.2-6.2v-26.5h24.4v26.5c0 3.5 2.8 6.2 6.2 6.2s6.2-2.8 6.2-6.2v-26.5h24.4v26.5c0 3.5 2.8 6.2 6.2 6.2s6.2-2.8 6.2-6.2v-26.5h24.4v26.5c0 3.5 2.8 6.2 6.2 6.2s6.2-2.8 6.2-6.2v-26.5h24.4v26.5c0 3.5 2.8 6.2 6.2 6.2s6.2-2.8 6.2-6.2v-26.5h24.4v26.5c0 3.5 2.8 6.2 6.2 6.2 3.5 0 6.2-2.8 6.2-6.2v-26.5h24.4v26.5c0 3.5 2.8 6.2 6.2 6.2 3.5 0 6.2-2.8 6.2-6.2v-26.5h24.4v26.5c0 3.5 2.8 6.2 6.2 6.2 3.5 0 6.2-2.8 6.2-6.2v-26.5h24.4v26.5c0 3.5 2.8 6.2 6.2 6.2s6.2-2.8 6.2-6.2v-26.5h24.4v26.5c0 3.5 2.8 6.2 6.2 6.2s6.2-2.8 6.2-6.2v-559.3c.1-.4.2-.8.2-1.2zm-331.9 39h319.2v515.4h-319.2z"/><path d="m501.4 595.1v-487.1c0-3.4-2.8-6.2-6.2-6.2h-290.4c-3.4 0-6.2 2.8-6.2 6.2v487.1c0 3.5 2.8 6.2 6.2 6.2h290.4c3.4.1 6.2-2.7 6.2-6.2zm-12.5-6.2h-277.9v-474.7h277.9z"/><path d="m229.8 574.8h240.4c3.5 0 6.2-2.8 6.2-6.2v-298.2c0-20.7-21.9-59.5-52.5-63.6-3.2-15-16.9-58.9-71.9-78.1-.3-.1-.5-.1-.8-.1-.4-.1-.8-.2-1.3-.2-.4 0-.8.1-1.3.2-.3.1-.5 0-.8.1-55 19.2-68.8 63.1-71.9 78.1-30.6 4.1-52.5 42.9-52.5 63.6v298.2c.1 3.4 2.9 6.2 6.4 6.2zm51.5-356c.2 0 .3-.1.5-.1.6-.1 1.2-.1 1.8-.4.3-.1.6-.4.9-.5.4-.2.7-.4 1-.7.3-.2.4-.5.7-.8s.5-.6.7-1c.2-.3.2-.7.3-1s.3-.6.3-.9c.2-2.1 6.7-51.3 62.5-72 55.8 20.7 62.2 69.9 62.5 72 0 .4.2.7.3 1s.1.7.3 1c.2.4.5.8.8 1.2.2.2.3.5.6.7.4.3.8.6 1.2.8.2.1.4.3.7.4.7.3 1.5.5 2.3.5 26.2 0 45.3 36.2 45.3 51.5v292h-228v-292c0-15.5 19.1-51.7 45.3-51.7z"/><path clip-rule="evenodd" d="m316.2 216.8c0-6.2 5-11.2 11.2-11.2h45c6.2 0 11.2 5 11.2 11.2v82.5c0 6.2-5 11.2-11.2 11.2h-45c-6.2 0-11.2-5-11.2-11.2zm7.5 78.8v3.8c0 2.1 1.7 3.8 3.8 3.8h45c2.1 0 3.8-1.7 3.8-3.8v-3.8zm52.5-7.5h-52.5v-71.3c0-2.1 1.7-3.8 3.8-3.8h5.2l2.7 5.4c.6 1.3 1.9 2.1 3.4 2.1h22.5c1.4 0 2.7-.8 3.4-2.1l2.7-5.4h5.2c2.1 0 3.8 1.7 3.8 3.8v71.3z" fill-rule="evenodd"/></svg>