<svg enable-background="new 0 0 560.3 560" viewBox="0 0 560.3 560" xmlns="http://www.w3.org/2000/svg"><path clip-rule="evenodd" d="m42 448v84h-28c-7.7 0-14 6.3-14 14s6.3 14 14 14h532c7.7 0 14-6.3 14-14s-6.3-14-14-14h-338.4c1.6-4.5 2.4-9.2 2.4-14 0-11.1-4.4-21.8-12.3-29.7s-18.6-12.3-29.7-12.3h-28v-28h28c3.7 0 7.3-1.5 9.9-4.1s4.1-6.2 4.1-9.9v-42c10.6 0 20.8-3.9 28.6-11.1s12.6-17 13.4-27.6l66.8-143.3h17.2c14.9 0 29.1-5.9 39.6-16.4s16.4-24.7 16.4-39.6v-28h18.5c4.2 8 9.6 15.2 16.1 21.4 13.1 13.1 30.9 20.5 49.4 20.6h56c14.9 0 29.1-5.9 39.6-16.4s16.4-24.7 16.4-39.6v-42c0-14.9-5.9-29.1-16.4-39.6s-24.7-16.4-39.6-16.4h-70c-14.9 0-29.2 5.9-39.8 16.5-3.7 3.6-7.2 7.4-10.4 11.5h-21.7c-3.1-12-10.1-22.7-19.9-30.3-9.7-7.6-21.8-11.7-34.2-11.7h-167c-37.4 0-73.2 14.9-99.7 41.3-26.4 26.4-41.3 62.3-41.3 99.7v293c0 3.7 1.5 7.3 4.1 9.9s6.2 4.1 9.9 4.1zm70 0h-42v84h98c7.7 0 14-6.3 14-14s-6.3-14-14-14h-42c-7.7 0-14-6.3-14-14zm224-392c0-7.4-2.9-14.5-8.2-19.8-5.3-5.2-12.4-8.2-19.8-8.2h-167c-30 0-58.7 11.9-79.9 33.1-21.2 21.1-33.1 49.9-33.1 79.9v279h126v-38.6c-8.9-8-14-19.4-14-31.4v-28c0-12 5.1-23.4 14-31.4v-80.6h-42c-7.7 0-14-6.3-14-14s6.3-14 14-14h106.3l35-75.9c1.6-3.4 4.4-6 7.9-7.3s7.4-1.1 10.7.4c7 3.2 10.1 11.6 6.9 18.6l-77.1 167c6.7 3.5 12.3 8.8 16.2 15.3l77.4-166c1.6-3.4 4.4-6 7.9-7.3s7.4-1.1 10.7.4c7 3.2 10.1 11.6 6.9 18.6l-17 36.2h4.2c7.4 0 14.5-2.9 19.8-8.2 5.2-5.3 8.2-12.4 8.2-19.8zm-154 252c-7.7 0-14 6.3-14 14v28c0 7.7 6.3 14 14 14s14-6.3 14-14v-28c0-3.7-1.5-7.3-4.1-9.9s-6.2-4.1-9.9-4.1zm0-98v50.5l23.4-50.5zm294-168v98h-28c-11.1 0-21.8-4.4-29.7-12.3-5.7-5.3-9.9-11.9-12.3-19.3-1.7-6.3-7.5-10.6-14-10.4h-28v-28h28c5.9 0 11.2-3.7 13.2-9.2 2.3-4.1 5.4-7.6 9.1-10.5 5.2-5.3 12.3-8.3 19.7-8.3zm28 0c7.4.1 14.5 3.1 19.7 8.3 5.3 5.2 8.3 12.3 8.3 19.7v42c0 7.4-2.9 14.5-8.2 19.8-5.3 5.2-12.4 8.2-19.8 8.2z" fill-rule="evenodd"/><path d="m504.4 516.3c.9 0 1.8.1 2.7.2 2.8.6 4.2 2.4 4.2 5.3 0 .8.1 1.6 0 2.4-.3 1.1-.5 2.3-1.2 3-1 1.1-2.4 2.1-3.7 2.7-3.3 1.7-7 2-10.6 2-30.4 0-60.9 0-91.3 0-3 0-6-.2-8.9-1.3-5.2-2-7.2-3.9-6.8-9.3.2-2.1 1-3.7 2.9-4.4 1.2-.5 2.6-.7 4-.7h54.3c18.2.1 36.3.1 54.4.1zm-107.5 3.2c-.3 0-.6 0-.8 0-4.5 0-4.1 1.3-3.8 4.8.1.8 1.2 1.8 2 2.3 2.4 1.5 5.1 1.9 7.8 2.1.8.1 1.6.1 2.4.1h91.3c3.4 0 6.7-.3 9.8-1.9 2.5-1.3 3.4-3.3 2.5-5.9-.2-.6-1.1-1.1-1.8-1.3-.6-.2-1.4-.2-2.1-.2-18 0-36 0-54.1 0-17.8 0-35.5 0-53.2 0z"/><path d="m479 525h9c.6 0 1.4.1 1.4-.8s-.8-.8-1.5-.8c-6 0-11.9 0-17.9 0-.5 0-1.2.2-1.3.5-.4.8.2 1.1 1 1.1z"/><path d="m500.4 524.9c-.1 1.4-1.8 2.6-3.6 2.4-.3 0-.6-.1-.8-.2-1.3-.4-2.1-1.4-2.1-2.5.1-1 1.1-2.1 2.3-2.3.3-.1.6-.1.9-.1 1.8 0 3.3 1.2 3.3 2.7zm-5.9-.2c0 1.1 1.2 2.1 2.7 2 1.4 0 2.6-.9 2.6-2s-1.1-2.1-2.6-2.1c-1.5.1-2.7 1-2.7 2.1z"/><path d="m556.9 419c-19.3-19.3-45-30-72.4-30s-53.1 10.7-72.4 30c-4.5 4.5-4.5 11.5 0 16 2.2 2.2 5.1 3.4 8 3.4s5.7-1.1 8-3.4c15-15.2 35.1-23.5 56.5-23.5s41.4 8.3 56.4 23.5c4.5 4.5 11.5 4.5 16 0 4.4-4.5 4.4-11.7-.1-16z"/><path d="m442 449.2c-4.5 4.5-4.5 11.5 0 16 2.2 2.2 5.1 3.4 8 3.4s5.7-1.1 8-3.4c14.7-14.7 38.5-14.7 53-.2 4.3 4.5 11.5 4.5 16 0s4.5-11.5 0-16c-23.5-23.3-61.5-23.3-85 .2z"/><path d="m507 483c-12.5-12.4-32.7-12.3-45.1.1-3.5 3.5-3.5 9 0 12.5 1.7 1.7 3.9 2.6 6.3 2.6 2.3 0 4.6-.9 6.3-2.6 5.6-5.6 14.6-5.6 20.1-.1 1.6 1.7 3.8 2.6 6.2 2.7 2.4 0 4.7-.9 6.4-2.6s2.6-3.9 2.6-6.3c-.1-2.3-1.1-4.6-2.8-6.3z"/></svg>