<svg enable-background="new 0 0 90 90" viewBox="0 0 90 90" xmlns="http://www.w3.org/2000/svg"><path d="m34.8 71.6h-.4l.4-.4z"/><path d="m34.8 70.4-1.3 1.2h-.4l1.7-1.6z"/><path d="m34.8 69.1-2.5 2.5h-.4l2.9-2.9z"/><path d="m34.8 67.9-3.8 3.7h-.4l4.2-4.1z"/><path d="m34.8 66.7-5 4.9h-.4l5.5-5.3v.4z"/><path d="m34.8 65.5-6.3 6.1h-.4l6.7-6.5z"/><path d="m34.8 64.2-7.6 7.4h-.4l8-7.8z"/><path d="m34.8 63-8.8 8.6h-.4l9.2-9z"/><path d="m34.8 61.8-10.1 9.8h-.4l10.5-10.2z"/><path d="m34.8 60.5-11.3 11h-.5l11.7-11.5v.5z"/><path d="m34.8 59.3-12.6 12.3h-.4l13-12.7z"/><path d="m34.8 58.1-13.9 13.5h-.4l14.3-13.9z"/><path d="m34.8 56.9-15.1 14.7h-.4l15.5-15.1z"/><path d="m34.8 55.6-16.4 16v-.4l16.4-16z"/><path d="m33.9 55.2-15.5 15.2v-.4l15.1-14.7h.4z"/><path d="m32.7 55.2-14.3 13.9v-.4l13.8-13.5z"/><path d="m31.4 55.2-13 12.7v-.4l12.6-12.3z"/><path d="m30.2 55.2-11.8 11.5v-.4l11.3-11h.5z"/><path d="m28.9 55.2-10.5 10.3v-.5l10.1-9.8z"/><path d="m27.6 55.2-9.2 9v-.4l8.8-8.6z"/><path d="m26.4 55.2-8 7.8v-.4l7.6-7.4z"/><path d="m25.1 55.2-6.7 6.5v-.4l6.3-6.1z"/><path d="m23.9 55.2-5.5 5.3v-.4l5-4.9z"/><path d="m22.6 55.2-4.2 4.1v-.4l3.8-3.7z"/><path d="m21.3 55.2-2.9 2.9v-.4l2.5-2.5z"/><path d="m20.1 55.2-1.7 1.6v-.4l1.3-1.2z"/><path d="m18.8 55.2-.4.4v-.4z"/><path d="m34.8 53.2h-.9l.9-.8z"/><path d="m34.8 51.9-1.3 1.3h-.9l2.1-2.1c.1 0 .1.8.1.8z"/><path d="m34.8 50.7-2.6 2.5h-.9l3.4-3.4v.9z"/><path d="m34.8 49.4-3.9 3.8h-.9l4.7-4.6v.8z"/><path d="m34.8 48.1-5.2 5h-.9l6-5.9c.1.1.1.9.1.9z"/><path d="m34.8 46.9-6.5 6.3h-.9l7.3-7.1v.8z"/><path d="m34.8 45.6-7.8 7.6h-.9l8.6-8.4v.8z"/><path d="m34.8 44.4-9 8.8h-.9l9.9-9.7z"/><path d="m34.8 43.1-10.4 10.1h-.9l11.2-10.9v.8z"/><path d="m34.8 41.8-11.7 11.4h-.9l12.6-12.2z"/><path d="m34.8 40.6-12.9 12.6h-.9l13.8-13.4z"/><path d="m34.8 39.3-14.2 13.9h-.9l15.1-14.7z"/><path d="m34.8 38.1-15.5 15.1h-.9l16.4-15.9z"/><path d="m34.8 36.8-16.4 16v-.8l15.5-15.1h.9z"/><path d="m33.5 36.8-15.1 14.7v-.8l14.2-13.8h.9z"/><path d="m32.2 36.8-13.8 13.4v-.8l12.9-12.6z"/><path d="m30.9 36.8-12.5 12.2v-.8l11.6-11.4z"/><path d="m29.6 36.8-11.2 10.9v-.8l10.3-10.1z"/><path d="m28.3 36.8-9.9 9.7v-.8l9-8.8c0-.1.9-.1.9-.1z"/><path d="m27 36.8-8.6 8.4v-.8l7.8-7.6z"/><path d="m25.7 36.8-7.3 7.2v-.8l6.5-6.3h.8z"/><path d="m24.4 36.8-6 5.9v-.8l5.2-5h.8z"/><path d="m23.1 36.8-4.7 4.6v-.8l3.9-3.8z"/><path d="m21.9 36.8-3.4 3.4v-.8l2.6-2.5h.8z"/><path d="m20.6 36.8-2.2 2.1v-.8l1.3-1.3z"/><path d="m19.3 36.8-.9.8v-.8z"/><path d="m71.6 34.8h-.4l.4-.4z"/><path d="m71.6 33.5-1.3 1.2h-.4l1.7-1.6z"/><path d="m71.6 32.3-2.5 2.5h-.4l2.9-2.9z"/><path d="m71.6 31.1-3.8 3.7h-.4l4.2-4.1z"/><path d="m71.6 29.9-5 4.9h-.4l5.5-5.3v.4z"/><path d="m71.6 28.6-6.3 6.1h-.4l6.7-6.5z"/><path d="m71.6 27.4-7.6 7.4h-.4l8-7.8z"/><path d="m71.6 26.2-8.8 8.6h-.4l9.2-9z"/><path d="m71.6 25-10.1 9.8h-.4l10.5-10.2z"/><path d="m71.6 23.7-11.3 11h-.4l11.7-11.5z"/><path d="m71.6 22.5-12.6 12.3h-.4l13-12.7z"/><path d="m71.6 21.3-13.9 13.5h-.4l14.3-13.9z"/><path d="m71.6 20-15.1 14.8h-.4l15.5-15.1z"/><path d="m71.6 18.8-16.4 16v-.4l16.4-16z"/><path d="m70.8 18.4-15.6 15.1v-.4l15.1-14.7z"/><path d="m69.5 18.4-14.3 13.9v-.4l13.8-13.5z"/><path d="m68.2 18.4-13 12.7v-.4l12.6-12.3z"/><path d="m67 18.4-11.8 11.5v-.4l11.3-11z"/><path d="m65.7 18.4-10.5 10.2v-.4l10.1-9.8z"/><path d="m64.5 18.4-9.2 9v-.4l8.8-8.6z"/><path d="m63.2 18.4-8 7.8v-.4l7.6-7.4z"/><path d="m61.9 18.4-6.7 6.6v-.4l6.3-6.1z"/><path d="m60.7 18.4-5.5 5.3v-.4l5-4.9z"/><path d="m59.4 18.4-4.2 4.1v-.4l3.8-3.7z"/><path d="m58.2 18.4-2.9 2.9v-.4l2.5-2.5z"/><path d="m56.9 18.4-1.7 1.6v-.4l1.3-1.2z"/><path d="m55.6 18.4-.4.4v-.4z"/><path d="m71.6 53.2h-.9l.9-.8z"/><path d="m71.6 51.9-1.3 1.3h-.9l2.1-2.1c.1 0 .1.8.1.8z"/><path d="m71.6 50.7-2.6 2.5h-.9l3.4-3.4c.1 0 .1.9.1.9z"/><path d="m71.6 49.4-3.9 3.8h-.9l4.7-4.6v.8z"/><path d="m71.6 48.1-5.2 5h-.9l6-5.9c.1.1.1.9.1.9z"/><path d="m71.6 46.9-6.5 6.3h-.9l7.3-7.1v.8z"/><path d="m71.6 45.6-7.8 7.6h-.8l8.6-8.4z"/><path d="m71.6 44.4-9 8.8h-.9l9.9-9.7z"/><path d="m71.6 43.1-10.3 10.1h-.9l11.2-10.9z"/><path d="m71.6 41.8-11.6 11.4h-.9l12.5-12.2z"/><path d="m71.6 40.6-12.9 12.6h-.9l13.8-13.4z"/><path d="m71.6 39.3-14.2 13.9h-.9l15.1-14.7z"/><path d="m71.6 38.1-15.5 15.1h-.9l16.4-15.9z"/><path d="m71.6 36.8-16.4 16v-.8l15.5-15.1h.9z"/><path d="m70.3 36.8-15.1 14.7v-.8l14.2-13.8h.9z"/><path d="m69 36.8-13.8 13.4v-.8l12.9-12.6z"/><path d="m67.7 36.8-12.5 12.2v-.8l11.6-11.3h.9z"/><path d="m66.4 36.8-11.2 10.9v-.8l10.3-10.1z"/><path d="m65.1 36.8-9.9 9.7v-.8l9-8.8h.9z"/><path d="m63.8 36.8-8.6 8.4v-.8l7.8-7.6z"/><path d="m62.5 36.8-7.3 7.2v-.8l6.5-6.3h.8z"/><path d="m61.3 36.8-6 5.9v-.8l5.2-5c-.1-.1.8-.1.8-.1z"/><path d="m60 36.8-4.7 4.6v-.8l3.9-3.8z"/><path d="m58.7 36.8-3.4 3.4v-.8l2.6-2.5c-.1-.1.8-.1.8-.1z"/><path d="m57.4 36.8-2.2 2.1v-.8l1.3-1.3z"/><path d="m56.1 36.8-.9.8v-.8z"/><path d="m16.4 53.2v-.4l-.4.4z"/><path d="m15.1 53.2 1.2-1.3v-.4l-1.6 1.7z"/><path d="m13.9 53.2 2.5-2.5v-.4l-2.9 2.9z"/><path d="m12.7 53.2 3.7-3.8v-.4l-4.1 4.2z"/><path d="m11.5 53.2 4.9-5v-.4l-5.4 5.4z"/><path d="m10.2 53.2 6.1-6.3v-.4l-6.5 6.7z"/><path d="m9 53.2 7.4-7.6v-.4l-7.8 8z"/><path d="m7.8 53.2 8.6-8.8v-.4l-9 9.2z"/><path d="m6.5 53.2 9.8-10.1v-.4l-10.2 10.5z"/><path d="m5.3 53.2 11-11.3v-.4l-11.4 11.7z"/><path d="m4.1 53.2 12.3-12.6v-.4l-12.7 13z"/><path d="m2.9 53.2 13.5-13.8v-.4l-13.9 14.2z"/><path d="m1.6 53.2 14.7-15.1v-.4l-15.1 15.5z"/><path d="m.4 53.2 16-16.4h-.4l-16 16.4z"/><path d="m0 52.3 15.1-15.5h-.4l-14.7 15.1z"/><path d="m0 51.1 13.9-14.3h-.4l-13.5 13.9z"/><path d="m0 49.8 12.7-13h-.4l-12.3 12.6z"/><path d="m0 48.6 11.5-11.7h-.5l-11 11.2z"/><path d="m0 47.3 10.2-10.5h-.4l-9.8 10.1z"/><path d="m0 46 9-9.2h-.4l-8.6 8.8z"/><path d="m0 44.8 7.8-8h-.4l-7.4 7.6z"/><path d="m0 43.5 6.5-6.7h-.4l-6.1 6.3z"/><path d="m0 42.3 5.3-5.5h-.4l-4.9 5z"/><path d="m0 41 4.1-4.2h-.4l-3.7 3.8z"/><path d="m0 39.8 2.9-2.9h-.4l-2.5 2.4z"/><path d="m0 38.5 1.6-1.7h-.4l-1.2 1.3z"/><path d="m0 37.2.4-.4h-.4z"/><path d="m36.8 53.2h16.4v-16.4h-16.4z"/><path d="m90 53.2v-.4l-.4.4z"/><path d="m88.8 53.2 1.2-1.3v-.4l-1.6 1.7z"/><path d="m87.5 53.2 2.5-2.5v-.4l-2.9 2.9z"/><path d="m86.3 53.2 3.7-3.8v-.4l-4.1 4.2z"/><path d="m85.1 53.2 4.9-5v-.4l-5.3 5.5h.4z"/><path d="m83.9 53.2 6.1-6.3v-.4l-6.5 6.7z"/><path d="m82.6 53.2 7.4-7.6v-.4l-7.8 8z"/><path d="m81.4 53.2 8.6-8.8v-.4l-9 9.2z"/><path d="m80.2 53.2 9.8-10.1v-.4l-10.2 10.5z"/><path d="m79 53.2 11-11.3v-.4l-11.5 11.7z"/><path d="m77.7 53.2 12.3-12.6v-.4l-12.7 13z"/><path d="m76.5 53.2 13.5-13.9v-.4l-13.9 14.3z"/><path d="m75.3 53.2 14.7-15.1v-.4l-15.1 15.5z"/><path d="m74 53.2 16-16.4h-.4l-16 16.4z"/><path d="m73.6 52.3 15.1-15.5h-.4l-14.7 15.1z"/><path d="m73.6 51.1 13.9-14.3h-.4l-13.5 13.9z"/><path d="m73.6 49.8 12.7-13h-.4l-12.3 12.6z"/><path d="m73.6 48.6 11.5-11.7h-.4l-11 11.3v.4z"/><path d="m73.6 47.3 10.2-10.5h-.4l-9.8 10.1z"/><path d="m73.6 46 9-9.2h-.4l-8.6 8.8z"/><path d="m73.6 44.8 7.8-8h-.4l-7.4 7.6z"/><path d="m73.6 43.5 6.5-6.7h-.4l-6.1 6.3z"/><path d="m73.6 42.3 5.3-5.5h-.4l-4.9 5z"/><path d="m73.6 41 4.1-4.2h-.4l-3.7 3.8z"/><path d="m73.6 39.8 2.9-2.9h-.4l-2.5 2.5z"/><path d="m73.6 38.5 1.6-1.7h-.4l-1.2 1.3z"/><path d="m73.6 37.2.4-.4h-.4z"/><path d="m53.2 90h-.4l.4-.4z"/><path d="m53.2 88.8-1.3 1.2h-.4l1.7-1.6z"/><path d="m53.2 87.5-2.5 2.5h-.4l2.9-2.9z"/><path d="m53.2 86.3-3.8 3.7h-.4l4.2-4.1z"/><path d="m53.2 85.1-5 4.9h-.4l5.5-5.3z"/><path d="m53.2 83.9-6.3 6.1h-.4l6.7-6.5z"/><path d="m53.2 82.6-7.6 7.4h-.4l8-7.8z"/><path d="m53.2 81.4-8.8 8.6h-.4l9.2-9z"/><path d="m53.2 80.2-10.1 9.8h-.4l10.5-10.2z"/><path d="m53.2 79-11.3 11h-.4l11.7-11.5z"/><path d="m53.2 77.7-12.6 12.3h-.4l13-12.7z"/><path d="m53.2 76.5-13.9 13.5h-.4l14.3-13.9z"/><path d="m53.2 75.3-15.1 14.7h-.4l15.5-15.1z"/><path d="m53.2 74-16.4 16v-.4l16.4-16z"/><path d="m52.3 73.6-15.5 15.2v-.4l15.1-14.7h.4z"/><path d="m51.1 73.6-14.3 13.9v-.4l13.8-13.5z"/><path d="m49.8 73.6-13 12.7v-.4l12.6-12.3z"/><path d="m48.6 73.6-11.8 11.5v-.4l11.3-11z"/><path d="m47.3 73.6-10.5 10.3v-.4l10.1-9.8z"/><path d="m46 73.6-9.2 9v-.4l8.8-8.6z"/><path d="m44.8 73.6-8 7.8v-.4l7.6-7.4z"/><path d="m43.5 73.6-6.7 6.5v-.4l6.3-6.1z"/><path d="m42.3 73.6-5.5 5.4v-.4l5-4.9z"/><path d="m41 73.6-4.2 4.1v-.4l3.8-3.7z"/><path d="m39.8 73.6-2.9 2.9v-.4l2.5-2.5z"/><path d="m38.5 73.6-1.7 1.6v-.4l1.3-1.2z"/><path d="m37.2 73.6-.4.4v-.4z"/><path d="m53.2 71.6h-.9l.9-.8z"/><path d="m53.2 70.3-1.3 1.3h-.9l2.1-2.1v.8z"/><path d="m53.2 69.1-2.6 2.5h-.9l3.4-3.4c.1 0 .1.9.1.9z"/><path d="m53.2 67.8-3.9 3.8h-.9l4.7-4.6c.1 0 .1.8.1.8z"/><path d="m53.2 66.5-5.2 5h-.9l6-5.9v.9z"/><path d="m53.2 65.3-6.5 6.3h-.9l7.3-7.1v.8z"/><path d="m53.2 64-7.8 7.6h-.9l8.6-8.4v.8z"/><path d="m53.2 62.8-9 8.8h-.9l9.9-9.7z"/><path d="m53.2 61.5-10.4 10.1h-.8l11.2-10.9z"/><path d="m53.2 60.3-11.6 11.3h-.9l12.5-12.2z"/><path d="m53.2 59-12.9 12.6h-.9l13.8-13.4z"/><path d="m53.2 57.7-14.2 13.9h-.9l15.1-14.7z"/><path d="m53.2 56.5-15.5 15.1h-.9l16.4-15.9z"/><path d="m53.2 55.2-16.4 16v-.8l15.5-15.1h.9z"/><path d="m51.9 55.2-15.1 14.7v-.8l14.2-13.9z"/><path d="m50.6 55.2-13.8 13.5v-.8l12.9-12.6c0-.1.9-.1.9-.1z"/><path d="m49.3 55.2-12.5 12.2v-.8l11.6-11.3c0-.1.9-.1.9-.1z"/><path d="m48 55.2-11.2 10.9v-.8l10.3-10.1z"/><path d="m46.7 55.2-9.9 9.7v-.9l9-8.8z"/><path d="m45.4 55.2-8.6 8.4v-.8l7.8-7.6z"/><path d="m44.1 55.2-7.3 7.1v-.8l6.5-6.3z"/><path d="m42.8 55.2-6 5.9v-.8l5.2-5c0-.1.8-.1.8-.1z"/><path d="m41.6 55.2-4.7 4.6v-.8l3.9-3.8z"/><path d="m40.3 55.2-3.4 3.4v-.8l2.6-2.5h.8z"/><path d="m39 55.2-2.2 2.1v-.8l1.3-1.3z"/><path d="m37.7 55.2-.9.8v-.8z"/><path d="m53.2 16.4h-.4l.4-.4z"/><path d="m53.2 15.1-1.3 1.2h-.4l1.7-1.6z"/><path d="m53.2 13.9-2.5 2.5h-.4l2.9-2.9z"/><path d="m53.2 12.7-3.8 3.7h-.4l4.2-4.1z"/><path d="m53.2 11.5-5 4.9h-.4l5.5-5.3z"/><path d="m53.2 10.2-6.3 6.1h-.4l6.7-6.5z"/><path d="m53.2 9-7.6 7.4h-.4l8-7.8z"/><path d="m53.2 7.8-8.8 8.6h-.4l9.2-9z"/><path d="m53.2 6.5-10.1 9.8h-.4l10.5-10.2z"/><path d="m53.2 5.3-11.3 11h-.4l11.7-11.4z"/><path d="m53.2 4.1-12.6 12.3h-.4l13-12.7z"/><path d="m53.2 2.9-13.9 13.5h-.4l14.3-13.9z"/><path d="m53.2 1.6-15.1 14.8h-.4l15.5-15.2z"/><path d="m53.2.4-16.4 16v-.4l16.4-16z"/><path d="m52.3 0-15.5 15.1v-.4l15.1-14.7z"/><path d="m51.1 0-14.3 13.9v-.4l13.9-13.5z"/><path d="m49.8 0-13 12.7v-.4l12.6-12.3z"/><path d="m48.6 0-11.8 11.5v-.5l11.3-11z"/><path d="m47.3 0-10.5 10.2v-.4l10.1-9.8z"/><path d="m46 0-9.2 9v-.4l8.8-8.6z"/><path d="m44.8 0-8 7.8v-.4l7.6-7.4z"/><path d="m43.5 0-6.7 6.5v-.4l6.3-6.1z"/><path d="m42.3 0-5.5 5.3v-.4l5-4.9z"/><path d="m41 0-4.2 4.1v-.4l3.8-3.7z"/><path d="m39.8 0-2.9 2.9v-.4l2.4-2.5z"/><path d="m38.5 0-1.7 1.6v-.4l1.3-1.2z"/><path d="m37.2 0-.4.4v-.4z"/><path d="m53.2 34.8h-.9l.9-.8z"/><path d="m53.2 33.5-1.3 1.3h-.9l2.1-2.1c.1 0 .1.8.1.8z"/><path d="m53.2 32.2-2.6 2.5h-.9l3.4-3.4c.1.1.1.9.1.9z"/><path d="m53.2 31-3.9 3.8h-.9l4.7-4.6c.1 0 .1.8.1.8z"/><path d="m53.2 29.7-5.2 5h-.9l6-5.9v.9z"/><path d="m53.2 28.5-6.5 6.3h-.9l7.3-7.1v.8z"/><path d="m53.2 27.2-7.8 7.6h-.9l8.6-8.4v.8z"/><path d="m53.2 26-9 8.8h-.9l9.9-9.7z"/><path d="m53.2 24.7-10.4 10.1h-.8l11.2-10.9z"/><path d="m53.2 23.4-11.6 11.4h-.9l12.5-12.2z"/><path d="m53.2 22.2-12.9 12.6h-.9l13.8-13.4z"/><path d="m53.2 20.9-14.2 13.9h-.9l15.1-14.7z"/><path d="m53.2 19.7-15.5 15.1h-.9l16.4-15.9z"/><path d="m53.2 18.4-16.4 16v-.8l15.5-15.1h.9z"/><path d="m51.9 18.4-15.1 14.7v-.8l14.2-13.9z"/><path d="m50.6 18.4-13.8 13.4v-.8l12.9-12.6z"/><path d="m49.3 18.4-12.5 12.2v-.8l11.6-11.3h.9z"/><path d="m48 18.4-11.2 10.9v-.8l10.3-10.1z"/><path d="m46.7 18.4-9.9 9.7v-.8l9-8.8h.9z"/><path d="m45.4 18.4-8.6 8.4v-.8l7.8-7.6z"/><path d="m44.1 18.4-7.3 7.1v-.8l6.5-6.3z"/><path d="m42.8 18.4-6 5.9v-.8l5.2-5c0-.1.8-.1.8-.1z"/><path d="m41.6 18.4-4.8 4.6v-.8l3.9-3.8z"/><path d="m40.3 18.4-3.4 3.4v-.8l2.6-2.5c-.1-.1.8-.1.8-.1z"/><path d="m39 18.4-2.2 2.1v-.8l1.3-1.3z"/><path d="m37.7 18.4-.9.8v-.8z"/><path d="m34.8 34.8v-.4l-.4.4z"/><path d="m33.5 34.8 1.2-1.3v-.4l-1.6 1.7z"/><path d="m32.3 34.8 2.5-2.5v-.4l-2.9 2.9z"/><path d="m31.1 34.8 3.7-3.8v-.4l-4.1 4.2z"/><path d="m29.9 34.8 4.9-5v-.4l-5.3 5.5z"/><path d="m28.6 34.8 6.1-6.3v-.4l-6.5 6.7z"/><path d="m27.4 34.8 7.4-7.6v-.4l-7.8 8z"/><path d="m26.2 34.8 8.6-8.8v-.4l-9 9.2z"/><path d="m25 34.8 9.8-10.1v-.4l-10.3 10.5z"/><path d="m23.7 34.8 11-11.3v-.5l-11.4 11.8z"/><path d="m22.5 34.8 12.3-12.6v-.4l-12.7 13z"/><path d="m21.3 34.8 13.5-13.8v-.4l-13.9 14.2z"/><path d="m20 34.8 14.7-15.1v-.4l-15.1 15.5z"/><path d="m18.8 34.8 16-16.4h-.4l-16 16.4z"/><path d="m18.4 33.9 15.1-15.5h-.4l-14.7 15.1z"/><path d="m18.4 32.7 13.9-14.3h-.4l-13.5 13.9z"/><path d="m18.4 31.4 12.7-13h-.4l-12.3 12.6z"/><path d="m18.4 30.2 11.5-11.7h-.4l-11 11.3v.4z"/><path d="m18.4 28.9 10.2-10.5h-.4l-9.8 10.1z"/><path d="m18.4 27.6 9-9.2h-.4l-8.6 8.8z"/><path d="m18.4 26.4 7.8-8h-.4l-7.4 7.6z"/><path d="m18.4 25.1 6.5-6.7h-.4l-6.1 6.3z"/><path d="m18.4 23.9 5.3-5.5h-.4l-4.9 5z"/><path d="m18.4 22.6 4.1-4.2h-.4l-3.7 3.8z"/><path d="m18.4 21.3 2.9-2.9h-.4l-2.5 2.5z"/><path d="m18.4 20.1 1.6-1.7h-.4l-1.2 1.3z"/><path d="m18.4 18.8.4-.4h-.4z"/><path d="m71.6 71.6v-.4l-.4.4z"/><path d="m70.4 71.6 1.2-1.3v-.4l-1.6 1.7z"/><path d="m69.1 71.6 2.5-2.5v-.4l-2.9 2.9z"/><path d="m67.9 71.6 3.7-3.8v-.4l-4.1 4.2z"/><path d="m66.7 71.6 4.9-5v-.4l-5.3 5.5h.4z"/><path d="m65.5 71.6 6.1-6.3v-.4l-6.6 6.7z"/><path d="m64.2 71.6 7.4-7.6v-.4l-7.8 8z"/><path d="m63 71.6 8.6-8.8v-.4l-9 9.2z"/><path d="m61.8 71.6 9.8-10.1v-.4l-10.2 10.5z"/><path d="m60.5 71.6 11-11.3v-.4l-11.4 11.7z"/><path d="m59.3 71.6 12.3-12.6v-.4l-12.7 13z"/><path d="m58.1 71.6 13.5-13.8v-.4l-13.9 14.2z"/><path d="m56.9 71.6 14.7-15.1v-.4l-15.1 15.5z"/><path d="m55.6 71.6 16-16.4h-.4l-16 16.4z"/><path d="m55.2 70.8 15.1-15.5h-.3l-14.8 15z"/><path d="m55.2 69.5 13.9-14.3h-.4l-13.5 13.9z"/><path d="m55.2 68.2 12.7-13h-.4l-12.3 12.6z"/><path d="m55.2 67 11.5-11.7h-.4l-11 11.3z"/><path d="m55.2 65.7 10.2-10.5h-.4l-9.8 10.1z"/><path d="m55.2 64.5 9-9.2h-.4l-8.6 8.7z"/><path d="m55.2 63.2 7.8-8h-.4l-7.4 7.6z"/><path d="m55.2 61.9 6.5-6.7h-.4l-6.1 6.3z"/><path d="m55.2 60.7 5.3-5.5h-.4l-4.9 5z"/><path d="m55.2 59.4 4.1-4.2h-.4l-3.7 3.8z"/><path d="m55.2 58.2 2.9-2.9h-.4l-2.5 2.5z"/><path d="m55.2 56.9 1.6-1.7h-.4l-1.2 1.3z"/><path d="m55.2 55.6.4-.4h-.4z"/></svg>