<svg viewBox="0 0 169 169" xmlns="http://www.w3.org/2000/svg"><path d="m0 87.4c0-20 0-39.7 0-59.7 0-3.2.5-4 3.7-4.8 25.3-7.4 50.7-14.6 76-22.1 3.5-1.1 6.4-1.1 9.6 0 25.6 7.5 51.2 14.9 76.7 22.4 2.7.8 3.5 1.6 3.5 4.5v120.7c0 2.4-.8 3.5-3.2 4-12 2.4-23.7 5.1-35.7 7.5-14.9 3.2-29.6 6.1-44.5 9.3-.8.3-1.9 0-2.7 0-10.9-2.1-21.9-4.5-33-6.9-15.7-3.2-31.2-6.4-46.9-9.9-2.7-.5-3.5-1.6-3.5-4.3 0-20.5 0-40.7 0-60.7zm88.2-2.9v76.5c.5 0 1.1 0 1.3-.3 13.3-2.7 26.6-5.6 40-8.3 10.4-2.1 20.8-4.3 31.2-6.4 1.3-.3 1.9-.8 1.9-2.4 0-17.1 0-34.1 0-51.4 0-.5 0-1.3 0-1.9-1.3 0-2.4 0-3.7-.3-1.9-.3-3.2-1.9-2.9-3.7.3-1.9 1.6-2.9 3.7-2.9h3.2c0-2.9 0-5.9 0-8.8 0-1.1-.5-1.6-1.6-1.9-2.1-.3-4-.5-6.1-1.1-19.7-3.2-39.7-6.7-59.4-9.9-2.4-.5-4.8-.8-7.5-1.1v13.6c0 2.9 0 2.9 2.9 3.2.3 0 .8 0 1.1.3 1.9.5 2.9 1.9 2.9 3.7-.3 1.9-1.6 2.9-3.5 2.9-1.4.2-2.4.2-3.5.2zm-6.9-23.5c-.5 0-1.1 0-1.3 0-6.4 1.1-12.8 2.1-18.9 3.2-11.5 1.9-22.9 3.7-34.6 5.9-6.2 1.1-12.4 1.9-18.2 2.9-.5 0-1.3.5-1.3.8v9.6h3.5c1.6 0 2.9 1.3 3.2 2.9s-.8 3.2-2.4 3.7c-.5.3-1.3.3-1.9.3-2.7.3-2.4-.3-2.4 2.7v48.5c0 4 0 4 3.7 4.8.5.3 1.3.3 1.9.5 20.5 4.3 41.3 8.5 61.8 13.1 2.1.5 4.3.8 6.7 1.3 0-25.6 0-51.2 0-76.5-1.3 0-2.4 0-3.5 0-1.9 0-3.2-1.3-3.2-2.9-.3-1.9.8-3.5 2.7-3.7 1.1-.3 2.1-.3 3.2-.3.3 0 1.1-.5 1.1-.8-.1-5.3-.1-10.6-.1-16zm6.9-53.8c0 .3-.3.5-.3.8v21.3c0 1.1.5 1.3 1.3 1.3 5.9 1.3 11.7 2.4 17.6 3.7 14.9 3.2 29.6 6.1 44.5 9.3 3.7.8 7.2 1.6 10.9 2.1 0-.3.3-.5.3-.5 0-5.1 0-10.1 0-15.2 0-1.1-.8-1.3-1.3-1.6-21.6-6.3-43.1-12.4-64.5-18.8-2.9-.8-5.6-1.6-8.5-2.4zm-6.9.3c-.5 0-1.1.3-1.3.3-9.3 2.7-18.7 5.6-28 8.3-14.7 4.3-29 8.5-43.7 12.8-1.1.3-1.6.8-1.6 2.1v12.5 2.7h1.3c13.3-2.7 26.9-5.6 40.2-8.3 10.1-2.1 20.3-4.3 30.4-6.4 2.4-.5 2.4-.5 2.4-3.2 0-5.6 0-11.5 0-17.1.3-1.6.3-2.7.3-3.7zm6.9 46.6c24.8 4.3 49.6 8.3 74.3 12.5 0-4.3 0-8 0-12 0-1.3-.5-1.9-1.6-1.9-8-1.6-16-3.2-24-5.1-12.5-2.7-25-5.3-37.8-8-3.7-.8-7.2-1.6-10.9-2.1zm-6.9-16.5c-4.5 1.1-9.1 1.9-13.3 2.7-10.7 2.1-21.1 4.5-31.7 6.7-9.3 1.9-18.7 4-28 5.9-.5 0-1.3.8-1.3 1.1v12.8c.8 0 1.3 0 1.9-.3 8.8-1.3 17.6-2.9 26.4-4.3 9.9-1.6 19.7-3.2 29.6-4.8 5.1-.8 10.4-1.9 15.5-2.7.5 0 1.3-.5 1.3-1.1-.4-5.6-.4-10.7-.4-16z"/><path d="m121.3 80.2c2.9.3 6.1.5 9.1.8 2.1.3 3.5 1.9 3.2 3.5 0 1.9-1.6 3.2-3.7 3.2-3.2-.3-6.7-.5-9.9-.8-1.9-.3-3.2-1.9-2.9-3.7.2-1.9 1.8-3 4.2-3z"/><path d="m147.9 85.8c0 1.9-1.6 3.5-3.5 3.2-1.9 0-3.2-1.6-3.2-3.5s1.6-3.5 3.5-3.2c1.9 0 3.5 1.6 3.2 3.5z"/><path d="m106.1 85.8c-1.9 0-3.2-1.3-3.5-3.2 0-1.9 1.3-3.5 3.5-3.5 1.9 0 3.2 1.6 3.2 3.5.2 1.6-1.4 3.2-3.2 3.2z"/><path d="m48 80.2c2.7 0 4.3 1.1 4.3 3.2s-1.3 3.5-3.7 3.7c-2.9.3-5.6.5-8.5.8-2.4.3-4-1.1-4-2.9-.3-2.1 1.1-3.5 3.7-3.7 2.6-.6 5.5-.8 8.2-1.1z"/><path d="m63.4 85.8c-1.9 0-3.5-1.3-3.5-3.2s1.6-3.5 3.5-3.5 3.2 1.6 3.2 3.5-1.3 3.2-3.2 3.2z"/><path d="m24.5 82.3c1.9 0 3.2 1.6 3.2 3.5s-1.6 3.5-3.2 3.5c-1.9 0-3.5-1.6-3.5-3.5.3-2.1 1.7-3.5 3.5-3.5z"/></svg>