<svg
    xmlns="http://www.w3.org/2000/svg"
    viewBox="0 0 512 512"
    id="vector">
    <path
        id="path_1"
        d="M 393.5 512 L 118.5 512 C 53 512 0 459 0 393.5 L 0 118.5 C 0 53 53 0 118.5 0 L 393.6 0 C 459 0 512 53 512 118.5 L 512 393.6 C 512 459 459 512 393.5 512 Z"
        fill="#eeeef0"/>
    <path
        id="path_2"
        d="M 255.9 412.1 C 255.4 412.1 254.8 411.9 254.4 411.6 L 190.3 358.6 C 189.8 358.2 189.4 357.5 189.4 356.8 L 189.4 155.8 C 189.4 155.1 189.7 154.4 190.2 154 L 254.3 101 C 254.7 100.7 255.2 100.5 255.8 100.5 C 256.3 100.5 256.9 100.7 257.3 101 L 321.4 154 C 321.9 154.4 322.3 155.1 322.3 155.8 L 322.3 356.7 C 322.3 357.4 322 358.1 321.5 358.5 L 257.4 411.5 C 257 411.9 256.5 412.1 255.9 412.1 Z M 194.2 156.9 L 194.2 355.6 L 256 406.7 L 317.8 355.6 L 317.8 156.9 L 256 105.8 L 194.2 156.9 Z"
        fill="#015758"/>
    <path
        id="path_3"
        d="M 411.2 254.8 L 358.2 190.7 C 357.8 190.2 357.1 189.9 356.4 189.9 L 155.5 189.9 C 154.8 189.9 154.1 190.2 153.7 190.8 L 100.7 254.9 C 100 255.8 100 257 100.7 257.9 L 153.7 322 C 154.1 322.5 154.8 322.8 155.5 322.8 L 356.4 322.8 C 357.1 322.8 357.8 322.5 358.2 322 L 411.2 257.9 C 411.9 256.9 411.9 255.7 411.2 254.8 Z M 355.3 318.1 L 156.6 318.1 L 105.5 256.3 L 156.6 194.5 L 355.3 194.5 L 406.4 256.3 L 355.3 318.1 Z"
        fill="#015758"/>
    <path
        id="path_4"
        d="M 366.8 147.5 C 366.7 146.4 365.8 145.5 364.7 145.4 L 281.9 137.6 L 281.7 137.6 C 281 137.6 280.5 137.8 280 138.3 L 137.9 280.3 C 137.4 280.8 137.2 281.5 137.2 282.2 L 145.1 365 C 145.2 366.1 146.1 367 147.2 367.1 L 230 375 C 230.1 375 230.1 375 230.2 375 C 230.8 375 231.4 374.7 231.9 374.3 L 265.1 341.1 L 305.8 300.4 L 374 232.2 C 374.5 231.7 374.8 231 374.7 230.3 L 366.8 147.5 Z M 303.2 296.4 L 258.4 341.2 L 229.3 370.3 L 149.5 362.7 L 141.9 282.9 L 282.4 142.4 L 362.2 149.9 L 369.7 229.7 L 303.2 296.4 Z"
        fill="#015758"/>
    <path
        id="path_5"
        d="M 373.9 280.3 L 231.8 138.3 C 231.4 137.9 230.8 137.6 230.2 137.6 C 230.1 137.6 230.1 137.6 230 137.6 L 147.2 145.4 C 146.1 145.5 145.2 146.4 145.1 147.5 L 137.2 230.3 C 137.1 231 137.4 231.7 137.9 232.2 L 203.1 297.4 L 246.8 341 L 280 374.2 C 280.4 374.6 281 374.9 281.7 374.9 C 281.8 374.9 281.8 374.9 281.9 374.9 L 364.7 367.1 C 365.8 367 366.7 366.1 366.8 365 L 374.6 282.2 C 374.7 281.5 374.4 280.8 373.9 280.3 Z M 362.3 362.7 L 282.5 370.3 L 253.4 341.2 L 206.1 293.9 L 142 229.7 L 149.6 149.9 L 229.4 142.4 L 369.9 282.9 L 362.3 362.7 Z"
        fill="#015758"/>
    <path
        id="path_98"
        d="M 305.8 300 L 305.8 300.4 L 288.2 318 L 283.5 322.7 L 228.5 322.7 L 223.8 318 L 203.2 297.4 C 204.1 296.2 205.1 294.9 206.2 293.7 C 218.8 279.2 236.7 269.2 246.6 261.4 L 245.8 261.4 C 244.5 261.4 243.5 260.4 243.5 259.1 C 243.5 257.8 244.5 256.8 245.8 256.8 L 247.9 256.8 C 247.5 256.4 247.2 255.8 247.2 255.2 C 247.2 253.9 248.2 252.9 249.5 252.9 L 251.5 252.9 L 252.5 230.3 C 248.2 229.5 244.3 227.1 241.6 223.2 C 236.4 215.5 238.4 205.1 246.1 199.9 C 248.6 198.2 251.4 197.3 254.2 197.1 C 253.5 197.4 252.7 197.8 252 198.3 C 245.5 202.7 243.8 211.6 248.2 218 C 252.6 224.5 261.5 226.2 267.9 221.8 C 269.5 220.8 270.7 219.4 271.7 218 C 270.7 221.8 268.4 225.3 264.9 227.7 C 261.6 230 257.7 230.9 254 230.5 L 255 252.9 L 257 252.9 C 258.3 252.9 259.3 253.9 259.3 255.2 C 259.3 255.8 259 256.4 258.6 256.8 L 260.7 256.8 C 262 256.8 263 257.8 263 259.1 C 263 260.4 262 261.4 260.7 261.4 L 260.2 261.4 C 270.8 269.5 290.6 279.9 303.1 296.3 C 304.1 297.5 305 298.7 305.8 300 Z"
        fill="#015758"/>
    <path
        id="path_99"
        d="M 256.2 439.9 C 255 439.9 253.8 439.5 252.9 438.7 L 199 394.2 L 129.4 387.6 C 126.9 387.3 125 385.4 124.8 383 L 118.2 313.4 L 73.6 259.5 C 72 257.6 72 254.9 73.6 253 L 118.2 199.1 L 124.8 129.4 C 125 127 126.9 125 129.4 124.8 L 199 118.2 L 252.9 73.6 C 254.7 72.1 257.6 72.1 259.4 73.6 L 313.3 118.2 L 383 124.8 C 385.5 125.1 387.4 127 387.6 129.4 L 394.2 199.1 L 438.8 253 C 440.4 254.9 440.4 257.6 438.8 259.5 L 394.2 313.4 L 387.6 383.1 C 387.4 385.5 385.5 387.5 383 387.7 L 313.3 394.3 L 259.4 438.9 C 258.5 439.5 257.4 439.9 256.2 439.9 Z M 256.4 77.2 L 256.4 77.2 L 256 77.2 L 201 122.7 L 129.9 129.4 C 129.8 129.4 129.6 129.5 129.6 129.7 L 122.8 200.8 L 77.3 255.8 C 77.2 255.9 77.2 256.1 77.3 256.2 L 122.8 311.3 L 129.5 382.4 C 129.5 382.6 129.6 382.7 129.8 382.7 L 200.9 389.4 L 255.9 434.9 L 257.8 436.7 L 256.3 434.9 L 311.3 389.4 L 312 389.3 L 382.4 382.6 C 382.6 382.6 382.7 382.5 382.7 382.3 L 389.4 311.2 L 434.9 256.2 C 435 256.1 435 255.9 434.9 255.8 L 434.9 255.8 L 389.4 200.8 L 389.3 200.1 L 382.6 129.7 C 382.6 129.5 382.5 129.4 382.3 129.4 L 311.2 122.7 L 310.6 122.2 L 256.4 77.2 Z"
        fill="#015758"/>
</svg>
