<svg
    xmlns="http://www.w3.org/2000/svg"
    viewBox="0 0 24 24"
    id="vector">
    <path
        id="path_1"
        d="M 10.053 19.312 L 7.131 19.312 C 6.717 19.312 6.381 18.976 6.381 18.562 C 6.381 18.148 6.717 17.812 7.131 17.812 L 9.302 17.812 L 9.302 15.75 C 9.302 15.336 9.638 15 10.052 15 C 10.466 15 10.802 15.336 10.802 15.75 L 10.802 18.562 C 10.803 18.977 10.467 19.312 10.053 19.312 Z"
        fill="#000000"/>
    <path
        id="path_2"
        d="M 6.367 24.004 C 5.773 24.004 5.173 23.896 4.601 23.675 C 3.231 23.148 2.308 22.08 2.069 20.745 C 2.023 20.491 2 20.229 2 19.969 C 2 19.709 2.023 19.447 2.069 19.192 C 2.308 17.858 3.231 16.79 4.601 16.262 C 6.176 15.652 7.963 15.902 9.262 16.906 L 10.511 17.87 C 10.839 18.123 10.899 18.595 10.646 18.922 C 10.393 19.25 9.922 19.311 9.594 19.057 L 8.345 18.092 C 7.47 17.416 6.211 17.247 5.14 17.661 C 4.271 17.996 3.69 18.65 3.545 19.456 C 3.516 19.623 3.5 19.794 3.5 19.969 C 3.5 20.144 3.516 20.315 3.545 20.481 C 3.69 21.287 4.271 21.941 5.14 22.276 C 6.211 22.687 7.471 22.52 8.345 21.845 L 14.738 16.906 C 16.037 15.903 17.823 15.654 19.399 16.262 C 20.769 16.789 21.692 17.857 21.931 19.192 C 21.977 19.446 22 19.708 22 19.969 C 22 20.23 21.977 20.491 21.931 20.746 C 21.692 22.08 20.769 23.148 19.399 23.676 C 17.822 24.284 16.037 24.036 14.738 23.032 L 12.95 21.65 C 12.622 21.397 12.562 20.926 12.815 20.598 C 13.067 20.27 13.54 20.211 13.867 20.463 L 15.655 21.845 C 16.53 22.52 17.789 22.688 18.86 22.276 C 19.729 21.941 20.31 21.287 20.455 20.481 C 20.485 20.314 20.5 20.143 20.5 19.969 C 20.5 19.795 20.484 19.623 20.455 19.457 C 20.31 18.651 19.729 17.997 18.86 17.662 C 17.787 17.25 16.528 17.417 15.655 18.093 L 9.262 23.032 C 8.435 23.671 7.41 24.004 6.367 24.004 Z"
        fill="#000000"/>
    <path
        id="path_3"
        d="M 18.75 12 L 5.25 12 C 4.009 12 3 10.991 3 9.75 L 3 3.25 C 3 2.009 4.009 1 5.25 1 L 18.75 1 C 19.991 1 21 2.009 21 3.25 L 21 9.75 C 21 10.991 19.991 12 18.75 12 Z M 5.25 2.5 C 4.836 2.5 4.5 2.836 4.5 3.25 L 4.5 9.75 C 4.5 10.164 4.836 10.5 5.25 10.5 L 18.75 10.5 C 19.164 10.5 19.5 10.164 19.5 9.75 L 19.5 3.25 C 19.5 2.836 19.164 2.5 18.75 2.5 Z"
        fill="#000000"/>
    <path
        id="path_4"
        d="M 6.75 1 C 6.336 1 6 1.336 6 1.75 L 6 11.25 C 6 11.664 6.336 12 6.75 12 C 7.164 12 7.5 11.664 7.5 11.25 L 7.5 1.75 C 7.5 1.336 7.164 1 6.75 1 Z"
        fill="#000000"/>
</svg>
