<svg enable-background="new 0 0 500 500" viewBox="0 0 500 500" xmlns="http://www.w3.org/2000/svg">
    <g fill="#d7d7cc">
        <path
            d="m242.2 268.4c-.2.1-.4.2-.7.3l-92.6 53.2c-2.1 1.2-2.8 3.8-1.7 5.9s3.7 3 5.8 2l96.7-45.3c4.4-2.1 6.4-7.4 4.3-11.8s-7.4-6.4-11.8-4.3z" />
        <path
            d="m245.6 157.1c-31.7 0-62.1 12.6-84.5 35.1s-35.1 52.8-35.1 84.5c0 8.8 1 17.5 2.9 26l116.7-67z" />
        <path d="m331.9 128.3c.1.1.1 0 0 0z" />
        <path
            d="m425.2 238.2-3-8.3c-1.6-4.5-5.1-8.2-9.7-10.1l-.4-.1v-.3c-.3-3.9-2.1-7.6-5-10.5-1.6-1.5-3.3-2.7-5.2-3.4 0 0 0 0 0-.1-1.6-.7-3.3-1.1-5.2-1.2h-.1-.3l-.1-.4c-1-5.4-2-10.4-3.2-15.1-.1-.1-.1-.2-.2-.3-4.5-17.7-10.6-30.9-18-39.3l-.6-.7.8-.2c8.5-1.9 16.5-6.1 23.1-12.3 12.5-11.7 18.3-29.4 15.2-46.3l-.1-.2 11-21.8c1.2-2.4 1.4-5.2.5-7.7s-2.7-4.5-5-5.6l-55.9-28-.1-.1c-1.5-.6-3-.9-4.4-.9-3.8 0-7.2 2.1-9 5.5l-12.2 24.6-.2.1c-3.3 1.9-6.4 4.2-9.2 6.8-16.3 15.3-20.5 38.9-11.4 58.5-19-8.7-39.5-14-60.6-15.3v-19l26-10.5c1.7-.7 2.8-2.4 2.8-4.2v-18.2c0-2.5-2-4.5-4.5-4.5h-70.8c-2.5 0-4.5 2-4.5 4.5v18.1c0 1.8 1.1 3.5 2.8 4.2l26 10.5v19c-31.6 2-62 12.7-87.8 31l-13-16.2 6.5-5.2c1-.8 1.7-2 1.8-3.3s-.2-2.6-1.1-3.7l-11.6-14.4c-1.7-2.1-4.9-2.5-7-.8l-30.2 24.4c-1 .8-1.7 2-1.8 3.3s.2 2.6 1.1 3.7l11.6 14.4c1.7 2.2 4.9 2.5 7 .8l6.5-5.2 13 16.2c-14.5 13.4-26.6 29.1-35.7 46.3s-15.3 36-18.1 55.6c-5.7 39.1 2.4 79 22.8 113 20.4 33.9 51.8 59.7 89.1 73.1 24.8 8.9 51.1 12 76.9 9.1v.2c-.4 9.7-.7 16.6-.9 19.9v7.8h148.5v-7.6l-7.9-125c.1-.2.2-.4.3-.7l-4.7-75.3c0-.2 0-.3-.1-.5v-.5l15-5.5c.5-.2 1-.4 1.5-.6 3.6-1.7 6.4-4.5 8.1-8.1 2.1-4.5 2.4-9 .9-13.4zm-21.1-19.8.2.5-.6.1c-1.1.2-2.2.4-3.3.8l-2.1.9-.1-.7c-.2-2.2-.5-4.6-.9-7.1l-.1-.8.8.1c1.3.4 2.5 1 3.7 2.2l.1.1c1.1 1.1 1.9 2.4 2.3 3.9zm-55.1-168.3 19.7 9.5c.3.1.8.4 1.6.4 1.5 0 2.9-.9 3.4-2.3.2-.4.3-.9.3-1.4 0-1.4-.8-2.8-2.1-3.4l-19.6-9.4v-.1l4.8-9.5c.5-.9 1.3-1.4 2.2-1.4.3 0 .6.1 1 .2l.2.1 55.9 28c.5.2 1 .8 1.2 1.5v.1c.3.3.2 1.1 0 1.6l-9.9 20-.1.1-61.5-28.1zm-28.7 47.4c.4-11.6 5.2-22.3 13.7-30.2 2.4-2.2 4.7-3.9 7-5.3l.2-.1 64.8 29.6v.3c2.4 14.4-2.5 28.8-13.2 38.6-8 7.5-18.5 11.6-29.4 11.6h-2.4c-.6 0-1.1-.1-1.7-.1s-1.1-.1-1.7-.2c-1.3-.2-2.7-.4-4-.7-.3-.1-.5-.1-.8-.2-.4-.1-.8-.2-1.2-.3-.3-.1-.5-.2-.8-.2-.3-.1-.6-.2-.9-.3-.4-.1-.8-.3-1.3-.4-.1-.1-.1-.1-.2-.2s-.1-.1-.2-.2c-6-2.3-11.5-5.9-16-10.6-.1 0-.1-.1-.2-.1s-.1-.1-.2-.1c.1 0 .1 0 0-.1-7.7-8.3-11.8-19.3-11.5-30.8zm47.8 49.9c-.5-.4-.9-.7-1.4-1l-.6-.4h.6zm-102.6 277.5c-6.6.9-13.2 1.4-20 1.4-39.6 0-77.6-15.8-105.7-43.8-28-28-43.8-66-43.8-105.7s15.8-77.7 43.8-105.7 66.1-43.8 105.7-43.8c21.7 0 43 4.7 62.3 13.6 0 0 .1 0 .2.1 0 0-.1.1-.2.1-.2.2-.5.4-.7.6-3.4 3.2-7 7.2-10.5 12.2-12.4 17.7-19.6 41.8-21.4 71.7-2.3 38.8-6.4 126.3-9.1 185.3-.2 4.9-.4 9.6-.6 14zm139.3 42.3h-.1v.1h-89v-.1l.8-57.3c0-.7-.2-1.4-.6-2 0-.1-.1-.2-.2-.2-.2-.2-.4-.5-.7-.7-.1-.1-.2-.1-.2-.2-.2-.1-.5-.3-.8-.4-.1 0-.2-.1-.3-.1-.2-.1-.5-.1-.8-.1-2.1 0-3.8 1.7-3.8 3.7v2.2c-.1 0-.1.1-.2.1l-.3 24.5c.1 0 .1 0 .2-.1l-.4 30.9h-14.6v-.2h-.2l3.4-106.3c0-1-.4-1.8-1.1-2.5-.4-.4-1.3-1.1-2.4-1.1-2.1 0-3.8 1.7-3.8 3.6l-2 59.1c-.1 0-.1 0-.2 0l-.8 23.4c.1 0 .1 0 .2-.1l-.8 24h-14.6v-.1h-.2v-.5c.2-3.5.4-9.2.8-16.6.2-4.6.5-9.9.7-15.7 4.8-106.8 8.2-177.1 10.1-209.2 1.1-17.6 4.2-33.3 9.3-46.7 3.9-10.2 8.8-18.9 14.7-26 9.3-11.3 17.2-14.8 21.4-16.8l.5-.2.2.2c9.4 8.7 21.6 13.4 34.5 13.4h.7l.2.1c3.8 2.7 7.2 6.7 10.3 11.7.1.1.1.1.2.2.4.7.9 1.4 1.3 2.1s.8 1.5 1.2 2.3.8 1.6 1.2 2.4c.1.2.2.4.3.5-.1-.1-.2-.3-.3-.4 2.2 4.8 4.2 10.2 6 16.4 4.3 14.9 6 30.1 6.7 37.9v.3l-5.7 2.1c0 .1 0 .1.1.2 0 .1.1.2.1.3l-12.4 4.6-.2-.5h-.1l-22.1-55.2c-2.5-6.8-8.8-11.2-16-11.2-.5 0-1 0-1.5.1 0 0 0 0-.1 0h-.1c-.3 0-.7.1-1 .1h-.1-.1c-.1 0-.1 0-.2 0 0 0 0 0-.1 0-.2 0-.4.1-.5.1h-.1c-.3.1-.6.2-.8.2-.4.1-.8.2-1.1.3l-8.3 3c-.4.1-.8.3-1.2.5-1.2.5-2.2 1.2-3.2 1.9-.4.3-.9.7-1.3 1-.8.7-1.5 1.5-2.2 2.4s-1.2 1.8-1.7 2.9c-1.4 3-1.9 6.3-1.4 9.6.1 1.1.4 2.2.7 3.2l.1.4 30.6 79.6c.6 1.7 1.5 3.2 2.6 4.6 3.2 4.1 8.1 6.6 13.4 6.6 1 0 1.9-.1 2.8-.2.5-.1.9-.2 1.4-.3s1-.2 1.4-.4l29-10.7v.1l1.7 26.4v.1l.2 3.8 9.6 150.2h-.1v.1h-51.7c-.9 0-1.7.3-2.3.8-.1.1-.1.1-.2.2-.1 0-.1.1-.2.2-.6.7-1 1.6-1 2.6 0 2.1 1.7 3.8 3.8 3.8h52.2zm13.7-222.4c0 .3 0 .5-.1.8 0 .1 0 .3-.1.4 0 .2-.1.5-.2.7 0 .1-.1.2-.1.3-.1.3-.2.7-.4 1-.1.1-.1.3-.2.4-.2.3-.4.7-.6 1.1-.1.1-.2.3-.3.4v.1c-.4.5-.7.8-1.1 1.2v-.1c-.9.7-1.9 1.3-3 1.7l-18.6 6.8v.1l-33 12.1c-1.2.3-2.2.5-3.1.5-4 0-7.5-2.5-8.9-6.2l-.1-.4-30.9-79.7c-.9-2.4-.8-4.9.4-7.2.3-.6.7-1.3 1.3-2.2l.4-.5 17.2 41.1c.6 1.4 2 2.3 3.6 2.3h.8l.5-.3c.9-.4 1.6-1.1 2-2.1.2-.5.3-1 .2-1.5 0-.2 0-.5-.1-.7s-.1-.5-.2-.7l-17.6-41.6 5.2-1.9c1.2-.3 2.2-.5 3.1-.5.5 0 .9 0 1.3.1 2.2.3 4.1 1.3 5.5 2.8.6.6 1 1.3 1.4 2l.3.4 23.7 60c.3 1 1 1.7 1.9 2.1.2.1.5.2.7.2s.5.1.7.1.5 0 .7 0 .5-.1.7-.2l8.7-3.2 3.7-1.4 4.6-1.7 14-5.1c1.2-.3 2.2-.5 3.1-.5 1.5 0 2.9.3 4.1.9 0-.1 0-.1-.1-.2.1 0 .2 0 .3.1.2.1.3.1.4.2s.3.1.4.2c.5.3 1 .7 1.5 1.2.1.1.2.2.3.3 0 0 .1 0 .1.1.1.1.2.2.3.3.2.3.4.5.6.8.1.1.2.2.2.4.2.3.3.5.4.8.1.1.1.3.2.4.1.2.1.4.2.6l3.1 8.5c.4 1 .7 2 .7 2.9v.1 1.1c.3.1.3.2.2.3z" />
    </g>
</svg>