<svg enable-background="new 0 0 500 500" viewBox="0 0 500 500" xmlns="http://www.w3.org/2000/svg">
    <path
        d="m483.7 469.7h-44l-12.7-202.7c0-.2-.1-.5-.1-.9v-1.7l16.6-6.1c3.8-1.4 6.8-4.1 8.5-7.7 1.7-3.5 1.9-7.6.6-11.4l-3-8.3c-1.4-4-4.5-7.2-8.6-8.9l-1.4-.6-.2-1.5c-.3-3.5-1.9-6.7-4.4-9.2-2.6-2.5-5.8-3.9-9.3-4.2l-1.9-.2-.3-1.9c-3.1-17.2-9.1-40.5-20.9-53.8l-2.8-3.2 4.1-.9c8.2-1.8 15.9-5.9 22.2-11.8 12-11.2 17.6-28.3 14.6-44.5l-.2-.8 11.3-22.5c2-4 .4-8.8-3.6-10.7l-55.9-28c-1.2-.5-2.4-.8-3.6-.8-3.1 0-5.8 1.7-7.2 4.4l-12.5 25.1-.7.4c-3.1 1.8-6.1 4-8.8 6.5-18.3 17.1-20.7 45.1-5.5 65.2l1.9 2.5-2.9 1.3c-9.8 4.4-42.2 24-46.3 92.9-3.3 56.2-10.5 216.5-11.6 241.9l-.1 2.4h-59.1l-11.2-178.7v-1.7l14.4-5.3c3.4-1.2 6.1-3.6 7.6-6.9 1.5-3.2 1.7-6.8.5-10.2l-2.6-7.3c-1.2-3.5-4-6.4-7.5-7.8l-1.4-.6-.2-1.5c-.3-3.1-1.7-5.8-3.9-7.8-2.2-2.1-4.9-3.4-7.9-3.8l-1.9-.2-.3-1.9c-2.4-14.6-7.5-34.5-18-46.5l-2.7-3.1 4-1c7-1.8 13.5-5.3 18.8-10.2 10.6-9.9 15.6-24.9 12.9-39.2l-.2-.8 9.9-19.7c1.8-3.6.4-8-3.2-9.8l-49.2-24.7c-1-.5-2.1-.7-3.3-.7-2.7 0-5.3 1.6-6.5 4l-10.8 21.9-.6.4c-2.8 1.6-5.3 3.5-7.5 5.6-16 15-18.2 39.6-5.2 57.2l1.8 2.5-2.8 1.3c-6.2 2.9-21.7 12.5-31.8 38.8l-2.4 6.4-2.2-6.4c-3.3-9.5-7.4-17-12-22.4l-2.7-3.1 4-1c7-1.8 13.5-5.3 18.8-10.2 10.6-9.9 15.6-24.9 12.9-39.2l-.1-.8 9.9-19.7c1.8-3.6.4-8-3.2-9.8l-49.2-25.2c-1-.5-2.1-.7-3.3-.7-2.7 0-5.3 1.6-6.4 4l-11.1 22-.6.4c-2.8 1.6-5.3 3.5-7.5 5.6-16 15-18.2 39.6-5.2 57.2l1.8 2.5-2.8 1.3c-8.6 4-36.8 21.7-40.4 81.7-2.7 44.9-8.1 165-9.9 204.5-.3 7.6-.5 10.9-.5 11.6v.5c0 1 .8 1.8 1.8 1.8h467c1 0 1.8-.8 1.8-1.8 0-1.2-1-1.8-1.9-1.8zm-257.3-227.3c1.1.4 2.1 1.1 3 2 1.1 1.1 1.8 2.2 2.2 3.4l.9 2.6-3 .8c-.6.2-1.3.3-1.8.5l-.2.1-3.7 1-.2-3.1c-.1-1.2-.2-2.5-.4-3.9l-.6-4.7zm-4 14.7c.3-.1.6-.2.8-.3l.4-.2 5-1.9c1-.4 2.1-.6 3.4-.6 4.2 0 7.9 2.7 9.3 6.6l2.7 7.2c.9 2.6.8 5.2-.4 7.6-1.1 2.3-3 4.1-5.6 5l-45.5 16.8c-1 .4-2.1.5-3.4.5-4.2 0-7.9-2.6-9.3-6.6l-.1-.5-27-70c-.8-2.4-.7-5 .4-7.4v-.1c.2-.5.5-.9.8-1.4l2.6-3.9 15.6 38.8c.3.7 1 1.2 1.7 1.1h.1.2l.2-.1c1-.4 1.3-1.5 1-2.3l-15.1-37.8 5.7-2.1c1-.4 2.1-.6 3.3-.6 3.6 0 6.9 2 8.5 5h.2l21.2 53.6c.3.9 1.3 1.3 2.2 1zm-41.3-158.3 18.8 9.1c.2.1.4.2.7.2.7 0 1.3-.4 1.5-1 .2-.4.2-.9.1-1.4-.2-.5-.5-.8-.9-1l-18.7-9 4.9-9.8c.6-1.3 1.9-2.2 3.4-2.2.3 0 1 0 1.7.4l49.2 24.7c.9.4 1.5 1.2 1.9 2.1.3 1 .3 2-.2 2.9l-9.4 18.8-57.1-26zm-13.6 16c2.1-1.9 4.1-3.4 6-4.7l1.2-.8 58.6 26.7.2 1.3c2 12.9-2.6 26.4-12.1 35.1-7.6 7.1-17.3 10.6-27 10.6-10.6 0-21.2-4.2-29-12.5-14.7-15.9-13.8-40.9 2.1-55.7zm-79.7-16 18.8 9.1c.2.1.4.2.7.2.7 0 1.3-.4 1.5-1 .4-.9 0-2-.8-2.4l-18.7-9 5-10c.7-1.2 2-1.9 3.2-1.9.3 0 1 0 1.7.4l49.3 24.6c.9.4 1.5 1.2 1.9 2.1.3 1 .3 2-.2 2.9l-9.4 18.8-57.1-26zm-26.1 43.5c.4-10.6 4.9-20.3 12.6-27.5 2-1.8 4-3.3 6-4.6l1.1-.8 58.6 26.7.2 1.3c2 12.9-2.6 26.4-12.1 35.1-7.6 7.1-17.3 10.6-26.9 10.6-10.6 0-21.2-4.2-29-12.5-7.1-7.7-10.9-17.8-10.5-28.3zm-4.1 327.3.7-52.1c0-.8-.6-1.8-1.7-1.8-.9 0-1.8.7-1.8 1.7l-.7 52.3h-16l3.1-95.2c0-.9-.8-1.8-1.7-1.8-1 0-1.7.7-1.7 1.6l-3.1 95.3h-16l.1-2.6c1.4-31.7 7.4-165.2 10.2-212 1-17.3 4.2-30.9 8.2-41.5s8.8-18.1 13.2-23.4c7.6-9.2 16.1-13.6 19.4-15.1l1.5-.7 1.2 1.1c7.9 7.2 18.2 11.2 28.9 11.2h1.1l.7.5c17.7 13 22.7 49.8 24 65l.2 1.9-18.6 6.8-20-50.4c-2-5.4-7-8.9-12.6-8.9-1.5 0-3 .3-4.5.8l-7.3 2.6c-3.4 1.2-6.1 3.6-7.6 6.9-1.5 3.2-1.7 6.8-.5 10.2l.1.5 27 69.9c2 5.3 7 8.9 12.6 8.9 1.5 0 3.1-.3 4.6-.8l27.5-10 10.2 162.7h-47.3c-1 0-1.8.8-1.8 1.8s.8 1.8 1.8 1.8h47.3l.8 12.9h-81.5zm72.3-212.8.4-.2 5-1.9c1-.4 2.1-.6 3.4-.6 4.2 0 7.9 2.7 9.3 6.6l2.6 7.3c.9 2.5.8 5.2-.4 7.5-1.1 2.3-3 4.1-5.6 5l-45.5 16.7c-1 .4-2.1.5-3.4.5-4.2 0-7.9-2.6-9.3-6.6l-.1-.5-27-70.1c-.7-2.4-.5-4.9.5-7.2v-.1c.5-.9 1-1.7 1.4-2.1l3-2.2 14.1 37.2c.3.9 1.2 1.2 1.8 1.2h.2l.3-.1c.6-.2.8-.7 1-.9.2-.4.2-.9 0-1.4l-14-37.4 5-1.9c1-.4 2.1-.6 3.4-.6 3.6 0 6.8 2 8.5 5h.2l21.2 53.6c.3.9 1.3 1.3 2.2 1l20.9-7.6c.4 0 .7-.1.9-.2zm-.7-16 4.2 2.1c.8.4 1.5.9 2 1.4l.2.2c.6.6 1.5 1.5 2.3 2.8l1.7 2.9-3.3.8c-.8.2-1.6.4-2.2.6l-3.6 1-.2-3c-.1-.8-.2-1.8-.3-2.9zm13.5 228.9-11.4-180.4 14.6-5.3c3.4-1.2 6.1-3.6 7.6-6.9 1.5-3.2 1.7-6.8.5-10.2l-2.6-7.3c-1.2-3.5-4-6.4-7.5-7.8l-1.3-.5-.2-1.4c-.4-3-2-5.9-4.6-8.1-2-1.8-4.6-3-7.3-3.5l-1.7-.3-.3-1.7c-.5-3-1.2-6.5-1.9-9.8l-.3-1.3.5-.5c4.1-15.6 10.9-28.3 20.1-37.8 7.5-7.8 14.3-10.8 16.1-11.6l1.5-.6 1.2 1c7.9 7.2 18.2 11.1 28.9 11.1h1.1l.7.5c17.7 13 22.7 49.8 24 65l.2 1.9-18.6 6.8-20-50.4c-2-5.4-7-8.9-12.6-8.9-1.5 0-3 .3-4.5.8l-7.3 2.6c-3.4 1.2-6.1 3.6-7.6 6.9-1.5 3.2-1.7 6.8-.5 10.2l.1.5 26.9 69.9c1.9 5.3 7 8.9 12.6 8.9 1.5 0 3.1-.3 4.6-.8l27.4-10 10.3 162.7h-47.2c-1 0-1.8.8-1.8 1.8s.8 1.8 1.8 1.8h47.3l.8 12.9h-89.6zm285.1-259.1c1.6.4 3.1 1.2 4.7 2.7l.1.1c1.4 1.4 2.3 3 2.8 4.7l.8 2.7-2.8.5c-1.1.2-2.1.4-3 .7l-4.5 1.8-.3-3.3c-.2-2-.5-4.4-.9-7l-.5-3.6zm3.9 14.3c1.4-.4 2.6-.6 3.7-.6 4.9 0 9.2 3 10.8 7.6l3.1 8.5c1 2.9.9 6-.4 8.7-1.2 2.8-3.6 4.9-6.5 5.9l-51.7 18.9c-1.4.4-2.6.6-3.7.6-4.9 0-9.2-3.1-10.8-7.6l-.1-.4-30.8-79.4c-1.1-2.9-.9-6 .5-8.8.4-.8.9-1.6 1.5-2.5l2.6-3.2 18.5 44.2c.3.7 1 1.1 1.8 1.1h.1.2l.2-.1c.9-.4 1.3-1.4.9-2.3l-18.4-43.5 7.2-2.7c1.4-.4 2.6-.6 3.7-.6 4.3 0 8.2 2.3 10.1 6h.1l24 60.6c.3.9 1.3 1.3 2.2 1zm-54.3-177.1 21.5 10.4c.2.1.4.2.7.2.7 0 1.3-.4 1.5-1 .4-.9 0-2-.8-2.4l-21.4-10.3 5.8-11.4c.8-1.5 2.3-2.5 4-2.5.7 0 1.3.2 1.7.3l.3.1 55.9 28c1.1.5 1.9 1.5 2.3 2.6s.3 2.4-.2 3.5l-10.8 21.6-65.1-29.8zm-15.4 18.4c2.2-2 4.6-3.9 7.3-5.5l1.1-.7 66.8 30.5.2 1.3c2.5 15.1-2.7 30.2-13.8 40.4-8.7 8.1-19.8 12.1-30.8 12.1-12.1 0-24.2-4.8-33-14.3-17-18.1-16-46.8 2.2-63.8zm-19 403.5.8-59.4c0-.8-.6-1.8-1.7-1.8-1 0-1.8.8-1.8 1.7l-.8 59.5h-18.6l3.5-108.3c0-.6-.3-1-.5-1.2-.3-.3-.8-.6-1.2-.6-1 0-1.8.8-1.8 1.7l-3.6 108.4h-18.6l.1-2.6c.3-5.7.8-17.2 1.5-32.2 2.6-57.8 7.5-165.3 10.1-209.2 1.2-19.8 4.8-35.2 9.4-47.3 4.6-12 10.1-20.6 15-26.5 9.5-11.5 17.7-15.3 22.1-17.3l1.7-.8 1.2 1.1c9 8.3 20.7 12.9 33.1 12.9h1.3l.7.5c20.3 14.8 26.1 57 27.6 74.5l.2 1.9-21.5 7.9-22.8-57.4c-2.2-6-7.8-9.9-14.1-9.9-1.8 0-3.5.3-5 .8l-8.3 3c-3.9 1.4-6.8 4.1-8.5 7.7s-1.9 7.6-.6 11.4l.1.4 30.6 79.5c2.2 5.9 7.8 9.9 14.1 9.9 1.8 0 3.5-.3 5-.8l31.5-11.6 11.8 185.3h-53.8c-1 0-1.8.8-1.8 1.8s.8 1.8 1.8 1.8h54.1l.9 15.1h-93.2z"
        fill="none" stroke="#d7d7cc" stroke-width="4" />
</svg>