<svg enable-background="new 0 0 555.9 556.1" viewBox="0 0 555.9 556.1" xmlns="http://www.w3.org/2000/svg"><path d="m547.8 217.7c-.6-2.9-2.9-5.2-5.8-5.8l-49.6-13.4c-3.5-1.2-5.8-2.9-7.6-6.4-1.2-3.5-1.2-6.4.6-9.9l25.1-44.9c1.2-2.3 1.2-5.8 0-8.2-21.6-33.8-51.3-63.6-85.2-85.2-2.3-1.8-5.8-1.8-8.2 0l-44.9 25.1c-2.9 1.8-6.4 1.8-9.9.6s-5.2-4.1-6.4-7.6l-14-49.6c-.6-2.9-2.9-4.7-5.8-5.8-39.1-8.8-80.5-8.8-120.2 0-2.9.6-5.2 2.9-5.8 5.8l-13.5 49.6c-1.2 3.5-2.9 5.8-6.4 7.6-3.5 1.2-6.4 1.2-9.9-.6l-44.9-25.1c-2.3-1.2-5.8-1.2-8.2 0-33.9 21.6-63.6 51.3-85.2 85.2-1.8 2.3-1.8 5.8 0 8.2l25.1 44.9c1.8 3.5 1.8 6.4.6 9.9s-4.1 5.8-7.6 6.4l-49.6 13.4c-2.9.6-4.7 2.9-5.8 5.8-2.4 19.9-4.7 39.7-4.7 60.1s2.3 40.2 6.4 60.1c.6 2.9 2.9 5.2 5.8 5.8l49.6 14c3.5 1.2 5.8 2.9 7.6 6.4 1.2 3.5 1.2 6.4-.6 9.9l-25.1 45c-1.2 2.3-1.2 5.8 0 8.2 21.6 33.8 51.3 63.6 85.2 85.2 2.3 1.8 5.8 1.8 8.2 0l44.9-25.1c2.9-1.8 6.4-1.8 9.9-.6s5.8 4.1 6.4 7.6l13.4 49.6c.6 2.9 2.9 4.7 5.8 5.8 19.8 4.1 39.7 6.4 60.1 6.4s40.2-2.3 60.1-6.4c2.9-.6 5.2-2.9 5.8-5.8l14-49.6c1.2-3.5 2.9-5.8 6.4-7.6 3.5-1.2 6.4-1.2 9.9.6l44.9 25.1c2.3 1.2 5.8 1.2 8.2 0 33.8-21.6 63.6-51.3 85.2-85.2 1.8-2.3 1.8-5.8 0-8.2l-25.1-44.9c-1.8-2.9-1.8-6.4-.6-9.9s4.1-5.2 7.6-6.4l49.6-14c2.9-.6 4.7-2.9 5.8-5.8 4.1-19.8 6.4-39.7 6.4-60.1-1.6-20.5-4-40.3-8-60.2zm-14.6 112-45 12.3c-8.2 2.3-14.6 7.6-17.5 15.8-3.5 7.6-2.9 16.3 1.2 23.3l22.8 40.2c-19.2 29.2-44.3 54.2-73.5 73.5l-40.2-22.8c-7.6-4.1-15.8-4.7-23.3-1.2s-13.4 9.3-15.8 17.5l-12.2 44.9c-34.4 7-70 7-104.4 0l-12.2-44.9c-2.3-8.2-7.6-14.6-15.8-17.5-7.6-3.5-16.3-2.9-23.3 1.2l-40.2 22.8c-29.2-19.2-54.2-44.9-73.5-73.5l22.8-40.2c4.1-7.6 4.7-15.8 1.8-23.3-3.5-7.6-9.3-13.4-17.5-15.8l-44.9-12.2c-4.7-16.9-6.4-34.4-6.4-51.9s1.8-35 5.2-51.9l44.9-12.2c8.2-2.3 14.6-7.6 17.5-15.8 3.5-7.6 2.9-16.3-1.8-23.3l-22.8-40.2c19.2-29.2 44.9-54.2 73.5-73.5l40.2 22.8c7.6 4.1 15.8 4.7 23.3 1.2s13.4-9.3 15.8-17.5l12.1-45.2c34.4-7 70-7 104.4 0l12.2 44.9c2.3 8.2 7.6 14.6 15.8 17.5 7.6 3.5 16.3 2.9 23.3-1.2l40.3-22.7c29.2 19.2 54.2 44.9 73.5 73.5l-22.8 40.2c-4.1 7.6-4.7 15.8-1.2 23.3s9.3 13.4 17.5 15.8l44.9 12.2c3.5 16.9 5.2 34.4 5.2 51.9 1.3 17.6-.4 35.1-3.9 52zm-256.1-204.7c-84.6 0-152.8 68.8-152.8 152.8s68.3 152.8 152.8 152.8 152.8-68.2 152.8-152.8-68.2-152.8-152.8-152.8zm0 289.9c-75.8 0-137.1-61.2-137.1-137.1s61.2-137.1 137.1-137.1 137.1 61.3 137.1 137.1-61.3 137.1-137.1 137.1z" stroke="black" stroke-width="10"/></svg>