<svg enable-background="new 0 0 216 206" viewBox="0 0 216 206" xmlns="http://www.w3.org/2000/svg"><path d="m157.6 93-12-14.5-1.8-18.7c0-.3-.3-.6-.7-.7l-18.7-1.8-14.5-12c-.1-.1-.3-.2-.5-.2s-.3.1-.5.2l-14.5 12-18.4 1.9c-.3 0-.6.3-.6.7l-1.8 18.7-12 14.4c-.2.3-.2.7 0 .9l12 14.5 1.8 18.7c0 .3.3.6.6.7l18.7 1.8 14.5 12c.1.1.3.2.5.2s.3-.1.5-.2l14.5-12 18.7-1.8c.3 0 .6-.3.7-.7l1.8-18.7 12-14.5c-.1-.2-.1-.6-.3-.9zm-12.8-7.7-7.2 7.2-7.5-7.5v-10.6h10.2l3.9 4.7zm-8.2 8.2-6.5 6.5v-13zm5.9-32.9 1.5 16-2.8-3.4c-.1-.2-.3-.3-.6-.3h-10.5v-10.4c0-.2-.1-.4-.3-.6l-3.4-2.8zm-13.8 2.2v10.2h-10.6l-7.5-7.5 7.2-7.2 6.1.6zm-4.5 43.1-6.7 6.7h-15.8l-7.5-7.5-3.7-3.7v-15.8l11.2-11.2h15.8l11.2 11.2v15.8zm4.5-2.4v9.1h-9.1l5.5-5.4zm-12.6 10.5-5.7 5.7-.8.8-.8-.8-5.7-5.7zm-16.4-1.4h-9.1v-9.1l2.8 2.8zm-9.2-29v-9.1h9.1zm12.6-10.6 6.5-6.5 6.5 6.5zm16.5 1.4h9.1v9.1zm-10-27.4 12.4 10.2-4.3-.4h-.1c-.2 0-.4.1-.5.2l-7.4 7.4-7.4-7.4c-.1-.1-.3-.2-.5-.2 0 0 0 0-.1 0l-4.3.4zm-14.3 11.9 6.1-.6 7.2 7.2-7.5 7.5h-10.6v-10.2zm-18.6 1.7 16-1.5-3.4 2.8c-.2.1-.3.3-.3.6v10.5h-10.4c-.2 0-.4.1-.6.3l-2.8 3.4zm-1.7 18.6 3.9-4.7h10.2v10.5l-7.5 7.5-7.2-7.2zm14.1 7.8v13l-6.5-6.5zm-15.8 18.9-10.2-12.4 10.2-12.4-.4 4.4c0 .2.1.4.2.6l7.4 7.4-7.4 7.4c-.2.2-.2.4-.2.6zm1.1-4.2 7.2-7.2 7.5 7.5v10.6h-10.2l-3.9-4.7zm2.3 24.7-1.5-16 2.8 3.4c.1.2.3.3.6.3h10.5v10.5c0 .2.1.4.3.6l3.4 2.8zm13.8-2.2v-10.2h10.6l5.7 5.7 1.8 1.8-7.2 7.2-6.1-.6zm19.1 15.8-12.4-10.2 4.4.4h.1c.2 0 .4-.1.5-.2l7.4-7.4 7.4 7.4c.1.1.3.2.5.2h.1l4.4-.4zm14.3-11.9-6.1.6-7.2-7.2 1.8-1.8 5.7-5.7h10.6v10.2zm18.6-1.7-16 1.5 3.4-2.8c.2-.1.3-.3.3-.6v-10.5h10.5c.2 0 .4-.1.6-.3l2.8-3.4zm1.7-18.6-3.9 4.7h-10.2v-10.5l7.5-7.5 7.2 7.2zm1.7-1.9.4-4.4c0-.2-.1-.4-.2-.6l-7.4-7.4 7.4-7.4c.2-.2.2-.4.2-.6l-.4-4.3 10.2 12.4z" fill="#fff"/><g fill="#004357"><path d="m109.6 141.6c-.2 0-.3-.1-.5-.2l-19.8-16.4c-.2-.1-.3-.3-.3-.6v-61.9c0-.2.1-.4.3-.6l19.8-16.4c.1-.1.3-.2.5-.2s.3.1.5.2l19.8 16.4c.2.1.3.3.3.6v62.1c0 .2-.1.4-.3.6l-19.8 16.4c-.2 0-.3 0-.5 0zm-19.1-78.8v61.4l19.1 15.8 19.1-15.8v-61.4l-19.1-15.8z"/><path d="m157.6 93-16.4-19.8c-.1-.2-.3-.3-.6-.3h-62c-.2 0-.4.1-.6.3l-16.4 19.8c-.2.3-.2.7 0 .9l16.4 19.9c.1.2.3.3.6.3h62.1c.2 0 .4-.1.6-.3l16.3-19.8c.2-.3.2-.7 0-1zm-17.3 19.6h-61.4l-15.8-19.1 15.8-19.1h61.4l15.8 19.1z"/><path d="m143.9 59.9c0-.3-.3-.6-.7-.7l-25.6-2.4h-.1c-.2 0-.4.1-.5.2l-43.9 43.9c-.2.2-.2.4-.2.6l2.4 25.6c0 .3.3.6.6.7l25.6 2.4h.1c.2 0 .4-.1.5-.2l10.2-10.2 12.6-12.6 21.1-21.1c.2-.2.2-.4.2-.6zm-19.7 46-13.8 13.8-9 9-24.7-2.3-2.3-24.7 43.4-43.4 24.7 2.3 2.3 24.7z"/><path d="m146.1 100.9-43.9-43.9c-.1-.1-.3-.2-.5-.2 0 0 0 0-.1 0l-25.6 2.4c-.3 0-.6.3-.6.7l-2.4 25.6c0 .2.1.4.2.6l20.2 20.2 13.5 13.5 10.1 10.2c.1.1.3.2.5.2h.1l25.6-2.4c.3 0 .6-.3.7-.7l2.4-25.6c0-.2-.1-.4-.2-.6zm-3.6 25.5-24.7 2.3-9-9-14.6-14.6-19.8-19.8 2.3-24.7 24.7-2.3 43.4 43.4z"/><path d="m125 107-5.4 5.5-1.5 1.4h-17l-1.5-1.4-6.4-6.4c.3-.4.6-.8.9-1.1 3.9-4.5 9.4-7.6 12.5-10h-.2c-.4 0-.7-.3-.7-.7s.3-.7.7-.7h.7c-.1-.1-.2-.3-.2-.5 0-.4.3-.7.7-.7h.6l.3-7c-1.3-.2-2.5-1-3.4-2.2-1.6-2.4-1-5.6 1.4-7.2.8-.5 1.6-.8 2.5-.9-.2.1-.5.2-.7.4-2 1.4-2.5 4.1-1.2 6.1 1.4 2 4.1 2.5 6.1 1.2.5-.3.9-.7 1.2-1.2-.3 1.2-1 2.3-2.1 3-1 .7-2.2 1-3.4.9l.3 6.9h.6c.4 0 .7.3.7.7 0 .2-.1.4-.2.5h.7c.4 0 .7.3.7.7s-.3.7-.7.7c3.3 2.5 9.4 5.7 13.3 10.8.2.5.5.8.7 1.2z"/><path d="m85.1 38.3c0-.1 0-.2.1-.3s.2-.1.3-.1.2 0 .3.1.1.2.1.3 0 .2-.1.3-.2.1-.3.1-.2 0-.3-.1-.1-.2-.1-.3"/><path d="m94.9 52.9c0 .1 0 .1 0 0-.2.1-.2.1-.2 0s0-.1.1-.1c0 0 .1 0 .1.1z"/><path d="m96.4 51.7c0 .1-.1.1 0 0-.2.1-.2 0-.2 0 0-.1.1-.1.2 0 0-.1 0-.1 0 0z"/><path d="m96 45.7c0 .3-.3.6-.6.6s-.6-.3-.6-.6.3-.6.6-.6.6.2.6.6z"/><path d="m92.1 32.6c0 .4-.3.7-.7.7s-.7-.3-.7-.7.3-.7.7-.7c.4.1.7.4.7.7z"/><path d="m97.1 36.5c0 .3-.3.6-.6.6s-.6-.3-.6-.6.3-.6.6-.6.6.3.6.6z"/><path d="m98.4 31.9c0 .3-.2.5-.5.5s-.5-.2-.5-.5.2-.5.5-.5.5.3.5.5z"/><path d="m102.8 46.6c0 .3-.3.6-.6.6s-.6-.3-.6-.6.3-.6.6-.6.6.3.6.6z"/><path d="m102.8 38.4c0 .1-.1.2-.2.2s-.2-.1-.2-.2.1-.2.2-.2.2.1.2.2z"/><path d="m102.8 28.1c0-.1 0-.2.1-.2.1-.1.1-.1.2-.1h.2c.1 0 .2.1.2.1 0 .1.1.2.1.2s0 .2-.1.2c-.1.1-.1.1-.2.1s-.2 0-.2 0c-.1 0-.1-.1-.2-.1s-.1-.1-.1-.2"/><path d="m113.2 28.1c0 .2-.1.3-.3.3s-.3-.1-.3-.3.1-.3.3-.3.3.2.3.3z"/><path d="m112.7 49.7c0 .4-.3.7-.7.7s-.7-.3-.7-.7.3-.7.7-.7.7.3.7.7z"/><path d="m115.4 41c0 .4-.3.7-.7.7s-.7-.3-.7-.7.3-.7.7-.7.7.3.7.7z"/><path d="m114.6 53.6c0 .1-.1.2-.2.2s-.2-.1-.2-.2.1-.2.2-.2c.1.1.2.1.2.2z"/><path d="m123.1 42.3c0 .4-.3.7-.7.7s-.7-.3-.7-.7.3-.7.7-.7.7.3.7.7z"/><path d="m126.3 31.7c0 .3-.2.5-.5.5s-.5-.2-.5-.5.2-.5.5-.5.5.2.5.5z"/><path d="m125.1 50.8c0 .2-.2.4-.4.4s-.4-.2-.4-.4.2-.4.4-.4.4.2.4.4z"/><path d="m128.8 39.2c0 .1-.1.2-.2.2s-.2-.1-.2-.2.1-.2.2-.2c.1.1.2.2.2.2z"/><path d="m129.6 50.3c0 .4-.3.7-.7.7s-.7-.3-.7-.7.3-.7.7-.7c.3 0 .7.3.7.7z"/><path d="m132.3 44.4c0 .2-.1.3-.3.3s-.3-.1-.3-.3.1-.3.3-.3.3.2.3.3z"/><path d="m138.8 33.2c0 .2-.2.4-.4.4s-.4-.2-.4-.4.2-.4.4-.4.4.2.4.4z"/><path d="m140.3 35c0 .4-.3.7-.7.7s-.7-.3-.7-.7.3-.7.7-.7.7.3.7.7z"/><path d="m144.7 34.7c0 .2-.2.4-.4.4s-.4-.2-.4-.4.2-.4.4-.4c.3 0 .4.1.4.4z"/><path d="m140.6 48.7c0 .4-.3.7-.7.7s-.7-.3-.7-.7.3-.7.7-.7.7.3.7.7z"/><path d="m144 46.9c0 .4-.3.7-.7.7s-.7-.3-.7-.7.3-.7.7-.7.7.3.7.7z"/><path d="m143.2 56.5c0 .2-.1.3-.3.3s-.3-.1-.3-.3.1-.3.3-.3c.1 0 .3.1.3.3z"/><path d="m151.5 50.2c0 .1-.1.1-.1.1-.1 0-.1-.1-.1-.1 0-.1.1-.1.1-.1.1 0 .1.1.1.1z"/><path d="m147.1 56.1c0 .2-.2.4-.4.4s-.4-.2-.4-.4.2-.4.4-.4.4.2.4.4z"/><path d="m145.1 60.1c0 .3-.3.6-.6.6s-.6-.3-.6-.6.3-.6.6-.6.6.3.6.6z"/><path d="m146.6 61.2c0 .3-.3.6-.6.6s-.6-.3-.6-.6.3-.6.6-.6.6.3.6.6z"/><path d="m152.7 58.3c0-.1 0-.2.1-.4.1-.1.2-.2.3-.2h.4c.1 0 .2.1.3.2s.1.2.1.4 0 .2-.1.4c-.1.1-.2.2-.3.2s-.2 0-.4 0c-.1 0-.2-.1-.3-.2-.1-.2-.1-.3-.1-.4"/><path d="m166 51.5c0 .2-.1.3-.3.3s-.3-.1-.3-.3.1-.3.3-.3.3.1.3.3z"/><path d="m150 65.2c0 .1-.1.1-.1.1-.1 0-.1-.1-.1-.1 0-.1.1-.1.1-.1 0-.1.1 0 .1.1z"/><path d="m160.4 60.2c0 .2-.1.3-.3.3s-.3-.1-.3-.3.1-.3.3-.3c.1 0 .3.1.3.3z"/><path d="m164.4 59.8c0 .3-.2.5-.5.5s-.5-.2-.5-.5.2-.5.5-.5.5.2.5.5z"/><path d="m172.4 63.4c0 .4-.3.7-.7.7s-.7-.3-.7-.7.3-.7.7-.7c.3 0 .7.3.7.7z"/><path d="m153.7 71.5c0 .3-.2.6-.6.6-.3 0-.6-.2-.6-.6 0-.3.2-.6.6-.6.3 0 .6.3.6.6z"/><path d="m157.1 71.8c0-.1.1-.3.1-.4.1-.1.2-.1.4-.1.1 0 .3.1.4.1.1.1.1.2.1.4 0 .1-.1.3-.1.4-.1.1-.2.1-.4.1-.1 0-.3-.1-.4-.1 0-.1-.1-.3-.1-.4"/><path d="m172.7 69.1c0 .3-.3.6-.6.6s-.6-.3-.6-.6.3-.6.6-.6c.4 0 .6.2.6.6z"/><path d="m162.4 74.3c0 .4-.3.7-.7.7s-.7-.3-.7-.7.3-.7.7-.7c.4.1.7.4.7.7z"/><path d="m153.6 78.9c0 .1-.1.2-.2.2s-.2-.1-.2-.2.1-.2.2-.2.2.1.2.2z"/><path d="m170.1 76.3c0 .1-.1.1-.1.1-.1 0-.1-.1-.1-.1 0-.1.1-.1.1-.1 0-.1.1 0 .1.1z"/><path d="m171 78c0 .3-.3.6-.6.6s-.6-.3-.6-.6.3-.6.6-.6.6.2.6.6z"/><path d="m177.4 78c0 .2-.2.4-.4.4s-.4-.2-.4-.4.2-.4.4-.4.4.2.4.4z"/><path d="m165.7 83.3c0 .1-.1.2-.2.2s-.2-.1-.2-.2.1-.2.2-.2.2.1.2.2z"/><path d="m156.6 85.4c0 .4-.3.7-.7.7s-.7-.3-.7-.7.3-.7.7-.7.7.3.7.7z"/><path d="m157.1 88.8c0 .3-.3.6-.6.6s-.6-.3-.6-.6.3-.6.6-.6.6.3.6.6z"/><path d="m172.8 91.1c0 .3-.3.6-.6.6s-.6-.3-.6-.6.3-.6.6-.6.6.3.6.6z"/><path d="m174.9 93.2c0 .3-.2.5-.5.5s-.5-.2-.5-.5.2-.5.5-.5c.3.1.5.3.5.5z"/><path d="m160.7 94.9c0 .2-.2.4-.4.4s-.4-.2-.4-.4.2-.4.4-.4.4.1.4.4z"/><path d="m162.7 96.7c0 .4-.3.7-.7.7s-.7-.3-.7-.7.3-.7.7-.7.7.4.7.7z"/><path d="m178.4 101.2c0 .4-.3.6-.6.6-.4 0-.6-.3-.6-.6 0-.4.3-.6.6-.6.3-.1.6.2.6.6z"/><path d="m176.9 106.5c0 .1-.1.2-.2.2s-.2-.1-.2-.2.1-.2.2-.2.2.1.2.2z"/><path d="m176.3 108.4c0 .4-.3.7-.7.7s-.7-.3-.7-.7.3-.7.7-.7c.3 0 .7.3.7.7z"/><path d="m174.9 110.2c0 .1-.1.1-.1.1-.1 0-.1-.1-.1-.1 0-.1.1-.1.2 0-.1-.1 0-.1 0 0z"/><path d="m157.2 106.8c0 .1-.1.1 0 0-.2.1-.2 0-.2 0 0-.1.1-.1.1-.1z"/><path d="m159.8 109.7c0 .2-.1.3-.3.3s-.3-.1-.3-.3.1-.3.3-.3c.1 0 .3.1.3.3z"/><path d="m153.1 109.4c0 .1-.1.3-.3.3-.1 0-.3-.1-.3-.3 0-.1.1-.3.3-.3s.3.1.3.3z"/><path d="m170.4 117.5c0 .2-.2.4-.4.4s-.4-.2-.4-.4.2-.4.4-.4.4.2.4.4z"/><path d="m163.2 117c0 .1-.1.1 0 0-.2.1-.2 0-.2 0 0-.1.1-.1.2 0 0-.1 0 0 0 0z"/><path d="m161.7 118.6c0 .3-.2.5-.5.5s-.5-.2-.5-.5.2-.5.5-.5.5.2.5.5z"/><path d="m150.4 115.4c0-.1 0-.2.1-.4.1-.1.2-.2.3-.2h.4c.1 0 .2.1.3.2s.1.2.1.4 0 .2-.1.4c-.1.1-.2.2-.3.2s-.2 0-.4 0c-.1 0-.2-.1-.3-.2s-.1-.3-.1-.4"/><path d="m151.7 122.1c0 .1-.1.1 0 0-.2.1-.3 0-.3 0 0-.1.1-.1.3 0-.1-.2 0-.1 0 0z"/><path d="m152.7 124.8c0 .1-.1.2-.2.2s-.2-.1-.2-.2.1-.2.2-.2c.2 0 .2.1.2.2z"/><path d="m159.5 131.5c0 .1-.1.2-.2.2s-.2-.1-.2-.2.1-.2.2-.2c.2 0 .2.1.2.2z"/><path d="m154.2 131.3c0-.2.1-.4.2-.5s.3-.2.5-.2.4.1.5.2.2.3.2.5-.1.4-.2.5-.3.2-.5.2-.4-.1-.5-.2-.2-.3-.2-.5"/><path d="m152.6 131.7c0 .2-.2.4-.4.4s-.4-.2-.4-.4.2-.4.4-.4.4.2.4.4z"/><path d="m148.6 130.7c0 .1-.1.2-.2.2s-.2-.1-.2-.2.1-.2.2-.2c.2 0 .2.1.2.2z"/><path d="m151.6 136c0 .1-.1.1-.1.1l-.1-.1c0-.1.1-.1.1-.1z"/><path d="m142.6 129.7c0 .3-.2.5-.5.5s-.5-.2-.5-.5.2-.5.5-.5.5.2.5.5z"/><path d="m149.3 139.2c0 .4-.3.7-.7.7s-.7-.3-.7-.7.3-.7.7-.7.7.3.7.7z"/><path d="m141.9 135.1c0 .2-.2.4-.5.4-.2 0-.4-.2-.4-.4s.2-.5.4-.5c.3 0 .5.2.5.5z"/><path d="m143.4 138.4c0 .3-.3.6-.6.6s-.6-.3-.6-.6.3-.6.6-.6.6.3.6.6z"/><path d="m140.7 139.4c0-.1 0-.2.1-.2.1-.1.1-.1.2-.1h.2c.1 0 .1.1.2.1.1.1.1.2.1.2 0 .1 0 .2-.1.2-.1.1-.1.1-.2.1s-.2 0-.2 0c-.1 0-.1-.1-.2-.1s-.1-.1-.1-.2"/><path d="m142.1 144.2c0 .1-.1.2-.2.2s-.2-.1-.2-.2.1-.2.2-.2.2.1.2.2z"/><path d="m145.2 153.1c0 .2-.2.3-.3.3-.2 0-.3-.2-.3-.3 0-.2.2-.3.3-.3.1-.1.3.1.3.3z"/><path d="m133.1 137.4c0 .1-.1.2-.2.2s-.2-.1-.2-.2.1-.2.2-.2.2.1.2.2z"/><path d="m135.6 145.5c0 .1-.1.2-.2.2s-.2-.1-.2-.2.1-.2.2-.2.2 0 .2.2z"/><path d="m137.5 151.5c0 .3-.3.6-.6.6s-.6-.3-.6-.6.3-.6.6-.6c.4 0 .6.3.6.6z"/><path d="m133.7 151.8c0 .2-.2.4-.4.4s-.4-.2-.4-.4.2-.4.4-.4.4.2.4.4z"/><path d="m129.5 146.7c0-.1 0-.1.1-.1 0 0 .1-.1.1-.1.1 0 .1 0 .1.1 0 0 .1.1.1.1 0 .1 0 .1-.1.1 0 0-.1.1-.1.1-.1 0-.1 0-.1-.1-.1 0-.1 0-.1-.1"/><path d="m126.6 141.5c0 .2-.2.4-.4.4s-.4-.2-.4-.4.2-.4.4-.4.4.2.4.4z"/><path d="m129.3 160.3c0 .1-.1.2-.2.2s-.2-.1-.2-.2.1-.2.2-.2.2.1.2.2z"/><path d="m123.6 147.3c0 .1-.1.2-.2.2s-.2-.1-.2-.2.1-.2.2-.2.2.1.2.2z"/><path d="m120.3 139.9c0 .4-.3.6-.6.6s-.6-.3-.6-.6c0-.4.3-.6.6-.6s.6.2.6.6z"/><path d="m123.1 160.3c0 .3-.2.6-.6.6-.3 0-.6-.2-.6-.6 0-.3.2-.6.6-.6.4.1.6.3.6.6z"/><path d="m117.9 140.8c0 .3-.3.6-.6.6s-.6-.3-.6-.6.3-.6.6-.6.6.2.6.6z"/><path d="m113.6 140.1c0 .2-.2.3-.3.3-.2 0-.3-.2-.3-.3 0-.2.2-.3.3-.3.2-.1.3.1.3.3z"/><path d="m112 140.9c0 .1-.1.2-.2.2s-.2-.1-.2-.2.1-.2.2-.2c0 0 .2.1.2.2z"/><path d="m110.2 147.1c0 .3-.2.5-.5.5s-.5-.2-.5-.5.2-.5.5-.5.5.2.5.5z"/><path d="m108.3 164.7c0 .1-.1.2-.2.2s-.2-.1-.2-.2.1-.2.2-.2.2.1.2.2z"/><path d="m104.8 158.5c0-.2.1-.3.2-.4s.3-.2.4-.2c.2 0 .3.1.4.2s.2.3.2.4-.1.3-.2.4-.3.2-.4.2c-.2 0-.3-.1-.4-.2s-.2-.2-.2-.4"/><path d="m103.7 155.1c0 .1-.1.3-.3.3-.1 0-.3-.1-.3-.3 0-.1.1-.3.3-.3.1 0 .3.1.3.3z"/><path d="m103.6 139.5c0 .2-.2.4-.4.4s-.4-.2-.4-.4.2-.4.4-.4c.3 0 .4.2.4.4z"/><path d="m100.4 148.1c0 .1-.1.1 0 0-.2.1-.2 0-.2 0 0-.1.1-.1.1-.1s.1 0 .1.1z"/><path d="m95.2 160.8c0 .2-.1.3-.3.3s-.3-.1-.3-.3.1-.3.3-.3c.1-.1.3.1.3.3z"/><path d="m95.1 148.2c0 .3-.2.5-.5.5s-.5-.2-.5-.5.2-.5.5-.5c.2 0 .5.2.5.5z"/><path d="m91.8 154.8c0 .2-.1.3-.3.3s-.3-.1-.3-.3.1-.3.3-.3.3.2.3.3z"/><path d="m88.6 158.6c0 .3-.2.5-.5.5s-.5-.2-.5-.5.2-.5.5-.5.5.2.5.5z"/><path d="m87.1 157.7c0 .3-.3.6-.6.6s-.6-.3-.6-.6.3-.6.6-.6c.3.1.6.3.6.6z"/><path d="m86.5 150.9c0 .1-.1.2-.2.2s-.2-.1-.2-.2.1-.2.2-.2c.2 0 .2.1.2.2z"/><path d="m81.4 158c0 .4-.3.7-.7.7s-.7-.3-.7-.7.3-.7.7-.7.7.3.7.7z"/><path d="m75.1 155.8c0 .3-.2.6-.6.6-.3 0-.6-.2-.6-.6 0-.3.2-.6.6-.6s.6.3.6.6z"/><path d="m74.4 153.5c0 .3-.3.6-.6.6s-.6-.3-.6-.6.3-.6.6-.6c.4-.1.6.2.6.6z"/><path d="m83.4 135.7c0 .4-.3.7-.7.7s-.7-.3-.7-.7.3-.7.7-.7.7.3.7.7z"/><path d="m77 138.8c0 .1-.1.2-.2.2s-.2-.1-.2-.2.1-.2.2-.2.2.1.2.2z"/><path d="m63.2 142.6c0 .1-.1.3-.3.3-.1 0-.3-.1-.3-.3 0-.1.1-.3.3-.3s.3.1.3.3z"/><path d="m68.3 138.5c0 .1-.1.3-.3.3-.1 0-.3-.1-.3-.3 0-.1.1-.3.3-.3s.3.1.3.3z"/><path d="m78.5 131.5c0 .1-.1.1-.1.1-.1 0-.1-.1-.1-.1 0-.1.1-.1.1-.1s.1 0 .1.1z"/><path d="m63.5 135.7c0 .3-.2.5-.5.5s-.5-.2-.5-.5.2-.5.5-.5c.3.1.5.3.5.5z"/><path d="m62.7 134.9c0 .1-.1.1-.1.1-.1 0-.1-.1-.1-.1 0-.1.1-.1.1-.1.1-.1.1 0 .1.1z"/><path d="m64.7 131.5c0 .2-.2.4-.4.4s-.4-.2-.4-.4.2-.4.4-.4.4.2.4.4z"/><path d="m64.5 135.6c0 .4-.3.7-.7.7s-.7-.3-.7-.7.3-.7.7-.7c.4.1.7.4.7.7z"/><path d="m66.8 129.8c0 .3-.3.6-.6.6s-.6-.3-.6-.6.3-.6.6-.6.6.2.6.6z"/><path d="m63.3 130.4c0 .2-.1.3-.3.3s-.3-.1-.3-.3.1-.3.3-.3.3.2.3.3z"/><path d="m63.7 129.4c0 .3-.2.5-.5.5s-.5-.2-.5-.5.2-.5.5-.5.5.2.5.5z"/><path d="m70.8 117.5c0 .2-.1.3-.3.3s-.3-.1-.3-.3.1-.3.3-.3c.1 0 .3.1.3.3z"/><path d="m67.2 119c0 .2-.2.4-.4.4s-.4-.2-.4-.4.2-.4.4-.4.4.2.4.4z"/><path d="m68.2 114.7c0 .1-.1.2-.2.2s-.2-.1-.2-.2.1-.2.2-.2.2 0 .2.2z"/><path d="m64.8 115.3c0 .3-.2.5-.5.5s-.5-.2-.5-.5.2-.5.5-.5.5.3.5.5z"/><path d="m69.4 109.4c0 .3-.3.6-.6.6s-.6-.3-.6-.6.3-.6.6-.6.6.3.6.6z"/><path d="m68.5 108c0 .4-.3.7-.7.7s-.7-.3-.7-.7.3-.7.7-.7.7.3.7.7z"/><path d="m56.6 112.9c0 .2-.2.4-.4.4s-.4-.2-.4-.4.2-.4.4-.4c.2.1.4.2.4.4z"/><path d="m59.6 109.2c0 .3-.3.6-.6.6s-.6-.3-.6-.6.3-.6.6-.6.6.3.6.6z"/><path d="m44.6 114.3c0 .2-.2.4-.4.4s-.4-.2-.4-.4.2-.4.4-.4.4.2.4.4z"/><path d="m46.4 111.6c0 .3-.2.5-.5.5s-.5-.2-.5-.5.2-.5.5-.5c.2 0 .5.2.5.5z"/><path d="m66.6 100.5c0 .3-.2.5-.5.5s-.5-.2-.5-.5.2-.5.5-.5.5.2.5.5z"/><path d="m59.2 101.7c0 .3-.3.6-.6.6s-.6-.3-.6-.6.3-.6.6-.6c.3.1.6.3.6.6z"/><path d="m45.9 104.5c0-.2.1-.3.2-.4s.3-.2.4-.2.3.1.4.2.2.3.2.4-.1.3-.2.4-.3.2-.4.2-.3-.1-.4-.2-.2-.2-.2-.4"/><path d="m65.6 95.9c0 .4-.3.7-.7.7s-.7-.3-.7-.7.3-.7.7-.7.7.3.7.7z"/><path d="m57.3 97c0 .1-.1.2-.2.2s-.2-.1-.2-.2.1-.2.2-.2.2.1.2.2z"/><path d="m61.3 94c0 .2-.2.4-.4.4s-.4-.2-.4-.4.2-.4.4-.4.4.2.4.4z"/><path d="m54.8 94c0 .1-.1.3-.3.3-.1 0-.3-.1-.3-.3 0-.1.1-.3.3-.3.1 0 .3.1.3.3z"/><path d="m61 91c0 .4-.3.7-.7.7s-.7-.3-.7-.7.3-.7.7-.7.7.3.7.7z"/><path d="m46 91c0 .3-.2.5-.5.5s-.5-.2-.5-.5.2-.5.5-.5.5.3.5.5z"/><path d="m46.9 89.2c0 .1 0 .1-.1.1s-.1 0-.1-.1 0-.1.1-.1c0 0 .1 0 .1.1z"/><path d="m39.5 87.1c0 .1-.1.1-.2.1s-.1-.1-.1-.1l.1-.1c.2 0 .2 0 .2.1z"/><path d="m42.9 85.4c0 .3-.3.6-.6.6s-.6-.3-.6-.6.3-.6.6-.6.6.3.6.6z"/><path d="m59.9 85.5c0 .4-.3.7-.7.7s-.7-.3-.7-.7.3-.7.7-.7.7.3.7.7z"/><path d="m62.4 84.1c0 .2-.1.3-.3.3s-.3-.1-.3-.3.1-.3.3-.3.3.1.3.3z"/><path d="m63.8 82.7c0 .2-.2.4-.4.4s-.4-.2-.4-.4.2-.4.4-.4.4.2.4.4z"/><path d="m64.4 82.7c0 .2-.2.4-.4.4s-.4-.2-.4-.4.2-.4.4-.4.4.2.4.4z"/><path d="m59.1 78.1c0-.1 0-.1.1-.2 0-.1.1-.1.1-.1h.2c.1 0 .1.1.2.1 0 .1.1.1.1.2s0 .1-.1.2c0 .1-.1.1-.2.1s-.1 0-.2 0-.1-.1-.1-.1c-.1-.1-.1-.1-.1-.2"/><path d="m54 71c0 .3-.3.6-.6.6s-.6-.3-.6-.6.3-.6.6-.6.6.3.6.6z"/><path d="m55.1 70.5c0-.1.1-.3.1-.4.1-.1.2-.1.4-.1.1 0 .3.1.4.1.1.1.1.2.1.4s-.1.3-.1.4c-.1.1-.2.1-.4.1-.1 0-.3-.1-.4-.1 0-.1-.1-.3-.1-.4"/><path d="m76.6 80.1c0 .2-.2.4-.4.4s-.4-.2-.4-.4.2-.4.4-.4.4.2.4.4z"/><path d="m63.3 71.3c0 .3-.3.6-.6.6s-.6-.3-.6-.6.3-.6.6-.6c.3-.1.6.2.6.6z"/><path d="m69.9 73.6c0 .1-.1.2-.2.2s-.2-.1-.2-.2.1-.2.2-.2.2.1.2.2z"/><path d="m65.3 68.9c0 .2-.2.4-.4.4s-.4-.2-.4-.4.2-.4.4-.4c.3.1.4.2.4.4z"/><path d="m79.6 72.4c0 .4-.3.6-.6.6-.4 0-.6-.3-.6-.6 0-.4.3-.6.6-.6.4 0 .6.3.6.6z"/><path d="m73.4 68.4c0 .3-.2.5-.5.5s-.5-.2-.5-.5.2-.5.5-.5.5.2.5.5z"/><path d="m55.5 64c0 .1 0 .1 0 0-.2.1-.2.1-.2 0s0-.1.2 0c-.1-.2 0-.1 0 0z"/><path d="m62.2 61.5c0 .1-.1.2-.2.2s-.2-.1-.2-.2.1-.2.2-.2.2.1.2.2z"/><path d="m57.3 59c0 .4-.3.7-.7.7s-.7-.3-.7-.7.3-.7.7-.7.7.3.7.7z"/><path d="m73.5 59.2c0 .3-.2.5-.5.5s-.5-.2-.5-.5.2-.5.5-.5.5.2.5.5z"/><path d="m70.1 56.7c0 .2-.2.4-.4.4s-.4-.2-.4-.4.2-.4.4-.4.4.2.4.4z"/><path d="m77.3 57.6c0-.1 0-.1.1-.2 0-.1.1-.1.2-.1h.2c.1 0 .1.1.2.1 0 .1.1.1.1.2s0 .1-.1.2c0 .1-.1.1-.2.1s-.1 0-.2 0-.1-.1-.2-.1c-.1-.1-.1-.1-.1-.2"/><path d="m75.8 54.7c0 .2-.2.3-.3.3-.2 0-.3-.2-.3-.3 0-.2.2-.3.3-.3.2-.1.3.1.3.3z"/><path d="m76.2 55.2c0 .2-.2.4-.4.4s-.4-.2-.4-.4.2-.4.4-.4.4.2.4.4z"/><path d="m65.9 44.6c0 .2-.1.3-.3.3s-.3-.1-.3-.3.1-.3.3-.3c.1-.1.3.1.3.3z"/><path d="m72.1 47.1c0 .3-.3.6-.6.6s-.6-.3-.6-.6.3-.6.6-.6c.4 0 .6.2.6.6z"/><path d="m71.4 42.1c0 .3-.2.5-.5.5s-.5-.2-.5-.5.2-.5.5-.5c.2 0 .5.3.5.5z"/><path d="m69.3 34.4c0 .4-.3.7-.7.7s-.7-.3-.7-.7.3-.7.7-.7c.4.1.7.4.7.7z"/><path d="m79.3 34.1c0 .2-.2.4-.4.4s-.4-.2-.4-.4.2-.4.4-.4c.3 0 .4.2.4.4z"/><path d="m111 73.9c0 .2-.2.4-.4.4s-.4-.2-.4-.4.2-.4.4-.4c.3-.1.4.1.4.4z"/><path d="m107.7 65.8c0 .4-.3.7-.7.7s-.7-.3-.7-.7.3-.7.7-.7.7.3.7.7z"/><path d="m105.8 53.3c0 .1-.1.1 0 0-.2.1-.2 0-.2 0 0-.1.1-.1.1-.1s.1 0 .1.1z"/><path d="m119 70.7c0 .1-.1.2-.2.2s-.2-.1-.2-.2.1-.2.2-.2c.1-.1.2 0 .2.2z"/><path d="m133.6 47.8c0 .1-.1.2-.2.2s-.2-.1-.2-.2.1-.2.2-.2.2.1.2.2z"/><path d="m163.7 24.3c0 .3-.3.6-.6.6s-.6-.3-.6-.6.3-.6.6-.6c.4 0 .6.3.6.6z"/><path d="m120.6 72.2c0 .4-.3.6-.6.6-.4 0-.6-.3-.6-.6 0-.4.3-.6.6-.6s.6.3.6.6z"/><path d="m177 43.5c0 .3-.2.5-.5.5s-.5-.2-.5-.5.2-.5.5-.5.5.2.5.5z"/><path d="m129.2 81.8c0 .4-.3.6-.6.6-.4 0-.6-.3-.6-.6 0-.4.3-.6.6-.6s.6.3.6.6z"/><path d="m170.6 76.7c0 .3-.2.5-.5.5s-.5-.2-.5-.5.2-.5.5-.5c.3.1.5.3.5.5z"/><path d="m144.8 83.9c0 .1-.1.2-.2.2s-.2-.1-.2-.2.1-.2.2-.2c.1-.1.2 0 .2.2z"/><path d="m164.6 92c0 .1-.1.2-.2.2s-.2-.1-.2-.2.1-.2.2-.2c.1-.1.2 0 .2.2z"/><path d="m164.4 97.7c0 .3-.3.6-.6.6s-.6-.3-.6-.6.3-.6.6-.6.6.3.6.6z"/><path d="m183.3 101.3c0 .1-.1.2-.2.2s-.2-.1-.2-.2.1-.2.2-.2.2.1.2.2z"/><path d="m147.1 103.6c0 .3-.2.5-.5.5s-.5-.2-.5-.5.2-.5.5-.5.5.2.5.5z"/><path d="m125.8 106.5c0 .3-.3.6-.6.6s-.6-.3-.6-.6.3-.6.6-.6c.3.1.6.3.6.6z"/><path d="m164.7 126.9c0 .3-.2.5-.5.5s-.5-.2-.5-.5.2-.5.5-.5.5.2.5.5z"/><path d="m156.2 130.7c0 .2-.1.3-.3.3s-.3-.1-.3-.3.1-.3.3-.3c.1 0 .3.1.3.3z"/><path d="m185.5 167.3c0 .4-.3.7-.7.7s-.7-.3-.7-.7.3-.7.7-.7.7.3.7.7z"/><path d="m170.2 158.7c0 .2-.1.3-.3.3s-.3-.1-.3-.3.1-.3.3-.3c.2-.1.3.1.3.3z"/><path d="m132.5 121.5c0 .4-.3.7-.7.7s-.7-.3-.7-.7.3-.7.7-.7.7.3.7.7z"/><path d="m152.8 168.1c0 .2-.2.3-.3.3-.2 0-.3-.2-.3-.3 0-.2.2-.3.3-.3s.3.1.3.3z"/><path d="m117.4 137.5c0 .3-.3.6-.6.6s-.6-.3-.6-.6.3-.6.6-.6c.3-.1.6.2.6.6z"/><path d="m112.1 156.7c0 .3-.2.5-.5.5s-.5-.2-.5-.5.2-.5.5-.5c.2-.1.5.2.5.5z"/><path d="m108.6 179.8c0 .2-.1.3-.3.3s-.3-.1-.3-.3.1-.3.3-.3.3.1.3.3z"/><path d="m102.8 139.9c0 .3-.3.6-.6.6s-.6-.3-.6-.6.3-.6.6-.6c.4 0 .6.3.6.6z"/><path d="m97.5 118.8c0 .1-.1.2-.2.2s-.2-.1-.2-.2.1-.2.2-.2.2.1.2.2z"/><path d="m90.9 124.2c0-.1 0-.2.1-.3s.2-.1.3-.1.2 0 .3.1.1.2.1.3 0 .2-.1.3-.2.1-.3.1-.2 0-.3-.1-.1-.2-.1-.3"/><path d="m86.7 120.2c0 .4-.3.6-.6.6-.4 0-.6-.3-.6-.6s.3-.6.6-.6c.3-.1.6.2.6.6z"/><path d="m71.3 161.6c0 .3-.3.6-.6.6s-.6-.3-.6-.6.3-.6.6-.6c.4 0 .6.3.6.6z"/><path d="m43.2 174.2c0 .3-.2.5-.5.5s-.5-.2-.5-.5.2-.5.5-.5.5.2.5.5z"/><path d="m75.2 142c0 .1-.1.1-.1.1-.1 0-.1-.1-.1-.1 0-.1.1-.1.1-.1s.1 0 .1.1z"/><path d="m83.5 138.3c0 .3-.2.5-.5.5s-.5-.2-.5-.5.2-.5.5-.5c.2-.1.5.2.5.5z"/><path d="m96.3 136.4c0 .2-.2.4-.4.4s-.4-.2-.4-.4.2-.4.4-.4.4.2.4.4z"/><path d="m45.5 144.9c0 .4-.3.7-.7.7s-.7-.3-.7-.7.3-.7.7-.7.7.3.7.7z"/><path d="m87 127.3c0 .2-.2.4-.4.4s-.4-.2-.4-.4.2-.4.4-.4.4.2.4.4z"/><path d="m37.4 142.1c0 .1-.1.2-.2.2s-.2-.1-.2-.2.1-.2.2-.2.2.1.2.2z"/><path d="m59.3 132.1c0 .1-.1.2-.2.2s-.2-.1-.2-.2.1-.2.2-.2.2.1.2.2z"/><path d="m79.9 103.2c0 .2-.1.3-.3.3s-.3-.1-.3-.3.1-.3.3-.3.3.2.3.3z"/><path d="m42.5 117.3c0 .1-.1.2-.2.2s-.2-.1-.2-.2.1-.2.2-.2c.1-.1.2 0 .2.2z"/><path d="m86.7 97.7c0 .2-.2.3-.3.3-.2 0-.3-.2-.3-.3 0-.2.2-.3.3-.3.2 0 .3.1.3.3z"/><path d="m94.1 95.8c0 .1-.1.1 0 0-.2.1-.2 0-.2 0 0-.1.1-.1.1-.1z"/><path d="m39.4 107.8c0 .2-.2.4-.4.4s-.4-.2-.4-.4.2-.4.4-.4c.3.1.4.2.4.4z"/><path d="m59.5 101.2c0 .1-.1.2-.2.2s-.2-.1-.2-.2.1-.2.2-.2.2.1.2.2z"/><path d="m11.1 81.7c0 .1-.1.3-.3.3s-.3-.1-.3-.3c0-.1.1-.3.3-.3s.3.1.3.3z"/><path d="m69.6 104.3c0 .2-.1.3-.3.3s-.3-.1-.3-.3.1-.3.3-.3.3.1.3.3z"/><path d="m59.6 83.8c0-.1 0-.1.1-.1 0 0 .1-.1.1-.1.1 0 .1 0 .1.1 0 0 .1.1.1.1 0 .1 0 .1-.1.1 0 0-.1.1-.1.1-.1 0-.1 0-.1-.1-.1 0-.1 0-.1-.1"/><path d="m45.8 58.3c0 .2-.1.3-.3.3s-.3-.1-.3-.3.1-.3.3-.3c.1 0 .3.2.3.3z"/><path d="m44.8 65.4c0 .4-.3.7-.7.7s-.7-.3-.7-.7.3-.7.7-.7c.4.1.7.4.7.7z"/><path d="m45 61c0 .2-.2.4-.4.4s-.4-.2-.4-.4.2-.4.4-.4.4.1.4.4z"/><path d="m108.2 60.9c0 .1 0 .1 0 0-.2.1-.2.1-.2 0s0-.1.1-.1.1.1.1.1z"/><path d="m115.2 62.2c0 .3-.3.6-.6.6s-.6-.3-.6-.6.3-.6.6-.6c.3-.1.6.2.6.6z"/><path d="m51 34.1c0 .1-.1.2-.2.2s-.2-.1-.2-.2.1-.2.2-.2.2.1.2.2z"/><path d="m88.6 75.2c0 .2-.1.3-.3.3s-.3-.1-.3-.3.1-.3.3-.3.3.2.3.3z"/><path d="m77 22.3c0 .4-.3.6-.6.6-.4 0-.6-.3-.6-.6 0-.4.3-.6.6-.6.4-.1.6.2.6.6z"/><path d="m76.7 68.4c0 .4-.3.7-.7.7s-.7-.3-.7-.7.3-.7.7-.7c.4.1.7.4.7.7z"/><path d="m109.4 150.9c-.4 0-.7-.1-1-.4l-16.9-14-21.9-2c-.8-.1-1.4-.7-1.4-1.5l-2.1-21.9-14-16.9c-.5-.6-.5-1.5 0-2l14-16.9 2.1-21.9c.1-.8.7-1.4 1.4-1.4l21.9-2.1 16.9-14c.6-.5 1.5-.5 2 0l16.9 14 21.9 2.1c.8.1 1.4.7 1.4 1.5l2.1 21.9 14 16.9c.5.6.5 1.5 0 2l-14 16.9-2.1 21.9c-.1.8-.7 1.4-1.4 1.4l-21.9 2.1-16.9 14c-.2.2-.6.3-1 .3zm.1-113.9-17.4 14.3-22.3 2.1s-.1 0-.1.1l-2.1 22.4-14.3 17.3v.1l14.2 17.2 2.1 22.3c0 .1 0 .1.1.1l22.3 2.1 17.3 14.3.6.6-.5-.6 17.3-14.3h.2l22.1-2.1s.1 0 .1-.1l2.1-22.4 14.3-17.3v-.1l-14.3-17.3v-.2l-2.1-22.1c0-.1 0-.1-.1-.1l-22.3-2.1-.2-.1z"/></g></svg>