<svg viewBox="0 0 512 512" xmlns="http://www.w3.org/2000/svg"><path d="m418.645 118.615c-39.888-39.97-91.85-63.436-147.645-67.012v-21.603h22c8.284 0 15-6.716 15-15s-6.716-15-15-15h-74c-8.284 0-15 6.716-15 15s6.716 15 15 15h22v21.603c-38.257 2.452-74.708 14.257-106.703 34.324l-14.249-14.278c-6.935-6.949-16.16-10.775-25.977-10.775s-19.042 3.827-25.976 10.775l-21.671 21.718c-14.265 14.293-14.265 37.551 0 51.845l14.346 14.376c-22.643 36.231-34.769 78.163-34.769 121.966 0 61.548 23.92 119.415 67.354 162.939 43.442 43.532 101.204 67.507 162.645 67.507s119.203-23.975 162.645-67.507c43.434-43.524 67.354-101.391 67.354-162.939s-23.92-119.415-67.354-162.939zm-350.986-4.056 21.672-21.717c1.708-1.711 3.703-1.967 4.741-1.967s3.034.255 4.742 1.967l10.87 10.892c-5.637 4.673-11.089 9.632-16.328 14.882-5.224 5.235-10.159 10.682-14.81 16.314l-10.887-10.909c-2.604-2.609-2.604-6.854 0-9.462zm188.341 367.441c-110.28 0-199.999-89.92-199.999-200.446s89.719-200.446 199.999-200.446 199.999 89.919 199.999 200.446-89.719 200.446-199.999 200.446z"/><path d="m256 109.226c-94.842 0-172.001 77.306-172.001 172.328s77.159 172.328 172.001 172.328 172.001-77.306 172.001-172.328-77.159-172.328-172.001-172.328zm15 313.862v-17.533c0-8.284-6.716-15-15-15s-15 6.716-15 15v17.533c-66.356-7.015-119.23-60.021-126.213-126.534h17.213c8.284 0 15-6.716 15-15s-6.716-15-15-15h-17.212c6.982-66.513 59.856-119.519 126.212-126.534v17.533c0 8.284 6.716 15 15 15s15-6.716 15-15v-17.533c66.356 7.015 119.23 60.021 126.213 126.534h-17.213c-8.284 0-15 6.716-15 15s6.716 15 15 15h17.212c-6.982 66.513-59.856 119.519-126.212 126.534z"/><path d="m293 272.897h-21.162v-60.667c0-8.284-6.716-15-15-15s-15 6.716-15 15v75.667c0 8.284 6.716 15 15 15h36.162c8.284 0 15-6.716 15-15s-6.716-15-15-15z"/></svg>