<svg
    xmlns="http://www.w3.org/2000/svg"
    viewBox="0 0 512 512"
    id="vector">
    <path
        id="path_1"
        d="M 467 121 L 247 121 L 210.2 10.3 C 208.2 4.1 202.5 0 196 0 L 45 0 C 20.2 0 0 20.2 0 45 L 0 346 C 0 370.8 20.2 391 45 391 L 210.3 391 L 246.8 501.4 C 248.8 507.9 254.8 512 261.1 512 C 261.1 512 261.2 512 261.2 512 L 467 512 C 491.8 512 512 491.8 512 467 L 512 166 C 512 141.2 491.8 121 467 121 L 467 121 Z M 45 361 C 36.7 361 30 354.3 30 346 L 30 45 C 30 36.7 36.7 30 45 30 L 185.2 30 L 295.2 361 C 239 361 100.5 361 45 361 Z M 292.7 391 L 263.3 455.8 L 241.9 391 L 292.7 391 Z M 482 467 C 482 475.3 475.3 482 467 482 L 284.4 482 L 329.7 382.2 C 331.3 378.6 331.4 374.7 330.3 371.3 L 257 151 L 467 151 C 475.3 151 482 157.7 482 166 L 482 467 Z"
        fill="#000000"/>
    <path
        id="path_2"
        d="M 436 241 L 391 241 L 391 226 C 391 217.7 384.3 211 376 211 C 367.7 211 361 217.7 361 226 L 361 241 L 316 241 C 307.7 241 301 247.7 301 256 C 301 264.3 307.7 271 316 271 L 403.1 271 C 398.3 285.2 388.1 302 376.2 318.2 C 373.6 314.7 371.1 311.2 368.7 307.6 C 364 300.7 354.7 299 347.9 303.6 C 341 308.3 339.3 317.6 343.9 324.4 C 348.1 330.6 352.5 336.6 356.9 342.3 C 349.4 351 342 358.9 335.5 365.2 C 329.6 371 329.5 380.5 335.3 386.4 C 341.1 392.3 350.6 392.4 356.5 386.6 C 357 386.1 365.2 378 376.1 365.7 C 386.8 377.9 394.7 385.9 395.4 386.5 C 401.3 392.4 410.7 392.4 416.6 386.5 C 422.5 380.6 422.5 371.1 416.6 365.3 C 416.4 365.1 407.3 355.9 395.5 342.2 C 416.7 314.8 429.7 290.8 434.2 270.9 L 436 270.9 C 444.3 270.9 451 264.2 451 255.9 C 451 247.6 444.3 241 436 241 L 436 241 Z"
        fill="#000000"/>
    <path
        id="path_3"
        d="M 177.4 268.4 L 170 248.8 L 106.7 248.8 L 99.3 268.8 C 96.4 276.6 93.9 281.9 91.9 284.6 C 89.8 287.3 86.5 288.7 81.8 288.7 C 77.8 288.7 74.3 287.2 71.3 284.3 C 68.3 281.4 66.7 278.1 66.7 274.4 C 66.7 272.3 67.1 270.1 67.8 267.8 C 68.5 265.5 69.7 262.4 71.3 258.3 L 111.2 157.1 C 112.3 154.2 113.7 150.7 115.3 146.6 C 116.9 142.5 118.6 139.1 120.4 136.5 C 122.2 133.8 124.6 131.6 127.5 130 C 130.4 128.3 134.1 127.5 138.4 127.5 C 142.8 127.5 146.5 128.3 149.4 130 C 152.3 131.7 154.7 133.8 156.5 136.4 C 158.3 139 159.8 141.8 161.1 144.8 C 162.3 147.8 163.9 151.8 165.8 156.9 L 206.5 257.4 C 209.7 265.1 211.3 270.6 211.3 274.1 C 211.3 277.7 209.8 281 206.8 284 C 203.8 287 200.2 288.5 195.9 288.5 C 193.4 288.5 191.3 288.1 189.5 287.2 C 187.7 286.3 186.2 285.1 185 283.6 C 183.8 282.1 182.5 279.7 181.1 276.6 C 179.5 273.6 178.4 270.9 177.4 268.4 Z M 114.9 225.2 L 161.4 225.2 L 137.9 160.9 L 114.9 225.2 Z"
        fill="#000000"/>
</svg>
